<svg id="Camada_1" data-name="Camada 1" xmlns="http://www.w3.org/2000/svg" viewBox="0 0 501 406"><defs><style>.cls-1,.cls-2{fill:#fff;}.cls-2{font-size:31px;font-family:SegoeUI, Segoe UI;}</style></defs><title>Prancheta 19</title><path class="cls-1" d="M369,198.15l-.06.25s0,0,0,0a2.11,2.11,0,0,1-1.87,1.64,2.32,2.32,0,0,1-2.11-2.31.49.49,0,0,1,0-.12s0-.1,0-.14a.28.28,0,0,1,0-.09s0,0,0,0,0,0,0,0a0,0,0,0,1,0,0l0,.39a.49.49,0,0,1,0-.12,1.77,1.77,0,0,1,0-.23h0s0,0,0,0a0,0,0,0,1,0,0,1.93,1.93,0,0,0,0-.24c-.39-16.73,10-30.54,23.2-30.85a19.41,19.41,0,0,1,5.8.75c2.43.71,9,5.63,10.25,6.53a19.58,19.58,0,0,0,12.2,4c8.21-.19,15.3-5.77,19.22-14,.2-.41.38-.82.56-1.24a1.27,1.27,0,0,1,.89-.4,1.6,1.6,0,0,1,1.47,1.33h0l.06.84v0c0,.41,0,.83.05,1.24C439,181,429.29,193.94,417,194.23a17.7,17.7,0,0,1-4.32-.43,20.41,20.41,0,0,1-9.51-5.17h0l-2.6-2.85h0a17.77,17.77,0,0,0-12.59-5c-8.84.2-16.2,7.45-18.87,17.44,0,.09,0,.17-.06.25s0,0,0,0"/><path class="cls-1" d="M381.38,305.28l-.06.24s0,0,0,.05a2.11,2.11,0,0,1-1.87,1.65,2.34,2.34,0,0,1-2.11-2.31v-.13s0-.09,0-.13a.31.31,0,0,1,0-.1s0,0,0,0,0,0,0,0,0,0,0,0v.26a.87.87,0,0,1,0-.23h0s0,0,0,0,0,0,0,0,0-.17,0-.25c-.39-16.72,10-30.54,23.2-30.85a19.38,19.38,0,0,1,5.8.76c2.44.71,9,5.63,10.25,6.52a19.61,19.61,0,0,0,12.2,4c8.21-.19,15.3-5.78,19.23-14,.19-.41.37-.82.55-1.25a1.31,1.31,0,0,1,.89-.4,1.61,1.61,0,0,1,1.47,1.34h0c0,.28.05.56.06.84h0c0,.42,0,.84.05,1.25.37,15.65-9.35,28.56-21.69,28.86a18.26,18.26,0,0,1-4.32-.43,20.44,20.44,0,0,1-9.5-5.18h0l-2.6-2.85h0a17.85,17.85,0,0,0-12.58-5.05c-8.84.21-16.21,7.46-18.88,17.45l-.06.24s0,0,0,.05"/><path class="cls-1" d="M240,251.22s-14.6,4.81-13.86,22.9c1.49,26.82-7.94,29.54-9.67,30.84-12.73,8.26-17.22-4.92-17.22-4.92s-7.79,11,2.8,22c9.72,8.27,26.3-.38,26.3-.38s14-6.07,11.31-26.71c-.51-3.77-4-9.81-4.4-17,.44-17,7.33-22.82,7.33-22.82a2,2,0,0,0-.07-3.07A3.65,3.65,0,0,0,240,251.22Z"/><path class="cls-1" d="M132.28,309.7h0a20.9,20.9,0,0,0,4.22.84l.81.05h0a20.32,20.32,0,0,0,19.58-12v-.07l1.15-3.36a19.86,19.86,0,0,1-1.15,3.36l1.15-3.36a28.93,28.93,0,0,1,2.08-4c.24-.39.48-.77.74-1.14a28.85,28.85,0,0,1,10.26-9.16c2.35-1.26,14.22,7.24,10.92,8.17A28.79,28.79,0,0,0,163,306.4v0s0,0,0,0a0,0,0,0,0,0,0l-1.11,3.69v.06A24.51,24.51,0,1,1,149,278.76a1.57,1.57,0,0,1,.26.12,2.64,2.64,0,0,1,.84.72,2.56,2.56,0,0,1-1.3,4h0a16.7,16.7,0,0,0-1.88-.28h-.22a18.17,18.17,0,0,0-19.24,14.38,9.47,9.47,0,0,0-.58,2.51,9.58,9.58,0,0,0,5.41,9.52h0"/><path class="cls-1" d="M191.6,293.27h0a20.89,20.89,0,0,0-4.16-1.13l-.8-.11h0a20.32,20.32,0,0,0-20.35,10.66l0,.05v0L164.86,306a19.8,19.8,0,0,1,1.38-3.27L164.86,306a28.2,28.2,0,0,1-2.35,3.88c-.26.37-.53.74-.81,1.09a29,29,0,0,1-10.86,8.43c-2.44,1.09-13.7-8.19-10.34-8.89a28.85,28.85,0,0,0,20.2-16.07v0l0,0h0l1.36-3.6s0,0,0,0v0a24.71,24.71,0,0,1,4.4-6.34,24.48,24.48,0,0,1,41.86,20.83,24.13,24.13,0,0,1-4.08,10.11,24.51,24.51,0,0,1-24,10.18,24.2,24.2,0,0,1-7.5-2.5l-.25-.14a2.42,2.42,0,0,1-.78-.78,2.47,2.47,0,0,1-.38-1.79,2.53,2.53,0,0,1,2-2.09h0a16.62,16.62,0,0,0,1.86.4l.21,0a18.16,18.16,0,0,0,20.18-13,9.32,9.32,0,0,0,.75-2.47,9.57,9.57,0,0,0-4.74-9.87h0"/><path class="cls-1" d="M157.09,225.57c.42-.61.84-.8,1.27-.55a2.88,2.88,0,0,1,1.1,1.5,10.69,10.69,0,0,1,.63,2.78,10.56,10.56,0,0,1-.2,3.31,19,19,0,0,1-1.91,5.3,13.15,13.15,0,0,1-3.1,3.82,9.83,9.83,0,0,1-4,2,9.56,9.56,0,0,1-4.63-.06,13.83,13.83,0,0,1-6.54-3.93,41.41,41.41,0,0,1-5.83-7.57,96,96,0,0,1-5.21-9.84Q126.21,217,124,211.66t-4.25-10.21a83.65,83.65,0,0,0-4-8.31,18.63,18.63,0,0,0-3.73-5,2.67,2.67,0,0,0-3.61-.3c-.25.23-.38.32-.38.28a.79.79,0,0,1,.12-.25l.29-.46a.49.49,0,0,0,.09-.43c0-.12.23-.25.83-.41a17.77,17.77,0,0,1,2.29-.42c.93-.13,2-.23,3.06-.32s2.15-.14,3.13-.15,2.17.63,3.46,1.9a35.79,35.79,0,0,1,4.09,5.12c1.44,2.14,2.93,4.55,4.48,7.25s3.11,5.47,4.66,8.28,3.1,5.57,4.65,8.27,3.05,5.12,4.49,7.26a34.43,34.43,0,0,0,4.09,5.11c1.29,1.28,2.44,1.92,3.46,1.91a3.54,3.54,0,0,0,1.69-.56,10.85,10.85,0,0,0,1.74-1.33,13,13,0,0,0,1.49-1.67A6.24,6.24,0,0,0,157.09,225.57Z"/><path class="cls-1" d="M195.1,177.54c-.73,2.2-1.73,4.74-3,7.65s-2.77,5.88-4.47,8.95-3.54,6.09-5.54,9.07a63.69,63.69,0,0,1-6.19,7.89,33.31,33.31,0,0,1-6.41,5.47,10.37,10.37,0,0,1-6.17,1.88,15.94,15.94,0,0,1-7.4-2,15.41,15.41,0,0,1-4.8-4.43,18.75,18.75,0,0,1-2.63-5.71,28.71,28.71,0,0,1-1-5.94,36.16,36.16,0,0,1,1.21-12.56,37.16,37.16,0,0,1,4.8-10.63,27.53,27.53,0,0,1,7.1-7.44,15.15,15.15,0,0,1,8.11-3,9.94,9.94,0,0,1,5.22.86,7,7,0,0,1,2.75,2.56,7.57,7.57,0,0,1,1,3.28,26.48,26.48,0,0,1,.06,3,18,18,0,0,1-1.07,5.11,21.3,21.3,0,0,1-2.23,4.39,25.5,25.5,0,0,1-3,3.66,31.27,31.27,0,0,1-3.3,2.93,36.91,36.91,0,0,1-8.76,5.05,20.86,20.86,0,0,1-2.83-3.54,5.69,5.69,0,0,1-.53-1.18,1,1,0,0,1,0-.91,1.15,1.15,0,0,1,.84-.47,5.43,5.43,0,0,1,1.88.16,6.44,6.44,0,0,0,4.89-1,21.6,21.6,0,0,0,4.82-4.07,27.78,27.78,0,0,0,3.83-5.41,14.81,14.81,0,0,0,1.84-5.09,4.18,4.18,0,0,0,.06-1.33,4.28,4.28,0,0,0-.29-1.22,1.65,1.65,0,0,0-.64-.8,1.21,1.21,0,0,0-1-.13,5.56,5.56,0,0,0-2.28,1.84,23.5,23.5,0,0,0-2.66,4,51.82,51.82,0,0,0-2.64,5.59,65.57,65.57,0,0,0-4,13.87,40.05,40.05,0,0,0-.59,7.21,14.46,14.46,0,0,0,1,5.48,2.63,2.63,0,0,0,3.13,1.61,13.47,13.47,0,0,0,3.62-1.25,24.91,24.91,0,0,0,4-2.48,30.49,30.49,0,0,0,4-3.68,36.6,36.6,0,0,0,3.76-4.89q1.94-3,3.89-6.61c1.31-2.43,2.53-4.84,3.68-7.23s2.16-4.6,3-6.64,1.56-3.61,2-4.73a5.77,5.77,0,0,1,1.76-2.5.86.86,0,0,1,1.26.16,3.61,3.61,0,0,1,.47,2.06A8.74,8.74,0,0,1,195.1,177.54Z"/><path class="cls-1" d="M192.15,171.92a19.13,19.13,0,0,1,.64-6.47,14.49,14.49,0,0,1,2.23-4.6,13,13,0,0,1,3.19-3.11,18.81,18.81,0,0,1,3.4-1.88,17.54,17.54,0,0,1,3-1c.88-.2,1.49-.34,1.81-.44a2.4,2.4,0,0,1,2,.3,3.35,3.35,0,0,1,1.26,1.49,3,3,0,0,1,.2,1.88,1.89,1.89,0,0,1-1.18,1.41,3.33,3.33,0,0,0-1,1.1,16.32,16.32,0,0,0-1.34,2.39,19.49,19.49,0,0,0-1.19,3.22,17.39,17.39,0,0,0-.64,3.68,54.81,54.81,0,0,0,.15,8.18q.39,4.68.68,9.74t.23,10.14a39.62,39.62,0,0,1-1.14,9.31,18.56,18.56,0,0,1-3.5,7.23,11.55,11.55,0,0,1-6.81,3.94,8.48,8.48,0,0,1-4.55-.06,6.9,6.9,0,0,1-3.2-2.11,8.41,8.41,0,0,1-1.74-3.54,11.08,11.08,0,0,1-.18-4.3c-2.29-2.67,3.29-7.1,4.68-8.19a58.59,58.59,0,0,1,5.31-3.61l6.3-3.84c2.18-1.32,4.06,3.43,1.79,5.06s-4.39,3.12-6.36,4.49-3.57,2.55-4.82,3.54a12.66,12.66,0,0,0-2.22,2.26,4.9,4.9,0,0,0-1,1.93,1,1,0,0,0,.5,1.12,3,3,0,0,0,2.09-.2c1.07-.33,1.84-1.45,2.32-3.34a35.6,35.6,0,0,0,.88-6.89c.11-2.71.09-5.62-.08-8.74s-.37-6.07-.61-8.84-.48-5.19-.73-7.27S192.15,172.53,192.15,171.92Z"/><path class="cls-1" d="M107.9,144.14S93.3,149,94,167c1.49,26.82-7.94,29.54-9.67,30.85C71.64,206.15,67.16,193,67.16,193s-7.8,11,2.79,22c9.72,8.28,26.31-.38,26.31-.38s14-6.07,11.3-26.71c-.51-3.77-4-9.81-4.4-17,.44-17,7.33-22.82,7.33-22.82a2,2,0,0,0-.07-3.07A3.65,3.65,0,0,0,107.9,144.14Z"/><path class="cls-1" d="M105.09,138.87l.78-.17a25.11,25.11,0,0,1,4-.43A23.78,23.78,0,1,1,111,185.82c-.34,0-.67,0-1,0h0a1.15,1.15,0,0,0-.26,0,1.38,1.38,0,0,0-.29,0,1.43,1.43,0,0,0-1.19,1.35,1.42,1.42,0,0,0,.58,1.19h0l.44.21.26.13h0a30.15,30.15,0,0,0,13.55,2.82A30.46,30.46,0,1,0,105,136.06h0c-.34.23-.66.48-1,.72a1.47,1.47,0,0,0-.17.62A1.42,1.42,0,0,0,105.09,138.87Z"/><path class="cls-1" d="M127,263.8s1.41-2.32,2-3.08A22.54,22.54,0,0,1,163,258.78h0l2.38,2.9h0a24.54,24.54,0,0,0,42-13.3c0-.35.1-.71.13-1.07h0c0-.24.05-.48.07-.72v0a1.65,1.65,0,0,0-1.39-1.4,1.62,1.62,0,0,0-1,.18c-.26.33-.53.64-.79.95a25.42,25.42,0,0,1-35.53,2.76c-1.17-1-7.54-6.38-10.07-7.43a26.24,26.24,0,0,0-36,20.31l0,.21h0v0h0a1.38,1.38,0,0,0,0,.2.41.41,0,0,0,0,.11l0-.34h0v0h0s0,.06,0,.08,0,.08,0,.12a.41.41,0,0,0,0,.11c-.06,1.16,4.3,1.13,4.33,1.06"/><path class="cls-1" d="M222.77,139.44l.78-.17a23.78,23.78,0,1,1,5.12,47.12c-.34,0-.68,0-1,0h0l-.26,0a1.38,1.38,0,0,0-.29,0,1.41,1.41,0,0,0-1.19,1.35,1.39,1.39,0,0,0,.58,1.19h0l.44.21.26.13h0a30.47,30.47,0,1,0-4.58-52.64h0c-.34.23-.67.48-1,.72a1.62,1.62,0,0,0-.16.62A1.42,1.42,0,0,0,222.77,139.44Z"/><path class="cls-1" d="M342.4,203.52h0a20.16,20.16,0,0,0,4.29.35l.81,0h0a20.3,20.3,0,0,0,18.08-14.19v0s0,0,0,0l.75-3.46a19.71,19.71,0,0,1-.75,3.46l.75-3.46a28.06,28.06,0,0,1,1.61-4.24c.19-.42.39-.83.6-1.22a29,29,0,0,1,9.14-10.28c2.2-1.51,15,5.57,11.79,6.87a28.82,28.82,0,0,0-16.94,19.48v0s0,0,0,0h0l-.68,3.79v.07a24.7,24.7,0,0,1-3.17,7,24.5,24.5,0,1,1-13.21-36.82c.09,0,.18.06.27.09a2.5,2.5,0,0,1,.91.62,2.57,2.57,0,0,1-.83,4.11h0a15,15,0,0,0-1.9-.06h-.22a18.15,18.15,0,0,0-17.47,16.48,9.45,9.45,0,0,0-.29,2.56,9.59,9.59,0,0,0,6.46,8.84h0"/><path class="cls-1" d="M272.83,163.35c-.22-.81-.05-1.21.49-1.19a4.76,4.76,0,0,1,2.15.9,19.83,19.83,0,0,1,3,2.46,28.46,28.46,0,0,1,3.05,3.53,21,21,0,0,1,2.37,4,9.6,9.6,0,0,1,.95,3.93,12.55,12.55,0,0,1-.43,2.45c-.29,1.23-.69,2.71-1.18,4.45s-1,3.64-1.64,5.71-1.17,4.15-1.74,6.25-1.08,4.1-1.55,6-.82,3.59-1.06,5-.41,2.31-.51,2.95-.08,1,.05,1.11.38,0,.76-.31l1.64-1.32a35,35,0,0,0,5.15-5.28,73.56,73.56,0,0,0,4.68-6.59q2.19-3.45,4-7t3.23-6.42c.92-1.94,1.67-3.61,2.25-5l1.08-2.61a6.53,6.53,0,0,1,1.92-2.73c.59-.34,1-.29,1.38.14a3.53,3.53,0,0,1,.48,2.21,12.27,12.27,0,0,1-.69,3.57q-1,2.69-2.69,6.6t-4.06,8.22q-2.32,4.31-5.2,8.61a63.34,63.34,0,0,1-6,7.74,32.21,32.21,0,0,1-6.53,5.57,12.78,12.78,0,0,1-6.74,2.16,6.22,6.22,0,0,1-2-.37,5.81,5.81,0,0,1-2.23-1.39,8.64,8.64,0,0,1-1.91-2.89,12.17,12.17,0,0,1-.84-4.77,17,17,0,0,1,.81-3.37q.81-2.76,2-6.79t2.52-8.85c.86-3.23,1.6-6.47,2.2-9.74a85.18,85.18,0,0,0,1.26-9.38A24.43,24.43,0,0,0,272.83,163.35Z"/><path class="cls-1" d="M312,211.81a5.17,5.17,0,0,0,3.57-1.11,20,20,0,0,0,3.77-3.62,47.24,47.24,0,0,0,3.78-5.34c1.25-2,2.44-4.09,3.57-6.23s2.19-4.27,3.2-6.41,1.89-4.06,2.63-5.79,1.37-3.18,1.86-4.35.79-1.88.88-2.13a6,6,0,0,1,1.8-2.55c.55-.32,1-.28,1.29.13a3.45,3.45,0,0,1,.49,2.07,9.35,9.35,0,0,1-.69,3.34,67.23,67.23,0,0,1-2.41,7c-1.05,2.66-2.26,5.41-3.65,8.24s-2.9,5.64-4.54,8.42a64.54,64.54,0,0,1-5.13,7.5,30.93,30.93,0,0,1-5.43,5.43,10.12,10.12,0,0,1-5.36,2.27,10.55,10.55,0,0,1-3.23-.4,9,9,0,0,1-3.63-2,13.3,13.3,0,0,1-3.09-4.42,21.59,21.59,0,0,1-1.64-7.51,18.25,18.25,0,0,1,.25-3.69c.22-1.56.54-3.23,1-5s.87-3.6,1.38-5.42,1-3.46,1.42-4.92.83-2.66,1.15-3.6a7.26,7.26,0,0,1,.56-1.4l-1.11,0a7.24,7.24,0,0,1-2.8-.76,9.32,9.32,0,0,1-3.14-2.55,10.8,10.8,0,0,1-2.06-5.39,28.93,28.93,0,0,1,.08-3.95c2.32-15.41,15.9-8.59,13.74-5.28-1.62,3.42-1.8,3.84-2.88,5.9l5.43-2c1.43-.54,2.85-1.07,4.28-1.58a24.13,24.13,0,0,1,3.29-1,2.12,2.12,0,0,1,2.26.73,5.71,5.71,0,0,1,1.14,2.53,9.84,9.84,0,0,1,.1,3.12,5.17,5.17,0,0,1-.84,2.48,60,60,0,0,0-3.57,5.94q-1.94,3.65-3.69,7.74t-3.15,8.35a67.84,67.84,0,0,0-2.11,7.83,21.69,21.69,0,0,0-.48,6.16C310.39,210.17,311,211.29,312,211.81Z"/><path class="cls-1" d="M278.62,142.68c-8.05,1.63-1.25,20.52,9,15.37,8.55-4.53-2.95-27.06-9.59-15.07"/><path class="cls-1" d="M286.05,270.48c-.21-.81,0-1.21.49-1.19a4.72,4.72,0,0,1,2.15.9,18.25,18.25,0,0,1,3,2.46,29.1,29.1,0,0,1,3,3.52,22.72,22.72,0,0,1,2.37,4,10,10,0,0,1,.95,3.93,12,12,0,0,1-.44,2.45c-.29,1.23-.68,2.71-1.18,4.45s-1,3.64-1.63,5.71S293.61,300.9,293,303s-1.08,4.1-1.55,6-.82,3.59-1.06,5-.41,2.31-.51,3-.08,1,.05,1.1.38,0,.76-.31l1.63-1.31a35.63,35.63,0,0,0,5.16-5.29,73.4,73.4,0,0,0,4.68-6.58q2.18-3.46,4-7c1.22-2.33,2.3-4.47,3.22-6.41s1.67-3.61,2.25-5,.94-2.26,1.09-2.61a6.3,6.3,0,0,1,1.92-2.73c.59-.34,1-.29,1.38.14a3.53,3.53,0,0,1,.48,2.21,12.21,12.21,0,0,1-.69,3.56q-1,2.68-2.7,6.6t-4.05,8.22q-2.33,4.31-5.2,8.61a61.84,61.84,0,0,1-6,7.74,31.9,31.9,0,0,1-6.53,5.57,12.71,12.71,0,0,1-6.75,2.17,6.46,6.46,0,0,1-2-.37,5.76,5.76,0,0,1-2.24-1.4,8.84,8.84,0,0,1-1.9-2.88,12.26,12.26,0,0,1-.84-4.78,18,18,0,0,1,.81-3.37q.81-2.76,2-6.79c.81-2.68,1.66-5.62,2.52-8.85s1.6-6.46,2.2-9.73a88,88,0,0,0,1.26-9.38A24.4,24.4,0,0,0,286.05,270.48Z"/><path class="cls-1" d="M291.84,249.8c-8,1.64-1.24,20.52,9,15.38,8.56-4.53-2.94-27.06-9.58-15.08"/><path class="cls-1" d="M229,145.06a3.65,3.65,0,0,0-2.52-.92S211.83,149,212.57,167c1.49,26.82-7.94,29.54-9.67,30.85A22.42,22.42,0,0,1,201,199a15.68,15.68,0,0,1-3.07,1.21,5.68,5.68,0,0,1,2.07,4.15c.08,3.47-7.32,13.24-5,13.75,9.22,2,19.84-3.52,19.84-3.52s14-6.07,11.3-26.71c-.51-3.77-4-9.81-4.4-17,.44-17,7.33-22.82,7.33-22.82A2,2,0,0,0,229,145.06Z"/><path class="cls-1" d="M236,246.52c.26-.07.51-.12.77-.17a23.78,23.78,0,1,1,5.13,47.12h-1l-.26,0a1.46,1.46,0,0,0-.29,0,1.41,1.41,0,0,0-.6,2.54h0l.44.21.27.12h0a30.47,30.47,0,1,0-4.58-52.64h0q-.5.34-1,.72a1.47,1.47,0,0,0-.17.62A1.42,1.42,0,0,0,236,246.52Z"/><path class="cls-1" d="M354.75,310.65h0a20.83,20.83,0,0,0,4.29.35l.81,0h0A20.33,20.33,0,0,0,378,296.78v0s0,0,0,0l.75-3.46a19.91,19.91,0,0,1-.75,3.46l.75-3.46a29.3,29.3,0,0,1,1.61-4.25c.19-.41.39-.82.61-1.22a28.91,28.91,0,0,1,9.13-10.27c2.2-1.51,15,5.57,11.79,6.87a28.8,28.8,0,0,0-16.94,19.47v.07h0l-.68,3.8v.07a24.82,24.82,0,0,1-3.17,7A24.5,24.5,0,1,1,367.83,278l.27.09a2.38,2.38,0,0,1,.91.62,2.54,2.54,0,0,1-.83,4.1h0c-.62-.05-1.26-.07-1.9-.06l-.21,0a18.17,18.17,0,0,0-17.48,16.48,9.73,9.73,0,0,0-.29,2.55,9.61,9.61,0,0,0,6.46,8.85h0"/><path class="cls-1" d="M325.21,318.93a5.07,5.07,0,0,0,3.57-1.11,20.19,20.19,0,0,0,3.77-3.61,48.55,48.55,0,0,0,3.78-5.34q1.88-3,3.57-6.23c1.12-2.14,2.18-4.27,3.2-6.41s1.88-4.07,2.63-5.79,1.37-3.18,1.86-4.36.79-1.88.88-2.12a5.92,5.92,0,0,1,1.8-2.56c.55-.31,1-.27,1.29.13a3.58,3.58,0,0,1,.49,2.08,9.39,9.39,0,0,1-.69,3.34,68.72,68.72,0,0,1-2.41,7c-1.05,2.67-2.27,5.41-3.65,8.25s-2.9,5.64-4.55,8.42a63.29,63.29,0,0,1-5.12,7.5,31.66,31.66,0,0,1-5.44,5.43,10,10,0,0,1-5.35,2.26,10.47,10.47,0,0,1-3.23-.39,9.07,9.07,0,0,1-3.64-2.05,13.14,13.14,0,0,1-3.09-4.41,22.11,22.11,0,0,1-1.64-7.52,19.06,19.06,0,0,1,.25-3.69c.23-1.55.55-3.23,1-5s.88-3.61,1.39-5.43,1-3.46,1.42-4.92.83-2.66,1.15-3.59a6.81,6.81,0,0,1,.56-1.41l-1.11,0a7.23,7.23,0,0,1-2.8-.77,9.19,9.19,0,0,1-3.14-2.54,10.71,10.71,0,0,1-2.06-5.4,28.83,28.83,0,0,1,.08-3.94c2.32-15.42,15.89-8.59,13.74-5.29-1.62,3.42-1.81,3.85-2.88,5.91l5.43-2.06c1.42-.54,2.85-1.06,4.28-1.58a23.78,23.78,0,0,1,3.29-1,2.13,2.13,0,0,1,2.26.72A5.87,5.87,0,0,1,337.2,274a9.84,9.84,0,0,1,.09,3.12,5.21,5.21,0,0,1-.84,2.48,60.14,60.14,0,0,0-3.56,5.94q-1.93,3.63-3.69,7.74t-3.15,8.34a68.39,68.39,0,0,0-2.11,7.83,22.15,22.15,0,0,0-.49,6.17C323.61,317.3,324.2,318.42,325.21,318.93Z"/><path class="cls-1" d="M147.38,230.88c-20.79-.81-28.65,25.7-33.8,43.28-1.42,5.2-1.89,10.41-3.31,15.61-1,4.73-1,16.56-4.73,19.87-10.41,9.46-10.88-22.71-11.83-28.38-.47-5.68,0-12.78-1.89-18.46C88,253.34,83.3,258.07,80,265.64a140.22,140.22,0,0,0-5.38,16.15,61.63,61.63,0,0,1,6.65,12.11c1.34-6,3.63-11.21,6.3-18.32.47,9.46-1.42,19.4,1,28.86.95,5.2,4.26,15.14,8.52,18.92,8.51,7.57,10.4-1.89,12.77-8.52,7.09-20.34,12.77-53.45,29.8-68.12,3.7-3.1,9.47-4.82,14.74-6C160.07,239.06,149.54,231,147.38,230.88Z"/><path class="cls-1" d="M81.66,292.45a104.75,104.75,0,0,1-.92-13.89A106.48,106.48,0,0,1,81.38,267a23.28,23.28,0,0,0-3.23,5.25c-4.73,10.55-7.57,23.29-10.88,34.28-1.9,7.47-3.31,14.06-2.84,21.53.14,1.29.19,2.39.28,3.39.3,6.28,12.63,6.18,13-1-.41-6.81-1-9.13.4-20.81A89.38,89.38,0,0,1,81.66,292.45Z"/><text class="cls-2" transform="translate(205.91 90.95)">Logo</text></svg>