<svg xmlns="http://www.w3.org/2000/svg" viewBox="0 0 1390 343"><defs><style>.cls-1{isolation:isolate;}.cls-2{fill:#fff;opacity:0.33;}.cls-3{fill:#98d2f3;}.cls-11,.cls-3,.cls-5,.cls-7,.cls-9{opacity:0.3;}.cls-4{fill:#7ea4d7;}.cls-5,.cls-6{fill:#cea0ca;}.cls-5{mix-blend-mode:multiply;}.cls-7{fill:#a6d1a7;}.cls-8{fill:#40b07f;}.cls-9{fill:#f5b2a6;}.cls-10{fill:#f5ac8e;}.cls-11{fill:#f5d599;}.cls-12{fill:#fbc883;}.cls-13{font-size:12px;font-family:SegoeUI-Light, Segoe UI;}.cls-14{letter-spacing:-0.05em;}.cls-15{letter-spacing:-0.02em;}</style></defs><title>Prancheta 14</title><g class="cls-1"><g id="Camada_1" data-name="Camada 1"><rect class="cls-2" width="1390" height="343"/><path class="cls-3" d="M144.89,105.67c21.49-11.07,59-13,70.27-23.2,20.77-16.33,37.57-24.1,37.57-24.1s15-7.82,28.73,5.39c30.93,37.86,3.25,80.09,3.25,80.09s-12.9,25.42-37.72,33.62c-49.41,15.43-102-26.23-102-26.23s-15.67-13.7-14.89-26.51C130.83,115.55,135,110.1,144.89,105.67Z"/><path class="cls-3" d="M290.9,108.69c-20.43-10.42-56-12.14-66.78-21.74-19.78-15.42-35.75-22.73-35.75-22.73s-14.24-7.37-27.24,5.23c-29.21,36.05-2.77,76-2.77,76s12.34,24.08,35.93,31.76c47,14.45,96.66-25.3,96.66-25.3s14.81-13.05,14-25.21C304.29,118,300.27,112.86,290.9,108.69Z"/><path class="cls-4" d="M144.32,84c21.67-5.73,56,0,68.28-7,22.08-10.63,38.84-14.31,38.84-14.31s15.13-4.09,24.94,10.63c20.45,40.47-13.08,73.18-13.08,73.18s-16.76,20.45-40.89,22.9c-47.83,4.09-87.08-44.16-87.08-44.16s-11.45-15.53-8.18-27C129.6,90.13,134.51,86,144.32,84Z"/><path class="cls-5" d="M397.89,105.67c21.49-11.07,59-13,70.27-23.2,20.77-16.33,37.57-24.1,37.57-24.1s15-7.82,28.73,5.39c30.93,37.86,3.25,80.09,3.25,80.09s-12.9,25.42-37.72,33.62c-49.41,15.43-102-26.23-102-26.23s-15.67-13.7-14.89-26.51C383.83,115.55,388,110.1,397.89,105.67Z"/><path class="cls-5" d="M543.9,108.69c-20.43-10.42-56-12.14-66.78-21.74-19.78-15.42-35.75-22.73-35.75-22.73s-14.24-7.37-27.24,5.23c-29.21,36.05-2.77,76-2.77,76s12.34,24.08,35.93,31.76c46.95,14.45,96.66-25.3,96.66-25.3s14.81-13.05,14-25.21C557.29,118,553.27,112.86,543.9,108.69Z"/><path class="cls-6" d="M397.32,84c21.67-5.73,56,0,68.28-7,22.08-10.63,38.84-14.31,38.84-14.31s15.13-4.09,24.94,10.63c20.45,40.47-13.08,73.18-13.08,73.18s-16.76,20.45-40.89,22.9c-47.83,4.09-87.08-44.16-87.08-44.16s-11.45-15.53-8.18-27C382.6,90.13,387.51,86,397.32,84Z"/><path class="cls-7" d="M641.89,108.67c21.49-11.07,59-13,70.27-23.2,20.77-16.33,37.57-24.1,37.57-24.1s15-7.82,28.73,5.39c30.93,37.86,3.25,80.09,3.25,80.09s-12.9,25.42-37.72,33.62c-49.41,15.43-102-26.23-102-26.23s-15.67-13.7-14.89-26.51C627.83,118.55,632,113.1,641.89,108.67Z"/><path class="cls-7" d="M787.9,111.69c-20.43-10.42-56-12.14-66.78-21.74-19.78-15.42-35.75-22.73-35.75-22.73s-14.24-7.37-27.24,5.23c-29.21,36.05-2.77,76-2.77,76s12.34,24.08,35.93,31.76c47,14.45,96.66-25.3,96.66-25.3s14.81-13.05,14-25.21C801.29,121,797.27,115.86,787.9,111.69Z"/><path class="cls-8" d="M641.32,87c21.67-5.73,56,0,68.28-7,22.08-10.63,38.84-14.31,38.84-14.31s15.13-4.09,24.94,10.63c20.45,40.47-13.08,73.18-13.08,73.18s-16.76,20.45-40.89,22.9c-47.83,4.09-87.08-44.16-87.08-44.16s-11.45-15.53-8.18-27C626.6,93.13,631.51,89,641.32,87Z"/><path class="cls-9" d="M880.89,111.67c21.49-11.07,59-13,70.27-23.2,20.77-16.33,37.57-24.1,37.57-24.1s15-7.82,28.73,5.39c30.93,37.86,3.25,80.09,3.25,80.09s-12.9,25.42-37.72,33.62c-49.41,15.43-102-26.23-102-26.23s-15.67-13.7-14.89-26.51C866.83,121.55,871,116.1,880.89,111.67Z"/><path class="cls-9" d="M1026.9,114.69c-20.43-10.42-56-12.14-66.78-21.74-19.78-15.42-35.75-22.73-35.75-22.73s-14.24-7.37-27.24,5.23c-29.21,36.05-2.77,76-2.77,76s12.34,24.08,35.93,31.76c47,14.45,96.66-25.3,96.66-25.3s14.81-13.05,14-25.21C1040.29,124,1036.27,118.86,1026.9,114.69Z"/><path class="cls-10" d="M880.32,90c21.67-5.73,56,0,68.28-7,22.08-10.63,38.84-14.31,38.84-14.31s15.13-4.09,24.94,10.63c20.45,40.47-13.08,73.18-13.08,73.18s-16.76,20.45-40.89,22.9c-47.83,4.09-87.08-44.16-87.08-44.16s-11.45-15.53-8.18-27C865.6,96.13,870.51,92,880.32,90Z"/><path class="cls-11" d="M1111.89,111.67c21.49-11.07,59-13,70.27-23.2,20.77-16.33,37.57-24.1,37.57-24.1s15-7.82,28.73,5.39c30.93,37.86,3.25,80.09,3.25,80.09s-12.9,25.42-37.72,33.62c-49.41,15.43-102-26.23-102-26.23s-15.67-13.7-14.89-26.51C1097.83,121.55,1102,116.1,1111.89,111.67Z"/><path class="cls-11" d="M1257.9,114.69c-20.43-10.42-56-12.14-66.78-21.74-19.78-15.42-35.75-22.73-35.75-22.73s-14.24-7.37-27.24,5.23c-29.21,36.05-2.77,76-2.77,76s12.34,24.08,35.93,31.76c47,14.45,96.66-25.3,96.66-25.3s14.81-13.05,14-25.21C1271.29,124,1267.27,118.86,1257.9,114.69Z"/><path class="cls-12" d="M1111.32,90c21.67-5.73,56,0,68.28-7,22.08-10.63,38.84-14.31,38.84-14.31s15.13-4.09,24.94,10.63c20.45,40.47-13.08,73.18-13.08,73.18s-16.76,20.45-40.89,22.9c-47.83,4.09-87.08-44.16-87.08-44.16s-11.45-15.53-8.18-27C1096.6,96.13,1101.51,92,1111.32,90Z"/><text class="cls-13" transform="translate(900.12 225.91)"><tspan class="cls-14">P</tspan><tspan x="5.94" y="0" xml:space="preserve">antone:  2022 C</tspan><tspan x="0" y="14.4">C: 4 M: 32 Y: 33 K: 0</tspan><tspan x="0" y="28.8">R: 245 g: 172 B: 142</tspan><tspan x="0" y="43.2">Hex: F5</tspan><tspan class="cls-15" x="36.94" y="43.2">A</tspan><tspan x="44.25" y="43.2">C8E</tspan></text><text class="cls-13" transform="translate(1131.12 225.91)"><tspan class="cls-14">P</tspan><tspan x="5.94" y="0" xml:space="preserve">antone:  2022 C</tspan><tspan x="0" y="14.4">C: 4 M: 32 Y: 33 K: 0</tspan><tspan x="0" y="28.8">R: 245 g: 172 B: 142</tspan><tspan x="0" y="43.2">Hex: F5</tspan><tspan class="cls-15" x="36.94" y="43.2">A</tspan><tspan x="44.25" y="43.2">C8E</tspan></text><text class="cls-13" transform="translate(420.65 225.41)"><tspan class="cls-14">P</tspan><tspan x="5.94" y="0" xml:space="preserve">antone:  2567c</tspan><tspan x="0" y="14.4">C: 18 M: 33 Y: 4 K: 1</tspan><tspan x="0" y="28.8">R: 206 g: 160 B: 202</tspan><tspan x="0" y="43.2">Hex: CEA0CA</tspan></text><text class="cls-13" transform="translate(163.75 225.41)"><tspan class="cls-14">P</tspan><tspan x="5.94" y="0" xml:space="preserve">antone:  278c</tspan><tspan x="0" y="14.4">C: 51 M: 21 Y: 2 K: 0</tspan><tspan x="0" y="28.8">R: 126 g: 164 B: 215</tspan><tspan x="0" y="43.2">Hex: 7EA4D7</tspan></text><text class="cls-13" transform="translate(660.48 225.51)"><tspan class="cls-14">P</tspan><tspan x="5.94" y="0" xml:space="preserve">antone:  2413c</tspan><tspan x="0" y="14.4">C: 77 M: 2 Y: 50 K: 0</tspan><tspan x="0" y="28.8">R: 64 g: 176 B: 127</tspan><tspan x="0" y="43.2">Hex: 40B07F</tspan></text></g></g></svg>