<svg id="Camada_1" data-name="Camada 1" xmlns="http://www.w3.org/2000/svg" viewBox="0 0 1202 360"><defs><style>.cls-1{font-size:24px;font-family:SegoeUI, Segoe UI;}.cls-1,.cls-8{fill:#fff;}.cls-2{letter-spacing:0.17em;}.cls-3{letter-spacing:0.17em;}.cls-4{letter-spacing:0.04em;}.cls-5{letter-spacing:0.29em;}.cls-6{letter-spacing:0.08em;}.cls-7{letter-spacing:0.08em;}.cls-9{fill:#494847;}</style></defs><title>Prancheta 18</title><text class="cls-1" transform="translate(582 238.77)">Não<tspan class="cls-2" x="44.23" y="0"> </tspan><tspan x="55" y="0">pode</tspan><tspan class="cls-3" x="109.85" y="0"> </tspan><tspan x="120.62" y="0">usar</tspan><tspan class="cls-2" x="164.94" y="0"> </tspan><tspan x="175.71" y="0">contraste </tspan><tspan x="0" y="28.8">entre as cores</tspan></text><text class="cls-1" transform="translate(893 238.77)">Não<tspan class="cls-4" x="44.23" y="0"> </tspan><tspan x="51.84" y="0">deve</tspan><tspan class="cls-4" x="102.58" y="0"> </tspan><tspan x="110.19" y="0">usar</tspan><tspan class="cls-4" x="154.51" y="0"> </tspan><tspan x="162.13" y="0">o</tspan><tspan class="cls-4" x="176.19" y="0"> </tspan><tspan x="183.81" y="0">logotipo </tspan><tspan x="0" y="28.8">com qualquer variação de </tspan><tspan x="0" y="57.6">grau.</tspan></text><text class="cls-1" transform="translate(249 238.77)">Não<tspan class="cls-5" x="44.23" y="0"> </tspan><tspan x="57.69" y="0">pode</tspan><tspan class="cls-5" x="112.55" y="0"> </tspan><tspan x="126.01" y="0">usar</tspan><tspan class="cls-5" x="170.33" y="0"> </tspan><tspan x="183.8" y="0">a</tspan><tspan class="cls-5" x="196.01" y="0"> </tspan><tspan x="209.48" y="0">marca </tspan><tspan x="0" y="28.8">totalmente na horizontal</tspan></text><text class="cls-1" transform="translate(23 238.77)">Não<tspan class="cls-6" x="44.23" y="0"> </tspan><tspan x="52.69" y="0">pode</tspan><tspan class="cls-7" x="107.54" y="0"> </tspan><tspan x="116.01" y="0">usar</tspan><tspan class="cls-6" x="160.33" y="0"> </tspan><tspan x="168.79" y="0">a </tspan><tspan x="0" y="28.8">logo achatada</tspan></text><path class="cls-8" d="M1052.06,109.47h0"/><path class="cls-8" d="M1074.5,94.39l0,.1v0a.91.91,0,0,1-.39,1,1,1,0,0,1-1.27-.47l0-.05,0,0s0,0,0,0,0,0,0,0h0l.08.15,0-.05s0,0,0-.08h0l0-.09c-3.44-6.34-2.16-13.68,2.84-16.39a8.38,8.38,0,0,1,2.38-.85,26.14,26.14,0,0,1,5.21.49,8.41,8.41,0,0,0,5.47-.84c3.12-1.69,4.74-5.22,4.62-9.17a5.78,5.78,0,0,0,0-.58.59.59,0,0,1,.27-.33.68.68,0,0,1,.82.22h0l.18.31h0c.1.16.18.32.27.47,3.21,5.94,2,12.8-2.66,15.33a7.6,7.6,0,0,1-1.74.69,8.8,8.8,0,0,1-4.66-.12h0l-1.56-.58h0a7.71,7.71,0,0,0-5.82.53c-3.35,1.82-4.75,6-3.82,10.41l0,.1v0"/><path class="cls-8" d="M998.56,146.51c0-.32.16-.47.38-.46a1.23,1.23,0,0,1,.71.36,4.54,4.54,0,0,1,.79.94,4.5,4.5,0,0,1,.57,1.31,8,8,0,0,1,.31,2.41,5.76,5.76,0,0,1-.44,2.08,4.13,4.13,0,0,1-1.13,1.56,4.2,4.2,0,0,1-1.79.89,6,6,0,0,1-3.28-.22,17.63,17.63,0,0,1-3.73-1.77,41,41,0,0,1-3.93-2.75q-2-1.58-3.89-3.19c-1.26-1.08-2.48-2.1-3.64-3.09a36.17,36.17,0,0,0-3.15-2.41,8,8,0,0,0-2.41-1.19,1.16,1.16,0,0,0-1.45.59c-.05.14-.08.2-.09.19a.22.22,0,0,1,0-.12c0-.07,0-.15,0-.24a.21.21,0,0,0,0-.18s0-.14.24-.32a8.62,8.62,0,0,1,.79-.61c.34-.23.71-.47,1.12-.72s.79-.48,1.17-.67a2.22,2.22,0,0,1,1.7,0,14.74,14.74,0,0,1,2.57,1.16c1,.54,2,1.17,3.15,1.9s2.26,1.49,3.41,2.26,2.28,1.53,3.41,2.26,2.17,1.37,3.14,1.91a15.59,15.59,0,0,0,2.58,1.16,2.27,2.27,0,0,0,1.7.05,1.58,1.58,0,0,0,.54-.55,4.46,4.46,0,0,0,.41-.85,6.36,6.36,0,0,0,.24-.93A2.86,2.86,0,0,0,998.56,146.51Z"/><path class="cls-8" d="M1003.71,120.62c.16,1,.27,2.16.35,3.52s.09,2.8.05,4.31-.17,3-.35,4.57a26.54,26.54,0,0,1-.83,4.24,14.09,14.09,0,0,1-1.38,3.36,4.44,4.44,0,0,1-2,1.93,6.91,6.91,0,0,1-3.24.68,6.55,6.55,0,0,1-2.71-.76,7.91,7.91,0,0,1-2.13-1.68,11.82,11.82,0,0,1-1.55-2.08,15.55,15.55,0,0,1-2-5.05,16.3,16.3,0,0,1-.25-5,11.89,11.89,0,0,1,1.27-4.24,6.56,6.56,0,0,1,2.53-2.74,4.24,4.24,0,0,1,2.17-.69,3,3,0,0,1,1.56.44,3.36,3.36,0,0,1,1,1.06,11.12,11.12,0,0,1,.61,1.14,7.63,7.63,0,0,1,.59,2.17,8.94,8.94,0,0,1,0,2.13,11.6,11.6,0,0,1-.42,2,13.74,13.74,0,0,1-.69,1.78,16,16,0,0,1-2.38,3.65,9,9,0,0,1-1.78-.8,2.61,2.61,0,0,1-.43-.35.41.41,0,0,1,.06-.7,2.4,2.4,0,0,1,.75-.31,2.75,2.75,0,0,0,1.68-1.35,9.4,9.4,0,0,0,1-2.5,12.48,12.48,0,0,0,.41-2.84,6.6,6.6,0,0,0-.29-2.31,1.87,1.87,0,0,0-.24-.52,1.83,1.83,0,0,0-.35-.41.69.69,0,0,0-.41-.18.5.5,0,0,0-.4.14,2.47,2.47,0,0,0-.52,1.15,10.56,10.56,0,0,0-.23,2,22.54,22.54,0,0,0,.08,2.66,27.52,27.52,0,0,0,.42,3,29.91,29.91,0,0,0,.78,3.1,17.73,17.73,0,0,0,1.19,2.88,6.27,6.27,0,0,0,1.45,1.91,1.13,1.13,0,0,0,1.52,0,5.68,5.68,0,0,0,1.14-1.19,10.56,10.56,0,0,0,1-1.73,14.31,14.31,0,0,0,.81-2.19,16.73,16.73,0,0,0,.48-2.62c.11-1,.17-2.11.2-3.3s0-2.36,0-3.5-.08-2.19-.14-3.14-.11-1.7-.15-2.22a2.57,2.57,0,0,1,.18-1.3c.15-.22.32-.28.52-.18a1.56,1.56,0,0,1,.59.69A3.71,3.71,0,0,1,1003.71,120.62Z"/><path class="cls-8" d="M1001.48,119a8.44,8.44,0,0,1-1-2.61,6.3,6.3,0,0,1,0-2.2,5.58,5.58,0,0,1,.61-1.82A8,8,0,0,1,1002,111a7.05,7.05,0,0,1,.94-1c.3-.25.51-.43.61-.53a1.06,1.06,0,0,1,.83-.28,1.52,1.52,0,0,1,.78.33,1.35,1.35,0,0,1,.44.68.81.81,0,0,1-.17.77,1.41,1.41,0,0,0-.17.62,7.07,7.07,0,0,0-.05,1.18,8,8,0,0,0,.18,1.47,7,7,0,0,0,.48,1.54,22,22,0,0,0,1.66,3.11c.71,1.14,1.43,2.35,2.17,3.6s1.43,2.54,2.08,3.85a17,17,0,0,1,1.39,3.79,8.17,8.17,0,0,1,.08,3.47,5,5,0,0,1-1.84,2.85,3.7,3.7,0,0,1-1.76.86,2.83,2.83,0,0,1-1.64-.18,3.75,3.75,0,0,1-1.37-1,4.78,4.78,0,0,1-.91-1.62c-1.4-.57-.13-3.37.19-4.06a25.46,25.46,0,0,1,1.33-2.43l1.66-2.71c.58-.93,2.23.52,1.68,1.59s-1.07,2.06-1.56,3-.87,1.68-1.15,2.31a5.2,5.2,0,0,0-.41,1.3,2.17,2.17,0,0,0,0,.93.41.41,0,0,0,.41.33,1.27,1.27,0,0,0,.77-.48,1.81,1.81,0,0,0,.23-1.74,14.89,14.89,0,0,0-1-2.82c-.48-1.06-1.07-2.17-1.74-3.34s-1.34-2.25-2-3.27-1.2-1.9-1.71-2.64S1001.6,119.27,1001.48,119Z"/><path class="cls-8" d="M963.69,124.92s-4.65,4.71-.82,11.51c5.84,10,2.76,12.89,2.35,13.73-3.27,5.67-7.58,1.49-7.58,1.49a7.46,7.46,0,0,0,5.4,7.91c5.35,1.26,10-5.31,10-5.31s4.17-5.08-.9-12.47c-.94-1.35-3.48-3-5-5.64-3.16-6.6-1.67-10.2-1.67-10.2a.84.84,0,0,0-.63-1.16A1.57,1.57,0,0,0,963.69,124.92Z"/><path class="cls-8" d="M961.58,123.45l.27-.22a10.25,10.25,0,1,1,11.21,17.08c-.12.07-.25.13-.38.19h0l-.1,0a.41.41,0,0,0-.11.07.6.6,0,0,0-.19.75.58.58,0,0,0,.45.34h.34A13.14,13.14,0,1,0,961,122.4h0l-.24.47a.66.66,0,0,0,.06.27A.61.61,0,0,0,961.58,123.45Z"/><path class="cls-8" d="M1006.85,100.56l.27-.21a10.26,10.26,0,0,1,15.35,3.18,10.25,10.25,0,0,1-4.14,13.89l-.38.2h0l-.11,0-.1.07a.6.6,0,0,0,.26,1.09h.34a13.13,13.13,0,1,0-12.09-19.3h0l-.24.47a.66.66,0,0,0,.06.27A.6.6,0,0,0,1006.85,100.56Z"/><path class="cls-8" d="M1065.34,101.67h0a8.75,8.75,0,0,0,1.72-.7l.3-.18h0a8.76,8.76,0,0,0,4.15-9v0h0l-.39-1.48a7.89,7.89,0,0,1,.39,1.48l-.39-1.48a11.74,11.74,0,0,1-.21-1.94,5.86,5.86,0,0,1,0-.59,12.35,12.35,0,0,1,1.49-5.74c.54-1,6.83-.8,5.87.32a12.42,12.42,0,0,0-2.68,10.8h0s0,0,0,0h0l.48,1.59v0h0a10.94,10.94,0,0,1,.17,3.32,10.56,10.56,0,1,1-15.52-10.42,10.19,10.19,0,0,1,3.22-1.11l.12,0a1.07,1.07,0,0,1,.47,0,1.09,1.09,0,0,1,.6.52,1.12,1.12,0,0,1-.11,1.23h0a6.18,6.18,0,0,0-.74.35l-.08,0a7.84,7.84,0,0,0-3.47,9.76,4.25,4.25,0,0,0,.39,1,4.13,4.13,0,0,0,4.22,2.12h0"/><path class="cls-8" d="M1030.76,99.92c-.25-.28-.26-.46,0-.56a2.09,2.09,0,0,1,1-.07,7.52,7.52,0,0,1,1.62.36,12.58,12.58,0,0,1,1.87.75,9.37,9.37,0,0,1,1.69,1.08,4.29,4.29,0,0,1,1.14,1.32,5.08,5.08,0,0,1,.32,1c.12.53.26,1.18.42,1.94s.31,1.6.49,2.51.37,1.83.56,2.74.39,1.79.59,2.61.39,1.54.57,2.14.3,1,.39,1.23.16.4.23.42.15-.08.23-.27l.37-.83a14.67,14.67,0,0,0,.94-3,32,32,0,0,0,.51-3.44c.1-1.17.16-2.33.18-3.46s0-2.17,0-3.1-.07-1.71-.12-2.36-.08-1-.1-1.21a2.75,2.75,0,0,1,.21-1.43c.15-.24.34-.31.55-.21a1.58,1.58,0,0,1,.62.75,5.21,5.21,0,0,1,.43,1.51c.11.81.19,1.83.27,3.06s.09,2.54,0,4-.13,2.85-.3,4.32a26.8,26.8,0,0,1-.79,4.15,13.61,13.61,0,0,1-1.41,3.42,5.45,5.45,0,0,1-2.17,2.15,2.62,2.62,0,0,1-.83.26,2.65,2.65,0,0,1-1.13-.1,3.88,3.88,0,0,1-1.3-.74,5.34,5.34,0,0,1-1.26-1.66,7.87,7.87,0,0,1-.35-1.45c-.15-.82-.33-1.82-.55-3s-.47-2.49-.77-3.89-.66-2.8-1.06-4.17a38.38,38.38,0,0,0-1.36-3.85A10.67,10.67,0,0,0,1030.76,99.92Z"/><path class="cls-8" d="M1055.29,110.82a2.19,2.19,0,0,0,1.15-1.12,8.53,8.53,0,0,0,.74-2.13,19.69,19.69,0,0,0,.4-2.79c.09-1,.13-2,.15-3.09s0-2.07,0-3.09-.08-1.93-.13-2.74-.1-1.49-.14-2-.07-.87-.08-1a2.56,2.56,0,0,1,.19-1.34c.15-.23.32-.29.52-.2a1.54,1.54,0,0,1,.6.7,4.23,4.23,0,0,1,.39,1.41,31.71,31.71,0,0,1,.45,3.17c.12,1.23.19,2.52.22,3.88s0,2.73-.09,4.12a28,28,0,0,1-.5,3.89,13.71,13.71,0,0,1-1,3.15,4.36,4.36,0,0,1-1.61,1.92,4.47,4.47,0,0,1-1.32.48,3.92,3.92,0,0,1-1.79-.07,5.63,5.63,0,0,1-2.05-1.09,9.37,9.37,0,0,1-2.11-2.56,8.41,8.41,0,0,1-.63-1.47c-.22-.64-.42-1.34-.62-2.11s-.37-1.56-.53-2.36-.3-1.52-.42-2.17-.21-1.18-.27-1.6a2.87,2.87,0,0,1,0-.65l-.44.21a3.21,3.21,0,0,1-1.22.26,4,4,0,0,1-1.71-.37,4.72,4.72,0,0,1-1.85-1.66,12.6,12.6,0,0,1-.74-1.53c-2.14-6.37,4.41-6.42,4.24-4.73,0,1.63.06,1.83,0,2.84l1.68-1.86c.44-.49.88-1,1.33-1.45a11,11,0,0,1,1.07-1,.91.91,0,0,1,1-.17,2.53,2.53,0,0,1,.93.75,4.1,4.1,0,0,1,.65,1.18,2.26,2.26,0,0,1,.17,1.11,23.74,23.74,0,0,0-.2,3c0,1.18,0,2.41.1,3.69s.23,2.55.43,3.82a28.6,28.6,0,0,0,.73,3.42,9.2,9.2,0,0,0,1,2.46A1.64,1.64,0,0,0,1055.29,110.82Z"/><path class="cls-8" d="M1028.92,90.84c-2.77,2.21,3.55,8.12,6.48,4.13,2.39-3.41-6.44-9.8-6.64-3.9"/><path class="cls-8" d="M1010.33,101.51a1.56,1.56,0,0,0-1.15.14s-4.66,4.72-.82,11.51c5.83,10,2.75,12.89,2.34,13.74-.17.29-.34.56-.52.81a6.77,6.77,0,0,1-.94,1.07,2.47,2.47,0,0,1,1.61,1.18c.71,1.32-.21,6.52.77,6.26,3.94-1,6.93-5.24,6.93-5.24s4.17-5.07-.91-12.47c-.93-1.35-3.47-3-5-5.64-3.16-6.6-1.66-10.2-1.66-10.2A.84.84,0,0,0,1010.33,101.51Z"/><path class="cls-8" d="M1100.27,133.07l0,.1v0a.9.9,0,0,1-.39,1,1,1,0,0,1-1.27-.47l0,0,0-.05s0,0,0,0h0l.08.14,0,0,0-.09h0a.41.41,0,0,1,0-.09c-3.44-6.35-2.16-13.69,2.84-16.4a8.38,8.38,0,0,1,2.38-.85,26.1,26.1,0,0,1,5.21.5,8.47,8.47,0,0,0,5.47-.85c3.12-1.69,4.74-5.22,4.62-9.16a5.83,5.83,0,0,0,0-.59.59.59,0,0,1,.27-.33.68.68,0,0,1,.82.23h0c.07.1.13.21.19.31h0l.27.46c3.21,5.94,2,12.8-2.66,15.34a7.57,7.57,0,0,1-1.74.68,8.8,8.8,0,0,1-4.66-.12h0l-1.56-.58h0a7.66,7.66,0,0,0-5.82.53c-3.35,1.81-4.76,6-3.82,10.4l0,.1v0"/><path class="cls-8" d="M1035.39,140.08s-4.65,4.72-.82,11.51c5.84,10,2.75,12.9,2.35,13.74-3.27,5.66-7.58,1.49-7.58,1.49a7.45,7.45,0,0,0,5.4,7.9c5.35,1.27,10-5.31,10-5.31s4.17-5.07-.9-12.47c-.94-1.34-3.48-3-5-5.64-3.16-6.6-1.67-10.19-1.67-10.19a.84.84,0,0,0-.63-1.17A1.62,1.62,0,0,0,1035.39,140.08Z"/><path class="cls-8" d="M1005.55,183.67h0a9.17,9.17,0,0,0,1.78-.51l.32-.14h0a8.76,8.76,0,0,0,5.15-8.46v0s0,0,0,0l-.21-1.51a8.71,8.71,0,0,1,.21,1.51l-.21-1.51a12.82,12.82,0,0,1,0-2c0-.19,0-.39.06-.58a12.55,12.55,0,0,1,2.14-5.53c.66-.94,6.88,0,5.8,1a12.43,12.43,0,0,0-3.9,10.42h0v0h0L1017,178h0v0a10.55,10.55,0,1,1-14.44-8.81,10.35,10.35,0,0,1,3.32-.74h.13a1.25,1.25,0,0,1,.46.12,1.09,1.09,0,0,1,.28,1.78h0a7.92,7.92,0,0,0-.78.26l-.08,0a7.82,7.82,0,0,0-4.56,9.29,3.72,3.72,0,0,0,.27,1.08,4.14,4.14,0,0,0,3.94,2.6h0"/><path class="cls-8" d="M1025.09,165.71h0a8.94,8.94,0,0,0-1.82.38l-.33.12h0a8.74,8.74,0,0,0-5.71,8.09v0h0l.11,1.52a8.71,8.71,0,0,1-.11-1.52l.11,1.52a11.6,11.6,0,0,1-.14,2c0,.19-.06.38-.1.57a12.42,12.42,0,0,1-2.51,5.37c-.72.9-6.86-.45-5.71-1.38a12.43,12.43,0,0,0,4.59-10.13h0v0h0l-.18-1.65v0h0a10.7,10.7,0,0,1,.45-3.3,10.56,10.56,0,1,1,13.36,13.07,10.42,10.42,0,0,1-3.37.51h-.12a1.09,1.09,0,0,1-.46-.15,1.07,1.07,0,0,1-.49-.61,1.08,1.08,0,0,1,.33-1.18h0c.26-.05.52-.12.79-.2l.08,0a7.82,7.82,0,0,0,5.19-9,4.11,4.11,0,0,0-4-3.95h0"/><path class="cls-8" d="M994.5,167.1s.08-1.17.16-1.58a9.71,9.71,0,0,1,12.69-7.43h0l1.48.65h0a10.57,10.57,0,0,0,4.85.49,10.22,10.22,0,0,0,2-.46,10.56,10.56,0,0,0,6.66-13.38c0-.15-.1-.29-.15-.44h0a2.49,2.49,0,0,0-.11-.29h0a.72.72,0,0,0-.81-.27.82.82,0,0,0-.36.27c0,.18-.07.35-.11.53a11,11,0,0,1-13.09,8,30,30,0,0,0-5.33-.88,11.33,11.33,0,0,0-9.82,14.86l0,.09h0l0,.08,0,.05,0-.14h0a0,0,0,0,1,0,0s0,0,0,0l0,.05c.2.45,1.87-.42,1.87-.45"/><path class="cls-8" d="M1056.86,138.43c-.24-.27-.26-.46,0-.56a2.11,2.11,0,0,1,1-.07,7.73,7.73,0,0,1,1.63.36,12.06,12.06,0,0,1,1.86.75A9,9,0,0,1,1063,140a4.33,4.33,0,0,1,1.14,1.32,5.63,5.63,0,0,1,.31,1c.13.53.27,1.18.42,1.94l.5,2.51c.17.91.36,1.83.55,2.74s.39,1.79.59,2.62.39,1.53.58,2.13.29,1,.38,1.23.17.4.24.42.14-.08.23-.27.21-.47.37-.83a15.3,15.3,0,0,0,.94-3,32,32,0,0,0,.5-3.44c.11-1.17.17-2.33.18-3.46s0-2.17,0-3.1-.07-1.71-.12-2.35-.08-1.05-.09-1.22a2.78,2.78,0,0,1,.2-1.43c.16-.24.34-.31.56-.21a1.58,1.58,0,0,1,.62.75,5.54,5.54,0,0,1,.43,1.51c.1.81.19,1.83.26,3.06s.09,2.54.06,3.95-.14,2.85-.31,4.32a28.06,28.06,0,0,1-.78,4.15,14,14,0,0,1-1.42,3.42,5.46,5.46,0,0,1-2.16,2.16,2.92,2.92,0,0,1-.83.25,2.7,2.7,0,0,1-1.14-.1,3.85,3.85,0,0,1-1.29-.74,5.19,5.19,0,0,1-1.26-1.66,7.87,7.87,0,0,1-.35-1.45c-.16-.82-.34-1.82-.55-3s-.47-2.49-.77-3.89-.66-2.79-1.07-4.17a38.17,38.17,0,0,0-1.36-3.84A10.58,10.58,0,0,0,1056.86,138.43Z"/><path class="cls-8" d="M1055,129.36c-2.76,2.2,3.55,8.12,6.48,4.13,2.4-3.42-6.44-9.81-6.64-3.91"/><path class="cls-8" d="M1032.94,139.06l.27-.22a10.25,10.25,0,1,1,11.21,17.08l-.38.2h0l-.11,0-.1.06a.6.6,0,0,0-.19.75.62.62,0,0,0,.45.35h.34a13.13,13.13,0,1,0-12.08-19.3h0l-.24.48a.58.58,0,0,0,.06.26A.61.61,0,0,0,1032.94,139.06Z"/><path class="cls-8" d="M1075.56,142.91h0"/><path class="cls-8" d="M1091.11,140.36h0a9.05,9.05,0,0,0,1.72-.71l.3-.17h0a8.77,8.77,0,0,0,4.15-9v0h0l-.39-1.48a8.73,8.73,0,0,1,.39,1.48l-.39-1.48a12.81,12.81,0,0,1-.22-1.94c0-.2,0-.39,0-.59a12.35,12.35,0,0,1,1.49-5.73c.54-1,6.83-.8,5.87.32a12.41,12.41,0,0,0-2.68,10.8h0v0h0l.48,1.59h0v0a10.55,10.55,0,0,1-19.61,7.2,10.36,10.36,0,0,1-1.26-4.52,10.55,10.55,0,0,1,8.74-10.9l.12,0a1.11,1.11,0,0,1,1.07.57,1.1,1.1,0,0,1-.12,1.23h0a7.12,7.12,0,0,0-.74.35l-.08,0a7.83,7.83,0,0,0-3.47,9.75,4,4,0,0,0,.39,1,4.14,4.14,0,0,0,4.22,2.13h0"/><path class="cls-8" d="M1081.4,149.33a2.22,2.22,0,0,0,1.15-1.12,9,9,0,0,0,.74-2.13,21.25,21.25,0,0,0,.4-2.79c.08-1,.13-2,.14-3.09s0-2.07,0-3.09-.07-1.93-.12-2.74-.1-1.49-.14-2-.07-.88-.08-1a2.58,2.58,0,0,1,.19-1.34.39.39,0,0,1,.52-.2,1.48,1.48,0,0,1,.59.7,3.86,3.86,0,0,1,.39,1.42,28.47,28.47,0,0,1,.45,3.16c.12,1.23.2,2.52.22,3.88s0,2.73-.09,4.12a27.89,27.89,0,0,1-.49,3.89,13.87,13.87,0,0,1-1,3.15,4.42,4.42,0,0,1-1.61,1.92,4.58,4.58,0,0,1-1.32.48,3.84,3.84,0,0,1-1.8-.07,5.63,5.63,0,0,1-2-1.09,9.55,9.55,0,0,1-2.11-2.56,8.51,8.51,0,0,1-.62-1.47c-.22-.64-.43-1.34-.62-2.11s-.37-1.56-.54-2.36-.3-1.52-.42-2.16-.2-1.19-.26-1.61a2.62,2.62,0,0,1-.06-.65l-.43.21a3.13,3.13,0,0,1-1.23.26,4,4,0,0,1-1.7-.36,4.63,4.63,0,0,1-1.85-1.67,13.11,13.11,0,0,1-.75-1.53c-2.13-6.37,4.42-6.42,4.24-4.72.05,1.63.06,1.82.05,2.83l1.68-1.86c.45-.48.89-1,1.34-1.44a9.41,9.41,0,0,1,1.06-1,.93.93,0,0,1,1-.17,2.62,2.62,0,0,1,.93.75,4.35,4.35,0,0,1,.65,1.18A2.26,2.26,0,0,1,1078,132a25.44,25.44,0,0,0-.2,3c0,1.18,0,2.41.1,3.69s.24,2.55.43,3.82a30.71,30.71,0,0,0,.73,3.42,9.53,9.53,0,0,0,1,2.46A1.63,1.63,0,0,0,1081.4,149.33Z"/><path class="cls-8" d="M995.87,150.45c-8.13,3.77-6,15.49-4.47,23.25.48,2.27,1.32,4.36,1.79,6.64.57,2,2.89,6.54,2.09,8.55-2.14,5.67-8.64-6.58-10.11-8.57-1.3-2.09-2.51-4.9-4.35-6.71-3.31-2.89-4.2-.14-4,3.41a59.52,59.52,0,0,0,1.1,7.25,27.2,27.2,0,0,1,4.93,3.35,61.71,61.71,0,0,1-1.18-8.27c2,3.54,3.27,7.72,6,10.89,1.39,1.81,4.61,5,7,5.59,4.76,1.23,3.63-2.77,3.23-5.78-1.27-9.2-5.59-23-1.93-32a15.36,15.36,0,0,1,4.47-5.19C1002.35,151.1,996.72,150.06,995.87,150.45Z"/><path class="cls-8" d="M982.74,187a45.07,45.07,0,0,1-5.1-9.71,9.86,9.86,0,0,0-.21,2.65c.25,5,1.66,10.42,2.55,15.29a29,29,0,0,0,3.14,8.82c.3.47.54.88.77,1.24,1.35,2.36,6.06-.11,4.8-3a35.06,35.06,0,0,1-3.93-8.06A38.59,38.59,0,0,1,982.74,187Z"/><path class="cls-8" d="M769.67,145.58l0,.11v0a.91.91,0,0,1-.8.71,1,1,0,0,1-.91-1,.07.07,0,0,1,0,0v-.1h0v.17a.07.07,0,0,1,0,0v-.1h0v-.1c-.17-7.21,4.3-13.16,10-13.3a8.45,8.45,0,0,1,2.51.33,26.26,26.26,0,0,1,4.41,2.81,8.4,8.4,0,0,0,5.26,1.74c3.54-.08,6.6-2.49,8.29-6l.24-.54A.56.56,0,0,1,799,130a.7.7,0,0,1,.64.57h0c0,.12,0,.24,0,.36h0c0,.17,0,.36,0,.53.16,6.75-4,12.32-9.35,12.44a7.68,7.68,0,0,1-1.86-.18,9,9,0,0,1-4.1-2.23h0l-1.12-1.23h0a7.74,7.74,0,0,0-5.43-2.18c-3.81.09-7,3.22-8.13,7.52l0,.11v0"/><path class="cls-8" d="M678.32,157.4q.27-.39.54-.24a1.23,1.23,0,0,1,.48.65,4.63,4.63,0,0,1,.27,1.2,4.33,4.33,0,0,1-.09,1.43,8.2,8.2,0,0,1-.82,2.28,5.67,5.67,0,0,1-1.34,1.65,4.07,4.07,0,0,1-3.72.85,5.94,5.94,0,0,1-2.81-1.69,17.59,17.59,0,0,1-2.52-3.27,40.88,40.88,0,0,1-2.24-4.24q-1.07-2.31-2-4.61T662.22,147c-.59-1.4-1.16-2.59-1.7-3.58a8.15,8.15,0,0,0-1.62-2.16,1.15,1.15,0,0,0-1.55-.13c-.11.1-.16.14-.16.13a.19.19,0,0,1,0-.11l.12-.2a.21.21,0,0,0,0-.19s.1-.1.36-.17a8.37,8.37,0,0,1,1-.19c.4-.05.84-.09,1.32-.13s.92-.06,1.34-.07a2.28,2.28,0,0,1,1.49.82,15.6,15.6,0,0,1,1.77,2.21c.62.92,1.26,2,1.93,3.13s1.34,2.35,2,3.56,1.34,2.41,2,3.57,1.32,2.21,1.94,3.12a15.05,15.05,0,0,0,1.76,2.21,2.25,2.25,0,0,0,1.49.82,1.43,1.43,0,0,0,.73-.24,4.5,4.5,0,0,0,.75-.57,6.11,6.11,0,0,0,.64-.72A2.9,2.9,0,0,0,678.32,157.4Z"/><path class="cls-8" d="M694.7,136.7c-.31,1-.75,2-1.3,3.3s-1.19,2.53-1.92,3.85-1.53,2.63-2.39,3.91a26.11,26.11,0,0,1-2.67,3.4,13.89,13.89,0,0,1-2.76,2.36,4.49,4.49,0,0,1-2.66.81,6.92,6.92,0,0,1-3.19-.87,6.69,6.69,0,0,1-2.07-1.91,8,8,0,0,1-1.13-2.47,12.59,12.59,0,0,1-.43-2.55,15.5,15.5,0,0,1,.52-5.42,16.12,16.12,0,0,1,2.07-4.58,12.07,12.07,0,0,1,3.06-3.21,6.57,6.57,0,0,1,3.5-1.28,4.16,4.16,0,0,1,2.24.37,3.06,3.06,0,0,1,1.19,1.11,3.09,3.09,0,0,1,.43,1.41,9.73,9.73,0,0,1,0,1.29,7.89,7.89,0,0,1-.46,2.21,9.86,9.86,0,0,1-1,1.89,11.77,11.77,0,0,1-1.28,1.58,13.52,13.52,0,0,1-1.42,1.26,16,16,0,0,1-3.78,2.18,8.63,8.63,0,0,1-1.22-1.53,2.79,2.79,0,0,1-.23-.51.47.47,0,0,1,0-.39.49.49,0,0,1,.36-.2,2.29,2.29,0,0,1,.81.07,2.84,2.84,0,0,0,2.11-.44,9.41,9.41,0,0,0,2.08-1.76,11.85,11.85,0,0,0,1.65-2.33,6.37,6.37,0,0,0,.79-2.19,1.86,1.86,0,0,0,0-.58,1.59,1.59,0,0,0-.13-.52.74.74,0,0,0-.27-.35.5.5,0,0,0-.42-.05,2.32,2.32,0,0,0-1,.79,11.23,11.23,0,0,0-1.15,1.71,24,24,0,0,0-1.13,2.41,26.13,26.13,0,0,0-1,2.87,28.68,28.68,0,0,0-.71,3.11,17.64,17.64,0,0,0-.26,3.11,6.29,6.29,0,0,0,.43,2.36,1.13,1.13,0,0,0,1.35.69,5.59,5.59,0,0,0,1.56-.54A10.17,10.17,0,0,0,684.7,150a12.36,12.36,0,0,0,1.71-1.58,16.53,16.53,0,0,0,1.63-2.11c.55-.85,1.11-1.8,1.67-2.85s1.09-2.09,1.59-3.11.93-2,1.31-2.86.68-1.56.87-2.05a2.52,2.52,0,0,1,.76-1.07.36.36,0,0,1,.54.07,1.51,1.51,0,0,1,.21.88A4,4,0,0,1,694.7,136.7Z"/><path class="cls-8" d="M693.43,134.28a8.47,8.47,0,0,1,.27-2.79,6.7,6.7,0,0,1,1-2,5.77,5.77,0,0,1,1.38-1.33,8.12,8.12,0,0,1,1.47-.82,8.92,8.92,0,0,1,1.27-.42l.79-.18a1,1,0,0,1,.86.12,1.47,1.47,0,0,1,.54.65,1.33,1.33,0,0,1,.09.81.84.84,0,0,1-.51.61,1.43,1.43,0,0,0-.43.47,6.3,6.3,0,0,0-.58,1,9,9,0,0,0-.52,1.39,8.28,8.28,0,0,0-.27,1.58,23.76,23.76,0,0,0,.06,3.53c.12,1.34.21,2.74.3,4.2s.11,2.91.1,4.37a17.27,17.27,0,0,1-.49,4,8.11,8.11,0,0,1-1.51,3.12,5,5,0,0,1-2.94,1.7,3.59,3.59,0,0,1-2,0,3.07,3.07,0,0,1-1.38-.91,3.66,3.66,0,0,1-.75-1.53,4.79,4.79,0,0,1-.08-1.85c-1-1.15,1.42-3.06,2-3.53a25.15,25.15,0,0,1,2.29-1.55l2.71-1.66c.94-.57,1.75,1.48.78,2.18s-1.89,1.35-2.74,1.94-1.54,1.1-2.08,1.52a5.49,5.49,0,0,0-1,1,2,2,0,0,0-.41.83.4.4,0,0,0,.21.48,1.32,1.32,0,0,0,.91-.08q.69-.23,1-1.44a14.76,14.76,0,0,0,.38-3c0-1.16,0-2.42,0-3.76s-.16-2.62-.26-3.81-.21-2.24-.32-3.13S693.43,134.54,693.43,134.28Z"/><path class="cls-8" d="M657.11,122.3s-6.29,2.08-6,9.87c.64,11.56-3.42,12.74-4.17,13.3-5.48,3.56-7.42-2.12-7.42-2.12a7.43,7.43,0,0,0,1.21,9.49c4.18,3.57,11.33-.16,11.33-.16s6-2.62,4.88-11.51c-.22-1.63-1.74-4.23-1.9-7.31.19-7.32,3.16-9.84,3.16-9.84a.84.84,0,0,0,0-1.32A1.62,1.62,0,0,0,657.11,122.3Z"/><path class="cls-8" d="M655.9,120l.34-.07a10.78,10.78,0,0,1,1.72-.19,10.25,10.25,0,0,1,.49,20.5H658l-.12,0h-.12a.6.6,0,0,0-.51.58.61.61,0,0,0,.25.52h0l.19.09.11.05h0a13.14,13.14,0,1,0-2-22.68h0l-.43.31a.62.62,0,0,0,.49.9Z"/><path class="cls-8" d="M706.63,120.28l.33-.08a10.9,10.9,0,0,1,1.73-.18,10.25,10.25,0,1,1,.48,20.49,3.23,3.23,0,0,1-.44,0h-.24a.61.61,0,0,0-.26,1.09h0l.19.1.11.05h0a13,13,0,0,0,5.84,1.22,13.13,13.13,0,1,0-7.82-23.91h0l-.43.31a.59.59,0,0,0-.07.26A.62.62,0,0,0,706.63,120.28Z"/><path class="cls-8" d="M758.19,147.9h0a8.11,8.11,0,0,0,1.85.15h.36a8.77,8.77,0,0,0,7.79-6.12v0h0l.32-1.49a8.23,8.23,0,0,1-.32,1.49l.32-1.49a12.57,12.57,0,0,1,.7-1.83,5.2,5.2,0,0,1,.26-.53,12.49,12.49,0,0,1,3.93-4.43c1-.65,6.45,2.4,5.09,3a12.44,12.44,0,0,0-7.31,8.4h0v0h0l-.3,1.63v0h0a10.7,10.7,0,0,1-1.37,3,10.55,10.55,0,0,1-19.37-5.55,10.38,10.38,0,0,1,.93-4.6,10.57,10.57,0,0,1,12.75-5.73l.11,0a1.09,1.09,0,0,1,.4.27,1.12,1.12,0,0,1,.3.73,1.1,1.1,0,0,1-.66,1h0c-.27,0-.54,0-.82,0h-.09a7.82,7.82,0,0,0-7.53,7.1,4.16,4.16,0,0,0,2.66,4.92h0"/><path class="cls-8" d="M728.2,130.58q-.13-.53.21-.51a2.09,2.09,0,0,1,.93.39,8.77,8.77,0,0,1,1.28,1.06,12.25,12.25,0,0,1,1.31,1.52,8.33,8.33,0,0,1,1,1.74,4.13,4.13,0,0,1,.41,1.69,5.19,5.19,0,0,1-.18,1.06c-.13.53-.3,1.16-.51,1.91s-.45,1.57-.71,2.46l-.75,2.7c-.24.9-.46,1.77-.66,2.59s-.36,1.55-.46,2.17-.18,1-.22,1.27,0,.43,0,.47.16,0,.33-.13l.7-.57a15.09,15.09,0,0,0,2.22-2.28,30.7,30.7,0,0,0,2-2.83q.95-1.5,1.74-3c.52-1,1-1.93,1.39-2.77s.72-1.55,1-2.15l.46-1.12a2.88,2.88,0,0,1,.83-1.18c.26-.15.45-.13.6.06a1.6,1.6,0,0,1,.21,1,5.34,5.34,0,0,1-.3,1.54c-.28.77-.67,1.72-1.16,2.84s-1.08,2.31-1.75,3.55-1.42,2.47-2.24,3.71a28.57,28.57,0,0,1-2.59,3.34,14.64,14.64,0,0,1-2.82,2.4,5.54,5.54,0,0,1-2.91.93,2.72,2.72,0,0,1-.85-.16,2.67,2.67,0,0,1-1-.6,3.87,3.87,0,0,1-.82-1.24,5.47,5.47,0,0,1-.36-2.06,7.56,7.56,0,0,1,.35-1.46c.23-.79.53-1.76.88-2.92s.71-2.43,1.09-3.82.68-2.78,1-4.19a39,39,0,0,0,.54-4.05A10.75,10.75,0,0,0,728.2,130.58Z"/><path class="cls-8" d="M745.08,151.47a2.2,2.2,0,0,0,1.54-.48,8.33,8.33,0,0,0,1.62-1.56,20.43,20.43,0,0,0,1.63-2.3c.54-.87,1-1.76,1.54-2.68s.94-1.85,1.38-2.77.81-1.75,1.13-2.49.59-1.37.81-1.88.33-.81.37-.92a2.77,2.77,0,0,1,.78-1.1c.24-.13.42-.12.56.06a1.58,1.58,0,0,1,.21.89,4.21,4.21,0,0,1-.3,1.44,28.17,28.17,0,0,1-1,3c-.45,1.15-1,2.33-1.57,3.55s-1.25,2.44-2,3.64a28,28,0,0,1-2.21,3.23,14,14,0,0,1-2.34,2.34,4.41,4.41,0,0,1-2.31,1,4.65,4.65,0,0,1-1.39-.18,3.83,3.83,0,0,1-1.57-.88,5.66,5.66,0,0,1-1.33-1.9,9.27,9.27,0,0,1-.71-3.24,8.3,8.3,0,0,1,.11-1.59c.1-.67.23-1.39.41-2.17s.38-1.55.6-2.33.42-1.5.61-2.13.36-1.14.5-1.54a2.85,2.85,0,0,1,.24-.61h-.48a3.3,3.3,0,0,1-1.21-.33,4,4,0,0,1-1.35-1.1,4.66,4.66,0,0,1-.89-2.32,13.46,13.46,0,0,1,0-1.7c1-6.65,6.86-3.71,5.93-2.28-.7,1.47-.78,1.65-1.24,2.54l2.34-.88,1.84-.68a9.09,9.09,0,0,1,1.42-.43.93.93,0,0,1,1,.31,2.54,2.54,0,0,1,.49,1.09,4.34,4.34,0,0,1,0,1.35,2.36,2.36,0,0,1-.36,1.07,23.81,23.81,0,0,0-1.54,2.56c-.56,1-1.09,2.16-1.59,3.33s-1,2.38-1.36,3.6a29.84,29.84,0,0,0-.91,3.38,9.17,9.17,0,0,0-.21,2.65A1.65,1.65,0,0,0,745.08,151.47Z"/><path class="cls-8" d="M730.7,121.67c-3.47.7-.54,8.85,3.89,6.63,3.68-2-1.27-11.67-4.14-6.5"/><path class="cls-8" d="M709.29,122.7a1.62,1.62,0,0,0-1.09-.4s-6.29,2.08-6,9.87c.64,11.56-3.42,12.74-4.17,13.3-.29.19-.57.35-.83.49a6.85,6.85,0,0,1-1.33.52,2.42,2.42,0,0,1,.89,1.79c0,1.49-3.15,5.7-2.16,5.92,4,.87,8.56-1.51,8.56-1.51s6-2.62,4.87-11.51c-.22-1.63-1.74-4.23-1.9-7.31.19-7.32,3.16-9.84,3.16-9.84A.84.84,0,0,0,709.29,122.7Z"/><path class="cls-9" d="M775,191.76a.36.36,0,0,0,0,.1v0a.91.91,0,0,1-.81.71,1,1,0,0,1-.91-1v-.06s0,0,0,0,0,0,0,0,0,0,0,0,0,0,0,0h0v.11a.27.27,0,0,1,0-.09h0s0,0,0,0h0a.38.38,0,0,1,0-.1c-.17-7.22,4.31-13.17,10-13.3a8.33,8.33,0,0,1,2.5.32,26.38,26.38,0,0,1,4.42,2.82,8.51,8.51,0,0,0,5.26,1.74c3.53-.09,6.59-2.49,8.28-6.06l.24-.53a.59.59,0,0,1,.38-.18.7.7,0,0,1,.64.58h0c0,.13,0,.25,0,.37h0l0,.54c.15,6.75-4,12.31-9.36,12.44a7.73,7.73,0,0,1-1.86-.19,8.75,8.75,0,0,1-4.09-2.23h0l-1.12-1.23h0a7.63,7.63,0,0,0-5.42-2.18c-3.81.09-7,3.21-8.14,7.52a.36.36,0,0,0,0,.1v0"/><path class="cls-9" d="M714,168.46s-6.3,2.07-6,9.87c.64,11.56-3.43,12.73-4.17,13.29-5.49,3.56-7.42-2.12-7.42-2.12a7.44,7.44,0,0,0,1.2,9.49c4.19,3.57,11.34-.16,11.34-.16s6-2.62,4.87-11.51c-.22-1.63-1.73-4.23-1.89-7.31.19-7.31,3.16-9.83,3.16-9.83a.85.85,0,0,0,0-1.33A1.59,1.59,0,0,0,714,168.46Z"/><path class="cls-9" d="M667.62,193.66h0a9,9,0,0,0,1.82.36l.35,0h0a8.78,8.78,0,0,0,8.44-5.19v0h0l.49-1.45a8.52,8.52,0,0,1-.49,1.45l.49-1.45a12.87,12.87,0,0,1,.9-1.73c.1-.17.21-.34.32-.5a12.31,12.31,0,0,1,4.42-3.94c1-.55,6.13,3.12,4.71,3.52a12.41,12.41,0,0,0-8.22,7.5h0v0h0l-.47,1.59v0h0a10.31,10.31,0,0,1-1.7,2.86,10.56,10.56,0,1,1-7.14-17.28,10.36,10.36,0,0,1,3.3.86l.11,0a1.08,1.08,0,0,1,.36.31,1.12,1.12,0,0,1,.22.76,1.11,1.11,0,0,1-.78,1h0a7.5,7.5,0,0,0-.81-.11h-.1a7.83,7.83,0,0,0-8.29,6.2,4.25,4.25,0,0,0-.25,1.08,4.13,4.13,0,0,0,2.33,4.1h0"/><path class="cls-9" d="M693.19,186.58h0a8.93,8.93,0,0,0-1.79-.49l-.35-.05h0a8.76,8.76,0,0,0-8.77,4.6v0h0l-.59,1.41a7.35,7.35,0,0,1,.59-1.41l-.59,1.41a12.84,12.84,0,0,1-1,1.67c-.11.16-.23.32-.35.47a12.33,12.33,0,0,1-4.68,3.63c-1,.48-5.9-3.53-4.46-3.83a12.42,12.42,0,0,0,8.71-6.93h0s0,0,0,0h0l.59-1.56h0v0a10.56,10.56,0,1,1,7.84,15,10,10,0,0,1-3.23-1.08.39.39,0,0,1-.11-.06,1,1,0,0,1-.34-.33,1.1,1.1,0,0,1,.68-1.67h0a7.1,7.1,0,0,0,.8.17h.09a7.83,7.83,0,0,0,8.7-5.61,4.2,4.2,0,0,0,.32-1.06,4.13,4.13,0,0,0-2-4.26h0"/><path class="cls-9" d="M665.32,173.88s.61-1,.87-1.33a9.73,9.73,0,0,1,14.68-.84h0l1,1.25h0a10.53,10.53,0,0,0,4.09,2.65,11.48,11.48,0,0,0,2,.5,10.58,10.58,0,0,0,12-8.88l.06-.46h0l0-.31h0a.71.71,0,0,0-.6-.6.67.67,0,0,0-.44.07c-.11.15-.22.28-.34.42a11,11,0,0,1-15.31,1.19,29.47,29.47,0,0,0-4.34-3.21,11.74,11.74,0,0,0-2.66-.73,11.3,11.3,0,0,0-12.86,9.49.28.28,0,0,1,0,.09h0a.28.28,0,0,0,0,.09.06.06,0,0,0,0,0l0-.14h0v.09a.06.06,0,0,0,0,0c0,.5,1.86.49,1.87.46"/><path class="cls-9" d="M733.9,176.76q-.14-.52.21-.51a1.9,1.9,0,0,1,.93.38,8.27,8.27,0,0,1,1.28,1.06,13.91,13.91,0,0,1,1.31,1.52,9.14,9.14,0,0,1,1,1.74,4.53,4.53,0,0,1,.41,1.69,5.47,5.47,0,0,1-.19,1.06q-.2.8-.51,1.92c-.21.75-.45,1.57-.7,2.46s-.51,1.79-.76,2.69-.46,1.77-.66,2.6-.36,1.54-.46,2.16-.18,1-.22,1.27,0,.44,0,.48.17,0,.33-.14l.7-.56a14.62,14.62,0,0,0,2.22-2.28,30.86,30.86,0,0,0,2-2.84q.95-1.49,1.74-3c.53-1,1-1.92,1.39-2.76s.72-1.56,1-2.15.4-1,.47-1.13a2.7,2.7,0,0,1,.83-1.18.42.42,0,0,1,.59.06,1.66,1.66,0,0,1,.21,1,5.28,5.28,0,0,1-.3,1.53c-.28.78-.67,1.72-1.16,2.85s-1.08,2.31-1.75,3.54-1.42,2.48-2.24,3.71a28.57,28.57,0,0,1-2.59,3.34,13.7,13.7,0,0,1-2.82,2.4,5.54,5.54,0,0,1-2.9.93,3,3,0,0,1-.86-.15,2.54,2.54,0,0,1-1-.61,3.77,3.77,0,0,1-.83-1.24,5.44,5.44,0,0,1-.36-2.06,8.48,8.48,0,0,1,.35-1.45l.88-2.93c.35-1.15.72-2.42,1.09-3.81s.69-2.79.95-4.2a38.81,38.81,0,0,0,.54-4A10.42,10.42,0,0,0,733.9,176.76Z"/><path class="cls-9" d="M736.4,167.85c-3.47.7-.54,8.84,3.89,6.62,3.68-1.95-1.27-11.66-4.14-6.49"/><path class="cls-9" d="M712.32,166.43l.34-.07a10.78,10.78,0,0,1,1.72-.19,10.25,10.25,0,0,1,.49,20.5h-.45l-.11,0h-.12a.6.6,0,0,0-.51.58.58.58,0,0,0,.25.51h0l.19.09.11.05h0a13.14,13.14,0,1,0-2-22.68h0l-.43.31a.6.6,0,0,0-.07.27A.59.59,0,0,0,712.32,166.43Z"/><path class="cls-9" d="M763.51,194.07h0a9.31,9.31,0,0,0,1.85.15l.34,0h0a8.74,8.74,0,0,0,7.79-6.11v0h0l.33-1.5a9.55,9.55,0,0,1-.33,1.5l.33-1.5a11.86,11.86,0,0,1,.69-1.83l.26-.52a12.35,12.35,0,0,1,3.94-4.43c1-.65,6.45,2.4,5.08,3a12.41,12.41,0,0,0-7.3,8.39h0v0h0l-.29,1.64h0v0a10.26,10.26,0,0,1-1.37,3,10.55,10.55,0,0,1-19.37-5.55,10.42,10.42,0,0,1,.94-4.6A10.56,10.56,0,0,1,769.15,180l.12,0a1.16,1.16,0,0,1,.39.26,1.11,1.11,0,0,1-.36,1.77h0a7.42,7.42,0,0,0-.82,0h-.09a7.82,7.82,0,0,0-7.54,7.1,4.42,4.42,0,0,0-.12,1.1,4.13,4.13,0,0,0,2.78,3.81h0"/><path class="cls-9" d="M750.78,197.64a2.19,2.19,0,0,0,1.54-.48,8.55,8.55,0,0,0,1.62-1.55,21,21,0,0,0,1.63-2.3c.54-.87,1-1.77,1.54-2.69s.94-1.84,1.38-2.76.81-1.76,1.14-2.5.59-1.37.8-1.88.34-.81.37-.91a2.62,2.62,0,0,1,.78-1.1c.24-.14.42-.12.56.05a1.65,1.65,0,0,1,.21.9,4.21,4.21,0,0,1-.3,1.44,29.76,29.76,0,0,1-1,3c-.45,1.14-1,2.33-1.57,3.55s-1.25,2.43-2,3.63a28,28,0,0,1-2.21,3.23,12.93,12.93,0,0,1-2.34,2.34,4.33,4.33,0,0,1-2.31,1,4.64,4.64,0,0,1-1.39-.17,4,4,0,0,1-1.57-.88,5.71,5.71,0,0,1-1.33-1.91,9.27,9.27,0,0,1-.71-3.24,8.35,8.35,0,0,1,.11-1.59c.1-.67.24-1.39.41-2.16s.38-1.55.6-2.34.42-1.49.61-2.12.36-1.15.5-1.55a2.59,2.59,0,0,1,.24-.6,3.52,3.52,0,0,0-.48,0,2.94,2.94,0,0,1-1.21-.33,4,4,0,0,1-1.35-1.09,4.74,4.74,0,0,1-.89-2.33,13,13,0,0,1,0-1.7c1-6.64,6.85-3.7,5.92-2.28-.7,1.48-.78,1.66-1.24,2.55l2.34-.89,1.84-.68a12,12,0,0,1,1.42-.43.93.93,0,0,1,1,.32,2.48,2.48,0,0,1,.49,1.09,4.28,4.28,0,0,1,0,1.34,2.32,2.32,0,0,1-.36,1.07,24.85,24.85,0,0,0-1.54,2.56c-.55,1.05-1.09,2.16-1.59,3.34s-1,2.38-1.36,3.59a30.41,30.41,0,0,0-.91,3.38,9.61,9.61,0,0,0-.21,2.66A1.63,1.63,0,0,0,750.78,197.64Z"/><path class="cls-9" d="M674.13,159.69c-9-.35-12.35,11.08-14.57,18.65-.61,2.25-.81,4.49-1.43,6.73-.4,2-.4,7.14-2,8.57-4.49,4.08-4.69-9.79-5.1-12.24-.21-2.44,0-5.5-.82-8-1.63-4.08-3.67-2-5.1,1.22a61.71,61.71,0,0,0-2.32,7,26.83,26.83,0,0,1,2.87,5.22,61.61,61.61,0,0,1,2.72-7.89c.2,4.07-.62,8.36.4,12.43.41,2.25,1.84,6.53,3.68,8.16,3.67,3.27,4.48-.81,5.5-3.67,3.06-8.77,5.51-23,12.85-29.36,1.59-1.34,4.08-2.08,6.35-2.59C679.6,163.21,675.06,159.73,674.13,159.69Z"/><path class="cls-9" d="M645.8,186.23a44.77,44.77,0,0,1-.12-11,10.18,10.18,0,0,0-1.39,2.26c-2,4.55-3.26,10-4.69,14.78a29.07,29.07,0,0,0-1.23,9.28c.06.56.09,1,.13,1.46.12,2.71,5.44,2.66,5.62-.45a34.8,34.8,0,0,1,.17-9A38.62,38.62,0,0,1,645.8,186.23Z"/><path class="cls-8" d="M368.67,157.58l0,.11v0a.91.91,0,0,1-.8.71,1,1,0,0,1-.91-1,.07.07,0,0,1,0,0v-.1h0v.17a.07.07,0,0,1,0,0v-.1h0v-.1c-.17-7.21,4.3-13.16,10-13.3a8.45,8.45,0,0,1,2.51.33,26.26,26.26,0,0,1,4.41,2.81,8.4,8.4,0,0,0,5.26,1.74c3.54-.08,6.6-2.49,8.29-6l.24-.54A.56.56,0,0,1,398,142a.7.7,0,0,1,.64.57h0c0,.12,0,.24,0,.36h0c0,.17,0,.36,0,.53.16,6.75-4,12.32-9.35,12.44a7.68,7.68,0,0,1-1.86-.18,9,9,0,0,1-4.1-2.23h0l-1.12-1.23h0a7.74,7.74,0,0,0-5.43-2.18c-3.81.09-7,3.22-8.13,7.52l0,.11v0"/><path class="cls-8" d="M277.32,169.4q.27-.39.54-.24a1.23,1.23,0,0,1,.48.65,4.63,4.63,0,0,1,.27,1.2,4.33,4.33,0,0,1-.09,1.43,8.2,8.2,0,0,1-.82,2.28,5.67,5.67,0,0,1-1.34,1.65,4.07,4.07,0,0,1-3.72.85,5.94,5.94,0,0,1-2.81-1.69,17.59,17.59,0,0,1-2.52-3.27,40.88,40.88,0,0,1-2.24-4.24q-1.06-2.31-2-4.61T261.22,159c-.59-1.4-1.16-2.59-1.7-3.58a8.15,8.15,0,0,0-1.62-2.16,1.15,1.15,0,0,0-1.55-.13c-.11.1-.16.14-.16.13a.19.19,0,0,1,.05-.11l.12-.2a.21.21,0,0,0,0-.19s.1-.1.36-.17a8.37,8.37,0,0,1,1-.19c.4-.05.84-.09,1.32-.13s.92-.06,1.34-.07a2.28,2.28,0,0,1,1.49.82,15.6,15.6,0,0,1,1.77,2.21c.62.92,1.26,2,1.93,3.13s1.34,2.35,2,3.56,1.34,2.41,2,3.57,1.32,2.21,1.94,3.12a15.05,15.05,0,0,0,1.76,2.21,2.25,2.25,0,0,0,1.49.82,1.43,1.43,0,0,0,.73-.24,4.5,4.5,0,0,0,.75-.57,6.11,6.11,0,0,0,.64-.72A2.9,2.9,0,0,0,277.32,169.4Z"/><path class="cls-8" d="M293.7,148.7c-.31,1-.75,2-1.3,3.3s-1.19,2.53-1.92,3.85-1.53,2.63-2.39,3.91a26.11,26.11,0,0,1-2.67,3.4,13.89,13.89,0,0,1-2.76,2.36,4.49,4.49,0,0,1-2.66.81,6.92,6.92,0,0,1-3.19-.87,6.69,6.69,0,0,1-2.07-1.91,8,8,0,0,1-1.13-2.47,12.59,12.59,0,0,1-.43-2.55,15.5,15.5,0,0,1,.52-5.42,16.12,16.12,0,0,1,2.07-4.58,12.07,12.07,0,0,1,3.06-3.21,6.57,6.57,0,0,1,3.5-1.28,4.16,4.16,0,0,1,2.24.37,3.06,3.06,0,0,1,1.19,1.11,3.09,3.09,0,0,1,.43,1.41,9.73,9.73,0,0,1,0,1.29,7.89,7.89,0,0,1-.46,2.21,9.86,9.86,0,0,1-1,1.89,11.77,11.77,0,0,1-1.28,1.58,13.52,13.52,0,0,1-1.42,1.26,16,16,0,0,1-3.78,2.18,8.63,8.63,0,0,1-1.22-1.53,2.79,2.79,0,0,1-.23-.51.47.47,0,0,1,0-.39.49.49,0,0,1,.36-.2,2.29,2.29,0,0,1,.81.07,2.84,2.84,0,0,0,2.11-.44,9.41,9.41,0,0,0,2.08-1.76,11.85,11.85,0,0,0,1.65-2.33,6.37,6.37,0,0,0,.79-2.19,1.86,1.86,0,0,0,0-.58,1.59,1.59,0,0,0-.13-.52.74.74,0,0,0-.27-.35.5.5,0,0,0-.42-.05,2.32,2.32,0,0,0-1,.79,11.23,11.23,0,0,0-1.15,1.71,24,24,0,0,0-1.13,2.41,26.13,26.13,0,0,0-1,2.87,28.68,28.68,0,0,0-.71,3.11,17.64,17.64,0,0,0-.26,3.11,6.29,6.29,0,0,0,.43,2.36,1.13,1.13,0,0,0,1.35.69,5.59,5.59,0,0,0,1.56-.54A10.17,10.17,0,0,0,283.7,162a12.36,12.36,0,0,0,1.71-1.58,16.53,16.53,0,0,0,1.63-2.11c.55-.85,1.11-1.8,1.67-2.85s1.09-2.09,1.59-3.11.93-2,1.31-2.86.68-1.56.87-2.05a2.52,2.52,0,0,1,.76-1.07.36.36,0,0,1,.54.07,1.51,1.51,0,0,1,.21.88A4,4,0,0,1,293.7,148.7Z"/><path class="cls-8" d="M292.43,146.28a8.47,8.47,0,0,1,.27-2.79,6.7,6.7,0,0,1,1-2,5.77,5.77,0,0,1,1.38-1.33,8.12,8.12,0,0,1,1.47-.82,8.92,8.92,0,0,1,1.27-.42l.79-.18a1,1,0,0,1,.86.12,1.47,1.47,0,0,1,.54.65,1.33,1.33,0,0,1,.09.81.84.84,0,0,1-.51.61,1.43,1.43,0,0,0-.43.47,6.3,6.3,0,0,0-.58,1,9,9,0,0,0-.52,1.39,8.28,8.28,0,0,0-.27,1.58,23.76,23.76,0,0,0,.06,3.53c.12,1.34.21,2.74.3,4.2s.11,2.91.1,4.37a17.27,17.27,0,0,1-.49,4,8.11,8.11,0,0,1-1.51,3.12,5,5,0,0,1-2.94,1.7,3.59,3.59,0,0,1-2,0,3.07,3.07,0,0,1-1.38-.91,3.66,3.66,0,0,1-.75-1.53,4.79,4.79,0,0,1-.08-1.85c-1-1.15,1.42-3.06,2-3.53a25.15,25.15,0,0,1,2.29-1.55l2.71-1.66c.94-.57,1.75,1.48.78,2.18s-1.89,1.35-2.74,1.94-1.54,1.1-2.08,1.52a5.49,5.49,0,0,0-1,1,2,2,0,0,0-.41.83.4.4,0,0,0,.21.48,1.32,1.32,0,0,0,.91-.08q.69-.23,1-1.44a14.76,14.76,0,0,0,.38-3c.05-1.16,0-2.42,0-3.76s-.16-2.62-.26-3.81-.21-2.24-.32-3.13S292.43,146.54,292.43,146.28Z"/><path class="cls-8" d="M256.11,134.3s-6.29,2.08-6,9.87c.64,11.56-3.42,12.74-4.17,13.3-5.48,3.56-7.42-2.12-7.42-2.12a7.43,7.43,0,0,0,1.21,9.49c4.18,3.57,11.33-.16,11.33-.16s6-2.62,4.88-11.51c-.22-1.63-1.74-4.23-1.9-7.31.19-7.32,3.16-9.84,3.16-9.84a.84.84,0,0,0,0-1.32A1.62,1.62,0,0,0,256.11,134.3Z"/><path class="cls-8" d="M254.9,132l.34-.07a10.78,10.78,0,0,1,1.72-.19,10.25,10.25,0,0,1,.49,20.5H257l-.12,0h-.12a.6.6,0,0,0-.51.58.61.61,0,0,0,.25.52h0l.19.09.11.05h0a13.14,13.14,0,1,0-2-22.68h0l-.43.31a.62.62,0,0,0,.49.9Z"/><path class="cls-8" d="M305.63,132.28l.33-.08a10.9,10.9,0,0,1,1.73-.18,10.25,10.25,0,1,1,.48,20.49,3.23,3.23,0,0,1-.44,0h-.24a.61.61,0,0,0-.26,1.09h0l.19.1.11.05h0a13,13,0,0,0,5.84,1.22,13.13,13.13,0,1,0-7.82-23.91h0l-.43.31a.59.59,0,0,0-.07.26A.62.62,0,0,0,305.63,132.28Z"/><path class="cls-8" d="M357.19,159.9h0a8.11,8.11,0,0,0,1.85.15h.36a8.77,8.77,0,0,0,7.79-6.12v0h0l.32-1.49a8.23,8.23,0,0,1-.32,1.49l.32-1.49a12.57,12.57,0,0,1,.7-1.83,5.2,5.2,0,0,1,.26-.53,12.49,12.49,0,0,1,3.93-4.43c.95-.65,6.45,2.4,5.09,3a12.44,12.44,0,0,0-7.31,8.4h0v0h0l-.3,1.63v0h0a10.7,10.7,0,0,1-1.37,3,10.55,10.55,0,0,1-19.37-5.55,10.38,10.38,0,0,1,.93-4.6,10.57,10.57,0,0,1,12.75-5.73l.11,0a1.09,1.09,0,0,1,.4.27,1.12,1.12,0,0,1,.3.73,1.1,1.1,0,0,1-.66,1h0c-.27,0-.54,0-.82,0h-.09a7.82,7.82,0,0,0-7.53,7.1,4.16,4.16,0,0,0,2.66,4.92h0"/><path class="cls-8" d="M327.2,142.58q-.13-.53.21-.51a2.09,2.09,0,0,1,.93.39,8.77,8.77,0,0,1,1.28,1.06,12.25,12.25,0,0,1,1.31,1.52,8.33,8.33,0,0,1,1,1.74,4.13,4.13,0,0,1,.41,1.69,5.19,5.19,0,0,1-.18,1.06c-.13.53-.3,1.16-.51,1.91s-.45,1.57-.71,2.46l-.75,2.7c-.24.9-.46,1.77-.66,2.59s-.36,1.55-.46,2.17-.18,1-.22,1.27,0,.43,0,.47.16,0,.33-.13l.7-.57a15.09,15.09,0,0,0,2.22-2.28,30.7,30.7,0,0,0,2-2.83q.94-1.5,1.74-3c.52-1,1-1.93,1.39-2.77s.72-1.55,1-2.15l.46-1.12a2.88,2.88,0,0,1,.83-1.18c.26-.15.45-.13.6.06a1.6,1.6,0,0,1,.21,1,5.34,5.34,0,0,1-.3,1.54c-.28.77-.67,1.72-1.16,2.84s-1.08,2.31-1.75,3.55-1.42,2.47-2.24,3.71a28.57,28.57,0,0,1-2.59,3.34,14.64,14.64,0,0,1-2.82,2.4,5.54,5.54,0,0,1-2.91.93,2.72,2.72,0,0,1-.85-.16,2.67,2.67,0,0,1-1-.6,3.87,3.87,0,0,1-.82-1.24,5.47,5.47,0,0,1-.36-2.06,7.56,7.56,0,0,1,.35-1.46c.23-.79.53-1.76.88-2.92s.71-2.43,1.09-3.82.68-2.78.95-4.19a39,39,0,0,0,.54-4.05A10.75,10.75,0,0,0,327.2,142.58Z"/><path class="cls-8" d="M344.08,163.47a2.2,2.2,0,0,0,1.54-.48,8.33,8.33,0,0,0,1.62-1.56,20.43,20.43,0,0,0,1.63-2.3c.54-.87,1.05-1.76,1.54-2.68s.94-1.85,1.38-2.77.81-1.75,1.13-2.49.59-1.37.81-1.88.33-.81.37-.92a2.77,2.77,0,0,1,.78-1.1c.24-.13.42-.12.56.06a1.58,1.58,0,0,1,.21.89,4.21,4.21,0,0,1-.3,1.44,28.17,28.17,0,0,1-1,3c-.45,1.15-1,2.33-1.57,3.55s-1.25,2.44-2,3.64a28,28,0,0,1-2.21,3.23,14,14,0,0,1-2.34,2.34,4.41,4.41,0,0,1-2.31,1,4.65,4.65,0,0,1-1.39-.18,3.83,3.83,0,0,1-1.57-.88,5.66,5.66,0,0,1-1.33-1.9,9.27,9.27,0,0,1-.71-3.24,8.3,8.3,0,0,1,.11-1.59c.1-.67.23-1.39.41-2.17s.38-1.55.6-2.33.42-1.5.61-2.13.36-1.14.5-1.54a2.85,2.85,0,0,1,.24-.61h-.48a3.3,3.3,0,0,1-1.21-.33,4,4,0,0,1-1.35-1.1,4.66,4.66,0,0,1-.89-2.32,13.46,13.46,0,0,1,0-1.7c1-6.65,6.86-3.71,5.93-2.28-.7,1.47-.78,1.65-1.24,2.54l2.34-.88,1.84-.68a9.09,9.09,0,0,1,1.42-.43.93.93,0,0,1,1,.31,2.54,2.54,0,0,1,.49,1.09,4.34,4.34,0,0,1,0,1.35,2.36,2.36,0,0,1-.36,1.07,23.81,23.81,0,0,0-1.54,2.56c-.56,1-1.09,2.16-1.59,3.33s-1,2.38-1.36,3.6a29.84,29.84,0,0,0-.91,3.38,9.17,9.17,0,0,0-.21,2.65A1.65,1.65,0,0,0,344.08,163.47Z"/><path class="cls-8" d="M329.7,133.67c-3.47.7-.54,8.85,3.89,6.63,3.68-2-1.27-11.67-4.14-6.5"/><path class="cls-8" d="M308.29,134.7a1.62,1.62,0,0,0-1.09-.4s-6.29,2.08-6,9.87c.64,11.56-3.42,12.74-4.17,13.3-.29.19-.57.35-.83.49a6.85,6.85,0,0,1-1.33.52,2.42,2.42,0,0,1,.89,1.79c0,1.49-3.15,5.7-2.16,5.92,4,.87,8.56-1.51,8.56-1.51s6-2.62,4.87-11.51c-.22-1.63-1.74-4.23-1.9-7.31.19-7.32,3.16-9.84,3.16-9.84A.84.84,0,0,0,308.29,134.7Z"/><path class="cls-8" d="M541,153.76a.36.36,0,0,0,0,.1v0a.91.91,0,0,1-.81.71,1,1,0,0,1-.91-1v-.06s0,0,0,0,0,0,0,0,0,0,0,0,0,0,0,0h0v.11a.27.27,0,0,1,0-.09h0s0,0,0,0h0a.38.38,0,0,1,0-.1c-.17-7.22,4.31-13.17,10-13.3a8.33,8.33,0,0,1,2.5.32,26.38,26.38,0,0,1,4.42,2.82,8.51,8.51,0,0,0,5.26,1.74c3.53-.09,6.59-2.49,8.28-6.06l.24-.53a.59.59,0,0,1,.38-.18.7.7,0,0,1,.64.58h0c0,.13,0,.25,0,.37h0l0,.54c.15,6.75-4,12.31-9.36,12.44a7.73,7.73,0,0,1-1.86-.19,8.75,8.75,0,0,1-4.09-2.23h0l-1.12-1.23h0a7.63,7.63,0,0,0-5.42-2.18c-3.81.09-7,3.21-8.14,7.52a.36.36,0,0,0,0,.1v0"/><path class="cls-8" d="M480,130.46s-6.3,2.07-6,9.87c.64,11.56-3.43,12.73-4.17,13.29-5.49,3.56-7.42-2.12-7.42-2.12a7.44,7.44,0,0,0,1.2,9.49c4.19,3.57,11.34-.16,11.34-.16s6-2.62,4.87-11.51c-.22-1.63-1.73-4.23-1.89-7.31.19-7.31,3.16-9.83,3.16-9.83a.85.85,0,0,0,0-1.33A1.59,1.59,0,0,0,480,130.46Z"/><path class="cls-8" d="M433.62,155.66h0a9,9,0,0,0,1.82.36l.35,0h0a8.78,8.78,0,0,0,8.44-5.19v0h0l.49-1.45a8.52,8.52,0,0,1-.49,1.45l.49-1.45a12.87,12.87,0,0,1,.9-1.73c.1-.17.21-.34.32-.5a12.31,12.31,0,0,1,4.42-3.94c1-.55,6.13,3.12,4.71,3.52a12.41,12.41,0,0,0-8.22,7.5h0v0h0l-.47,1.59v0h0a10.31,10.31,0,0,1-1.7,2.86,10.56,10.56,0,1,1-7.14-17.28,10.36,10.36,0,0,1,3.3.86l.11,0a1.08,1.08,0,0,1,.36.31,1.12,1.12,0,0,1,.22.76,1.11,1.11,0,0,1-.78,1h0a7.5,7.5,0,0,0-.81-.11h-.1a7.83,7.83,0,0,0-8.29,6.2,4.25,4.25,0,0,0-.25,1.08,4.13,4.13,0,0,0,2.33,4.1h0"/><path class="cls-8" d="M459.19,148.58h0a8.93,8.93,0,0,0-1.79-.49l-.35-.05h0a8.76,8.76,0,0,0-8.77,4.6v0h0l-.59,1.41a7.35,7.35,0,0,1,.59-1.41l-.59,1.41a12.84,12.84,0,0,1-1,1.67c-.11.16-.23.32-.35.47a12.33,12.33,0,0,1-4.68,3.63c-1.05.48-5.9-3.53-4.46-3.83a12.42,12.42,0,0,0,8.71-6.93h0s0,0,0,0h0l.59-1.56h0v0a10.56,10.56,0,1,1,7.84,15,10,10,0,0,1-3.23-1.08.39.39,0,0,1-.11-.06,1,1,0,0,1-.34-.33,1.1,1.1,0,0,1,.68-1.67h0a7.1,7.1,0,0,0,.8.17h.09a7.83,7.83,0,0,0,8.7-5.61,4.2,4.2,0,0,0,.32-1.06,4.13,4.13,0,0,0-2-4.26h0"/><path class="cls-8" d="M431.32,135.88s.61-1,.87-1.33a9.73,9.73,0,0,1,14.68-.84h0l1,1.25h0a10.53,10.53,0,0,0,4.09,2.65,11.48,11.48,0,0,0,2,.5,10.58,10.58,0,0,0,12-8.88l.06-.46h0l0-.31h0a.71.71,0,0,0-.6-.6.67.67,0,0,0-.44.07c-.11.15-.22.28-.34.42a11,11,0,0,1-15.31,1.19,29.47,29.47,0,0,0-4.34-3.21,11.74,11.74,0,0,0-2.66-.73,11.3,11.3,0,0,0-12.86,9.49.28.28,0,0,1,0,.09h0a.28.28,0,0,0,0,.09.06.06,0,0,0,0,0l0-.14h0v.09a.06.06,0,0,0,0,0c0,.5,1.86.49,1.87.46"/><path class="cls-8" d="M499.9,138.76q-.13-.52.21-.51a1.9,1.9,0,0,1,.93.38,8.27,8.27,0,0,1,1.28,1.06,13.91,13.91,0,0,1,1.31,1.52,9.14,9.14,0,0,1,1,1.74,4.53,4.53,0,0,1,.41,1.69,5.47,5.47,0,0,1-.19,1.06q-.19.8-.51,1.92c-.21.75-.45,1.57-.7,2.46s-.51,1.79-.76,2.69-.46,1.77-.66,2.6-.36,1.54-.46,2.16-.18,1-.22,1.27,0,.44,0,.48.17,0,.33-.14l.7-.56a14.62,14.62,0,0,0,2.22-2.28,30.86,30.86,0,0,0,2-2.84q.94-1.49,1.74-3c.53-1,1-1.92,1.39-2.76s.72-1.56,1-2.15.4-1,.47-1.13a2.7,2.7,0,0,1,.83-1.18.42.42,0,0,1,.59.06,1.66,1.66,0,0,1,.21,1,5.28,5.28,0,0,1-.3,1.53c-.28.78-.67,1.72-1.16,2.85s-1.08,2.31-1.75,3.54-1.42,2.48-2.24,3.71a28.57,28.57,0,0,1-2.59,3.34,13.7,13.7,0,0,1-2.82,2.4,5.54,5.54,0,0,1-2.9.93,3,3,0,0,1-.86-.15,2.54,2.54,0,0,1-1-.61,3.77,3.77,0,0,1-.83-1.24,5.44,5.44,0,0,1-.36-2.06,8.48,8.48,0,0,1,.35-1.45l.88-2.93c.35-1.15.72-2.42,1.09-3.81s.69-2.79.95-4.2a38.81,38.81,0,0,0,.54-4A10.42,10.42,0,0,0,499.9,138.76Z"/><path class="cls-8" d="M502.4,129.85c-3.47.7-.54,8.84,3.89,6.62,3.68-1.95-1.27-11.66-4.14-6.49"/><path class="cls-8" d="M478.32,128.43l.34-.07a10.78,10.78,0,0,1,1.72-.19,10.25,10.25,0,0,1,.49,20.5h-.45l-.11,0h-.12a.6.6,0,0,0-.51.58.58.58,0,0,0,.25.51h0l.19.09.11.05h0a13.14,13.14,0,1,0-2-22.68h0l-.43.31a.6.6,0,0,0-.07.27A.59.59,0,0,0,478.32,128.43Z"/><path class="cls-8" d="M529.51,156.07h0a9.31,9.31,0,0,0,1.85.15l.34,0h0a8.74,8.74,0,0,0,7.79-6.11v0h0l.33-1.5a9.55,9.55,0,0,1-.33,1.5l.33-1.5a11.86,11.86,0,0,1,.69-1.83l.26-.52a12.35,12.35,0,0,1,3.94-4.43c1-.65,6.45,2.4,5.08,3a12.41,12.41,0,0,0-7.3,8.39h0v0h0l-.29,1.64h0v0a10.26,10.26,0,0,1-1.37,3,10.55,10.55,0,0,1-19.37-5.55,10.42,10.42,0,0,1,.94-4.6A10.56,10.56,0,0,1,535.15,142l.12,0a1.16,1.16,0,0,1,.39.26,1.11,1.11,0,0,1-.36,1.77h0a7.42,7.42,0,0,0-.82,0h-.09a7.82,7.82,0,0,0-7.54,7.1,4.42,4.42,0,0,0-.12,1.1,4.13,4.13,0,0,0,2.78,3.81h0"/><path class="cls-8" d="M516.78,159.64a2.19,2.19,0,0,0,1.54-.48,8.55,8.55,0,0,0,1.62-1.55,21,21,0,0,0,1.63-2.3c.54-.87,1-1.77,1.54-2.69s.94-1.84,1.38-2.76.81-1.76,1.14-2.5.59-1.37.8-1.88.34-.81.37-.91a2.62,2.62,0,0,1,.78-1.1c.24-.14.42-.12.56.05a1.65,1.65,0,0,1,.21.9,4.21,4.21,0,0,1-.3,1.44,29.76,29.76,0,0,1-1,3c-.45,1.14-1,2.33-1.57,3.55s-1.25,2.43-2,3.63a28,28,0,0,1-2.21,3.23,12.93,12.93,0,0,1-2.34,2.34,4.33,4.33,0,0,1-2.31,1,4.64,4.64,0,0,1-1.39-.17,4,4,0,0,1-1.57-.88,5.71,5.71,0,0,1-1.33-1.91,9.27,9.27,0,0,1-.71-3.24,8.35,8.35,0,0,1,.11-1.59c.1-.67.24-1.39.41-2.16s.38-1.55.6-2.34.42-1.49.61-2.12.36-1.15.5-1.55a2.59,2.59,0,0,1,.24-.6,3.52,3.52,0,0,0-.48,0,2.94,2.94,0,0,1-1.21-.33,4,4,0,0,1-1.35-1.09,4.74,4.74,0,0,1-.89-2.33,13,13,0,0,1,0-1.7c1-6.64,6.85-3.7,5.92-2.28-.7,1.48-.78,1.66-1.24,2.55l2.34-.89,1.84-.68a12,12,0,0,1,1.42-.43.93.93,0,0,1,1,.32,2.48,2.48,0,0,1,.49,1.09,4.28,4.28,0,0,1,0,1.34,2.32,2.32,0,0,1-.36,1.07,24.85,24.85,0,0,0-1.54,2.56c-.55,1.05-1.09,2.16-1.59,3.34s-1,2.38-1.36,3.59a30.41,30.41,0,0,0-.91,3.38,9.61,9.61,0,0,0-.21,2.66A1.63,1.63,0,0,0,516.78,159.64Z"/><path class="cls-8" d="M440.13,121.69c-9-.35-12.35,11.08-14.57,18.65-.61,2.25-.81,4.49-1.43,6.73-.4,2-.4,7.14-2,8.57-4.49,4.08-4.69-9.79-5.1-12.24-.21-2.44,0-5.5-.82-8-1.63-4.08-3.67-2-5.1,1.22a61.71,61.71,0,0,0-2.32,7,26.83,26.83,0,0,1,2.87,5.22,61.61,61.61,0,0,1,2.72-7.89c.2,4.07-.62,8.36.4,12.43.41,2.25,1.84,6.53,3.68,8.16,3.67,3.27,4.48-.81,5.5-3.67,3.06-8.77,5.51-23,12.85-29.36,1.59-1.34,4.08-2.08,6.35-2.59C445.6,125.21,441.06,121.73,440.13,121.69Z"/><path class="cls-8" d="M411.8,148.23a44.77,44.77,0,0,1-.12-11,10.18,10.18,0,0,0-1.39,2.26c-2,4.55-3.26,10-4.69,14.78a29.07,29.07,0,0,0-1.23,9.28c.06.56.09,1,.13,1.46.12,2.71,5.44,2.66,5.62-.45a34.8,34.8,0,0,1,.17-9A38.62,38.62,0,0,1,411.8,148.23Z"/><path class="cls-8" d="M165.67,134l0,.08h0a.87.87,0,0,1-.8.54.89.89,0,0,1-.91-.75.08.08,0,0,1,0,0v-.08h0v.13a.08.08,0,0,1,0,0v-.08h0v-.08a9.93,9.93,0,0,1,10-10.06,11,11,0,0,1,2.51.24,29.4,29.4,0,0,1,4.41,2.13,10.38,10.38,0,0,0,5.26,1.32,10,10,0,0,0,8.29-4.58l.24-.41a.69.69,0,0,1,.38-.13.68.68,0,0,1,.64.44h0c0,.09,0,.18,0,.28h0c0,.13,0,.27,0,.41a9.3,9.3,0,0,1-9.35,9.41,10.38,10.38,0,0,1-1.86-.14,9.87,9.87,0,0,1-4.1-1.69h0l-1.12-.93h0a9.18,9.18,0,0,0-5.43-1.64,8.69,8.69,0,0,0-8.13,5.69l0,.08h0"/><path class="cls-8" d="M74.32,143q.27-.3.54-.18a1,1,0,0,1,.48.49,2.79,2.79,0,0,1,.27.91,2.49,2.49,0,0,1-.09,1.08A5.42,5.42,0,0,1,74.7,147a4.92,4.92,0,0,1-3.06,1.91,5.61,5.61,0,0,1-2,0,6.55,6.55,0,0,1-2.81-1.28,15,15,0,0,1-2.52-2.47,30.31,30.31,0,0,1-2.24-3.21c-.71-1.17-1.38-2.33-2-3.49s-1.24-2.28-1.83-3.34a27.77,27.77,0,0,0-1.7-2.71,6.56,6.56,0,0,0-1.62-1.63,1.42,1.42,0,0,0-1.55-.1c-.11.08-.16.11-.16.09a.15.15,0,0,1,.05-.08l.12-.15c0-.06.06-.1,0-.14s.1-.08.36-.13.58-.1,1-.14.84-.08,1.32-.1S57,130,57.41,130a2.48,2.48,0,0,1,1.49.62,12.64,12.64,0,0,1,1.77,1.67c.62.69,1.26,1.48,1.93,2.36s1.34,1.78,2,2.7,1.34,1.82,2,2.7,1.32,1.67,1.94,2.37a13.24,13.24,0,0,0,1.76,1.67,2.64,2.64,0,0,0,1.49.62,2,2,0,0,0,.73-.19,4.28,4.28,0,0,0,.75-.43,4.92,4.92,0,0,0,.64-.54A2.32,2.32,0,0,0,74.32,143Z"/><path class="cls-8" d="M90.7,127.31a24.62,24.62,0,0,1-1.3,2.5,33.11,33.11,0,0,1-1.92,2.92c-.73,1-1.53,2-2.39,3a22.11,22.11,0,0,1-2.67,2.57,14.22,14.22,0,0,1-2.76,1.79,5.61,5.61,0,0,1-2.66.61,8.72,8.72,0,0,1-3.19-.67,6.1,6.1,0,0,1-2.07-1.44,5.47,5.47,0,0,1-1.13-1.86,7.47,7.47,0,0,1-.43-1.94,9,9,0,0,1,.52-4.09,11,11,0,0,1,2.07-3.47,10.8,10.8,0,0,1,3.06-2.43,8,8,0,0,1,3.5-1,5.42,5.42,0,0,1,2.24.28,2.84,2.84,0,0,1,1.19.84,2,2,0,0,1,.43,1.06,5.74,5.74,0,0,1,0,1,4.72,4.72,0,0,1-.46,1.66,6.63,6.63,0,0,1-1,1.43,9.68,9.68,0,0,1-1.28,1.2,13.64,13.64,0,0,1-1.42,1,17.6,17.6,0,0,1-3.78,1.64,7.38,7.38,0,0,1-1.22-1.15,2.07,2.07,0,0,1-.23-.39.29.29,0,0,1,0-.3.61.61,0,0,1,.36-.15,3.64,3.64,0,0,1,.81,0,3.5,3.5,0,0,0,2.11-.33,9.36,9.36,0,0,0,2.08-1.32,10.12,10.12,0,0,0,1.65-1.77,4.15,4.15,0,0,0,.79-1.66,1,1,0,0,0,0-.43.94.94,0,0,0-.13-.4.57.57,0,0,0-.27-.26.65.65,0,0,0-.42,0,2.6,2.6,0,0,0-1,.6,8.47,8.47,0,0,0-1.15,1.3,16.45,16.45,0,0,0-1.13,1.82,17.16,17.16,0,0,0-1,2.17,17.35,17.35,0,0,0-.71,2.36,10.19,10.19,0,0,0-.26,2.35,3.8,3.8,0,0,0,.43,1.79,1.24,1.24,0,0,0,1.35.52,7,7,0,0,0,1.56-.41,12,12,0,0,0,1.71-.81,12.1,12.1,0,0,0,1.71-1.2A12.81,12.81,0,0,0,84,134.59c.55-.64,1.11-1.36,1.67-2.16s1.09-1.58,1.59-2.36.93-1.5,1.31-2.16.68-1.18.87-1.55a2.06,2.06,0,0,1,.76-.81.45.45,0,0,1,.54,0,1,1,0,0,1,.21.67A2.35,2.35,0,0,1,90.7,127.31Z"/><path class="cls-8" d="M89.43,125.48a5,5,0,0,1,.27-2.11,4.6,4.6,0,0,1,1-1.5,5.45,5.45,0,0,1,1.38-1,9.47,9.47,0,0,1,1.47-.62,10.08,10.08,0,0,1,1.27-.31c.38-.07.65-.11.79-.15a1.31,1.31,0,0,1,.86.1,1.24,1.24,0,0,1,.54.49.77.77,0,0,1,.09.61.69.69,0,0,1-.51.46,1.24,1.24,0,0,0-.43.36,4.39,4.39,0,0,0-.58.78,5.71,5.71,0,0,0-.52,1,5,5,0,0,0-.27,1.2,13.61,13.61,0,0,0,.06,2.67c.12,1,.21,2.07.3,3.18s.11,2.2.1,3.3a10.08,10.08,0,0,1-.49,3,5.71,5.71,0,0,1-1.51,2.36,5.48,5.48,0,0,1-2.94,1.28,4.75,4.75,0,0,1-2,0,3.31,3.31,0,0,1-1.38-.68,2.71,2.71,0,0,1-.75-1.16,2.77,2.77,0,0,1-.08-1.4c-1-.87,1.42-2.32,2-2.67a25.28,25.28,0,0,1,2.29-1.18l2.71-1.25c.94-.44,1.75,1.11.78,1.65l-2.74,1.46c-.85.45-1.54.83-2.08,1.16a5,5,0,0,0-1,.73,1.5,1.5,0,0,0-.41.63.29.29,0,0,0,.21.37,1.79,1.79,0,0,0,.91-.07,1.44,1.44,0,0,0,1-1.09,8.47,8.47,0,0,0,.38-2.25,22.84,22.84,0,0,0,0-2.85c-.08-1-.16-2-.26-2.88s-.21-1.69-.32-2.37A10.3,10.3,0,0,1,89.43,125.48Z"/><path class="cls-8" d="M53.11,116.42s-6.29,1.57-6,7.47c.64,8.75-3.42,9.64-4.17,10.06-5.48,2.7-7.42-1.6-7.42-1.6s-3.36,3.6,1.21,7.18c4.18,2.7,11.33-.12,11.33-.12A7.58,7.58,0,0,0,53,130.7c-.22-1.23-1.74-3.2-1.9-5.53.19-5.54,3.16-7.45,3.16-7.45a.55.55,0,0,0,0-1A2,2,0,0,0,53.11,116.42Z"/><path class="cls-8" d="M51.9,114.7l.34,0a13.76,13.76,0,0,1,1.72-.14c5.67-.1,10.36,3.29,10.49,7.57s-4.34,7.84-10,7.94h-.68a.52.52,0,0,0-.51.44.43.43,0,0,0,.25.39h0l.19.07.11,0h0a16.59,16.59,0,0,0,5.85.92c7.25-.13,13-4.68,12.82-10.17S66.29,111.87,59,112a16.12,16.12,0,0,0-7.2,1.78h0c-.15.07-.29.15-.43.23a.37.37,0,0,0-.07.2C51.32,114.47,51.58,114.68,51.9,114.7Z"/><path class="cls-8" d="M102.63,114.89l.33-.06a13.92,13.92,0,0,1,1.73-.14c5.66-.1,10.35,3.29,10.49,7.58s-4.35,7.83-10,7.93h-.68a.52.52,0,0,0-.51.43.42.42,0,0,0,.25.39h0l.19.07.11,0h0a16.72,16.72,0,0,0,5.84.92c7.25-.13,13-4.68,12.82-10.17s-6.19-9.83-13.44-9.7a16.12,16.12,0,0,0-7.2,1.78h0l-.43.24a.37.37,0,0,0-.07.2C102.05,114.66,102.3,114.87,102.63,114.89Z"/><path class="cls-8" d="M154.19,135.79h0a11.28,11.28,0,0,0,1.85.12l.35,0h0c3.69-.17,6.73-2.07,7.79-4.62v0h0l.32-1.13a4.87,4.87,0,0,1-.32,1.13l.32-1.13a8.52,8.52,0,0,1,.7-1.38,3.42,3.42,0,0,1,.26-.4,10.91,10.91,0,0,1,3.93-3.35c1-.49,6.45,1.82,5.09,2.24-3.6,1.12-6.34,3.48-7.31,6.35h0l-.3,1.23h0v0a7.3,7.3,0,0,1-1.37,2.29,11.62,11.62,0,0,1-8.57,3.6,12.57,12.57,0,0,1-7.54-2.2,7.25,7.25,0,0,1-3.26-5.6,6.28,6.28,0,0,1,.93-3.48c1.62-2.7,5.18-4.61,9.37-4.69a13.8,13.8,0,0,1,3.38.36l.11,0a1.08,1.08,0,0,1,.4.2.75.75,0,0,1,.3.55.86.86,0,0,1-.66.79h0c-.27,0-.54,0-.82,0h-.09c-4,.1-7.18,2.43-7.53,5.37a2.35,2.35,0,0,0-.12.83,3.36,3.36,0,0,0,2.78,2.89h0"/><path class="cls-8" d="M124.2,122.69q-.14-.41.21-.39a2.51,2.51,0,0,1,.93.29,9.51,9.51,0,0,1,1.28.8,11.85,11.85,0,0,1,1.31,1.15,6.42,6.42,0,0,1,1,1.32,2.52,2.52,0,0,1,.41,1.28,3.1,3.1,0,0,1-.18.8c-.13.4-.3.88-.51,1.45s-.45,1.19-.71,1.86l-.75,2c-.24.69-.46,1.34-.66,2a15.23,15.23,0,0,0-.46,1.63c-.11.44-.18.76-.22,1s0,.33,0,.37.16,0,.33-.11l.7-.43a13.83,13.83,0,0,0,2.22-1.72,24.12,24.12,0,0,0,2-2.15c.63-.75,1.21-1.5,1.74-2.27s1-1.45,1.39-2.09.72-1.17,1-1.63l.46-.85a2.32,2.32,0,0,1,.83-.89.51.51,0,0,1,.6,0,1,1,0,0,1,.21.72,3.16,3.16,0,0,1-.3,1.16c-.28.59-.67,1.3-1.16,2.15s-1.08,1.75-1.75,2.69-1.42,1.87-2.24,2.8a23.67,23.67,0,0,1-2.59,2.53A13.58,13.58,0,0,1,126.5,140a6.63,6.63,0,0,1-2.91.71,3.67,3.67,0,0,1-.85-.12,2.84,2.84,0,0,1-1-.45,3.18,3.18,0,0,1-.82-.94,3.27,3.27,0,0,1-.36-1.56,4.58,4.58,0,0,1,.35-1.1c.23-.6.53-1.34.88-2.22s.71-1.83,1.09-2.88.68-2.11,1-3.18a22.41,22.41,0,0,0,.54-3.06A6.17,6.17,0,0,0,124.2,122.69Z"/><path class="cls-8" d="M141.08,138.49a2.74,2.74,0,0,0,1.54-.36,8.07,8.07,0,0,0,1.62-1.18,16.24,16.24,0,0,0,1.63-1.74c.54-.66,1-1.34,1.54-2s.94-1.4,1.38-2.09.81-1.33,1.13-1.89l.81-1.42.37-.7a2.16,2.16,0,0,1,.78-.83.48.48,0,0,1,.56,0,1,1,0,0,1,.21.68,2.53,2.53,0,0,1-.3,1.09,17.77,17.77,0,0,1-1,2.28,31,31,0,0,1-1.57,2.69c-.6.93-1.25,1.84-2,2.75a22.09,22.09,0,0,1-2.21,2.45,12.76,12.76,0,0,1-2.34,1.77,5.32,5.32,0,0,1-2.31.74,6.08,6.08,0,0,1-1.39-.13,4.39,4.39,0,0,1-1.57-.67,4.53,4.53,0,0,1-1.33-1.44,5.63,5.63,0,0,1-.71-2.45,4.83,4.83,0,0,1,.11-1.21,16.2,16.2,0,0,1,.41-1.63q.27-.89.6-1.77c.22-.6.42-1.13.61-1.61s.36-.87.5-1.17a1.88,1.88,0,0,1,.24-.46h-.48a4.08,4.08,0,0,1-2.56-1.08,3.1,3.1,0,0,1-.89-1.76,7.69,7.69,0,0,1,0-1.28c1-5,6.86-2.81,5.93-1.73-.7,1.12-.78,1.26-1.24,1.93l2.34-.67,1.84-.52a12.92,12.92,0,0,1,1.42-.32,1.08,1.08,0,0,1,1,.24,1.72,1.72,0,0,1,.49.82,2.5,2.5,0,0,1,0,1,1.52,1.52,0,0,1-.36.81,18.51,18.51,0,0,0-1.54,1.94,28.44,28.44,0,0,0-1.59,2.52,27.59,27.59,0,0,0-1.36,2.72,18.59,18.59,0,0,0-.91,2.56,5.33,5.33,0,0,0-.21,2A1.21,1.21,0,0,0,141.08,138.49Z"/><path class="cls-8" d="M126.7,115.94c-3.47.54-.54,6.7,3.89,5,3.68-1.48-1.27-8.83-4.14-4.92"/><path class="cls-8" d="M105.29,116.72a2,2,0,0,0-1.09-.3s-6.29,1.57-6,7.47c.64,8.75-3.42,9.64-4.17,10.06-.29.14-.57.27-.83.37a9.33,9.33,0,0,1-1.33.4,1.7,1.7,0,0,1,.89,1.35c0,1.13-3.15,4.32-2.16,4.48,4,.66,8.56-1.14,8.56-1.14a7.58,7.58,0,0,0,4.87-8.71c-.22-1.23-1.74-3.2-1.9-5.53.19-5.54,3.16-7.45,3.16-7.45A.55.55,0,0,0,105.29,116.72Z"/><path class="cls-8" d="M171,169a.24.24,0,0,0,0,.08s0,0,0,0a.87.87,0,0,1-.81.53.89.89,0,0,1-.91-.75v0a.09.09,0,0,0,0,0,0,0,0,0,1,0,0h0v.09a.22.22,0,0,1,0-.08h0a.22.22,0,0,1,0-.08,9.94,9.94,0,0,1,10-10.06,10.3,10.3,0,0,1,2.5.25,28.63,28.63,0,0,1,4.42,2.12,10.36,10.36,0,0,0,5.26,1.32,9.92,9.92,0,0,0,8.28-4.58l.24-.41a.72.72,0,0,1,.38-.13.67.67,0,0,1,.64.44h0a2.64,2.64,0,0,1,0,.28h0l0,.41a9.31,9.31,0,0,1-9.36,9.41,10.45,10.45,0,0,1-1.86-.14,9.83,9.83,0,0,1-4.09-1.69h0l-1.12-.93h0a9.08,9.08,0,0,0-5.42-1.65A8.72,8.72,0,0,0,171,169a.24.24,0,0,0,0,.08s0,0,0,0"/><path class="cls-8" d="M110,151.35s-6.3,1.57-6,7.47c.64,8.74-3.43,9.63-4.17,10.06-5.49,2.69-7.42-1.61-7.42-1.61s-3.36,3.6,1.2,7.19c4.19,2.69,11.34-.13,11.34-.13a7.58,7.58,0,0,0,4.87-8.71c-.22-1.23-1.73-3.2-1.89-5.53.19-5.54,3.16-7.44,3.16-7.44a.55.55,0,0,0,0-1A1.88,1.88,0,0,0,110,151.35Z"/><path class="cls-8" d="M63.62,170.42h0a13.06,13.06,0,0,0,1.82.27l.35,0h0c3.69.14,7-1.48,8.44-3.93h0l.49-1.09a5.6,5.6,0,0,1-.49,1.09l.49-1.09a9.62,9.62,0,0,1,.9-1.32L76,164a11.92,11.92,0,0,1,4.42-3c1-.41,6.13,2.36,4.71,2.67-3.74.8-6.82,2.9-8.22,5.68h0v0h0l-.47,1.2h0a7.73,7.73,0,0,1-1.7,2.16,12.33,12.33,0,0,1-9.06,2.84,11.83,11.83,0,0,1-7.15-2.84,6.49,6.49,0,0,1-1-9.22c2-2.55,5.85-4.14,10-3.85a13.32,13.32,0,0,1,3.3.65l.11,0a1.17,1.17,0,0,1,.36.23.72.72,0,0,1,.22.58.92.92,0,0,1-.78.72h0l-.81-.09h-.1c-4-.24-7.49,1.8-8.29,4.69a2.52,2.52,0,0,0-.25.82,3.1,3.1,0,0,0,2.33,3.1h0"/><path class="cls-8" d="M89.19,165.06h0a11.35,11.35,0,0,0-1.79-.37l-.35,0h0c-3.67-.33-7.12,1.12-8.77,3.48v0h0l-.59,1.07a5.35,5.35,0,0,1,.59-1.07l-.59,1.07a10.13,10.13,0,0,1-1,1.27c-.11.12-.23.24-.35.35a12.43,12.43,0,0,1-4.68,2.75c-1.05.36-5.9-2.67-4.46-2.9,3.81-.6,7.06-2.54,8.71-5.24h0l.59-1.18h0a8.42,8.42,0,0,1,1.9-2.07,12.77,12.77,0,0,1,9.29-2.36A11.46,11.46,0,0,1,94.56,163a6.56,6.56,0,0,1,1.86,6,7,7,0,0,1-1.76,3.3c-2.24,2.43-6.2,3.82-10.34,3.32a13.41,13.41,0,0,1-3.23-.82l-.11,0a1,1,0,0,1-.34-.25.67.67,0,0,1-.16-.59,1,1,0,0,1,.84-.68h0c.26.06.53.1.8.14h.09c3.94.45,7.65-1.41,8.7-4.24a2.59,2.59,0,0,0,.32-.81,3,3,0,0,0-2-3.22h0"/><path class="cls-8" d="M61.32,155.45s.61-.76.87-1a11.37,11.37,0,0,1,9.15-2.78,11,11,0,0,1,5.53,2.15h0l1,.94h0a11.33,11.33,0,0,0,4.09,2,13.61,13.61,0,0,0,2,.38c5.77.66,11.16-2.35,12-6.72l.06-.35h0l0-.24h0a.65.65,0,0,0-.6-.46.82.82,0,0,0-.44.06l-.34.31a13,13,0,0,1-9.89,2.75,12.81,12.81,0,0,1-5.42-1.85,31.92,31.92,0,0,0-4.34-2.43,14.09,14.09,0,0,0-2.66-.55c-6.17-.71-11.93,2.51-12.86,7.18a.17.17,0,0,1,0,.07h0a.13.13,0,0,0,0,.06.08.08,0,0,0,0,0l0-.11h0V155a.08.08,0,0,0,0,0c0,.38,1.86.37,1.87.35"/><path class="cls-8" d="M129.9,157.63q-.14-.4.21-.39a2.65,2.65,0,0,1,.93.29,8.25,8.25,0,0,1,1.28.81,10.08,10.08,0,0,1,1.31,1.15,6.8,6.8,0,0,1,1,1.31,2.77,2.77,0,0,1,.41,1.28,3.18,3.18,0,0,1-.19.8c-.13.4-.3.89-.51,1.45s-.45,1.19-.7,1.87-.51,1.35-.76,2-.46,1.34-.66,2a15.23,15.23,0,0,0-.46,1.63c-.11.44-.18.76-.22,1s0,.32,0,.36.17,0,.33-.1.4-.25.7-.43a13.6,13.6,0,0,0,2.22-1.73,24.12,24.12,0,0,0,2-2.15c.63-.75,1.21-1.5,1.74-2.26s1-1.46,1.39-2.1.72-1.17,1-1.62.4-.74.47-.86a2.18,2.18,0,0,1,.83-.89.5.5,0,0,1,.59,0,1,1,0,0,1,.21.72,3.16,3.16,0,0,1-.3,1.16c-.28.59-.67,1.3-1.16,2.16s-1.08,1.74-1.75,2.68-1.42,1.87-2.24,2.81a24.51,24.51,0,0,1-2.59,2.52,13.79,13.79,0,0,1-2.82,1.82,6.75,6.75,0,0,1-2.9.7,3.68,3.68,0,0,1-.86-.12,2.79,2.79,0,0,1-1-.45,3.08,3.08,0,0,1-.83-.94,3.27,3.27,0,0,1-.36-1.56,5.16,5.16,0,0,1,.35-1.1l.88-2.21c.35-.88.72-1.84,1.09-2.89a33.06,33.06,0,0,0,.95-3.18,22.41,22.41,0,0,0,.54-3.06A6,6,0,0,0,129.9,157.63Z"/><path class="cls-8" d="M132.4,150.89c-3.47.53-.54,6.69,3.89,5,3.68-1.48-1.27-8.83-4.14-4.92"/><path class="cls-8" d="M108.32,149.81l.34-.05a13.76,13.76,0,0,1,1.72-.14c5.66-.1,10.36,3.29,10.49,7.57s-4.35,7.84-10,7.94h-.68a.53.53,0,0,0-.51.44.43.43,0,0,0,.25.39h0l.19.07.11,0h0a16.57,16.57,0,0,0,5.84.92c7.26-.12,13-4.68,12.83-10.16s-6.19-9.83-13.44-9.71a16.09,16.09,0,0,0-7.2,1.79h0c-.15.07-.29.15-.43.23a.37.37,0,0,0-.07.2C107.74,149.58,108,149.8,108.32,149.81Z"/><path class="cls-8" d="M159.51,170.73h0a11.14,11.14,0,0,0,1.85.12h.35c3.69-.18,6.74-2.08,7.79-4.63v0h0l.33-1.13a5.82,5.82,0,0,1-.33,1.13l.33-1.13a7.5,7.5,0,0,1,.69-1.39l.26-.4a10.94,10.94,0,0,1,3.94-3.35c.95-.49,6.45,1.82,5.08,2.24-3.6,1.12-6.33,3.48-7.3,6.36h0v0h0l-.29,1.23v0h0a7.12,7.12,0,0,1-1.37,2.29,11.6,11.6,0,0,1-8.57,3.6,12.62,12.62,0,0,1-7.54-2.2,7.28,7.28,0,0,1-3.26-5.6,6.29,6.29,0,0,1,.94-3.48c1.62-2.7,5.17-4.61,9.36-4.69a13.74,13.74,0,0,1,3.38.36l.12,0a1.2,1.2,0,0,1,.39.2.74.74,0,0,1,.3.56.85.85,0,0,1-.66.78h0c-.27,0-.54,0-.82,0h-.09c-4,.1-7.18,2.43-7.54,5.37a2.63,2.63,0,0,0-.12.84,3.36,3.36,0,0,0,2.78,2.88h0"/><path class="cls-8" d="M146.78,173.43a2.64,2.64,0,0,0,1.54-.36,8.07,8.07,0,0,0,1.62-1.18,15.29,15.29,0,0,0,1.63-1.74c.54-.66,1.05-1.33,1.54-2s.94-1.4,1.38-2.09.81-1.33,1.14-1.89l.8-1.42c.21-.38.34-.61.37-.69a2.21,2.21,0,0,1,.78-.84.48.48,0,0,1,.56,0,1,1,0,0,1,.21.68,2.53,2.53,0,0,1-.3,1.09,18.47,18.47,0,0,1-1,2.29c-.45.86-1,1.76-1.57,2.68s-1.25,1.84-2,2.75a22.09,22.09,0,0,1-2.21,2.45,12.43,12.43,0,0,1-2.34,1.77,5.19,5.19,0,0,1-2.31.74,6.13,6.13,0,0,1-1.39-.13,4.39,4.39,0,0,1-1.57-.67,4.53,4.53,0,0,1-1.33-1.44,5.63,5.63,0,0,1-.71-2.45,4.75,4.75,0,0,1,.11-1.2c.1-.51.24-1.06.41-1.64s.38-1.18.6-1.77.42-1.13.61-1.61.36-.86.5-1.17a2.18,2.18,0,0,1,.24-.46h-.48a3.84,3.84,0,0,1-1.21-.24,4.12,4.12,0,0,1-1.35-.84,3.1,3.1,0,0,1-.89-1.76,7.4,7.4,0,0,1,0-1.28c1-5,6.85-2.8,5.92-1.73-.7,1.12-.78,1.26-1.24,1.93l2.34-.67,1.84-.52c.62-.16,1.09-.27,1.42-.32a1.08,1.08,0,0,1,1,.24,1.72,1.72,0,0,1,.49.82,2.5,2.5,0,0,1,0,1,1.52,1.52,0,0,1-.36.81,18.51,18.51,0,0,0-1.54,1.94c-.55.79-1.09,1.63-1.59,2.52a30,30,0,0,0-1.36,2.72,19.07,19.07,0,0,0-.91,2.56,5.54,5.54,0,0,0-.21,2A1.21,1.21,0,0,0,146.78,173.43Z"/><path class="cls-8" d="M70.13,144.71c-9-.26-12.35,8.39-14.57,14.12-.61,1.7-.81,3.39-1.43,5.09-.4,1.54-.4,5.4-2,6.48-4.49,3.09-4.69-7.4-5.1-9.26-.21-1.85,0-4.16-.82-6-1.63-3.09-3.67-1.55-5.1.92a39.1,39.1,0,0,0-2.32,5.27,19.41,19.41,0,0,1,2.87,4,39.69,39.69,0,0,1,2.72-6c.2,3.09-.62,6.33.4,9.41.41,1.7,1.84,4.94,3.68,6.18,3.67,2.47,4.48-.62,5.5-2.78,3.06-6.64,5.51-17.44,12.85-22.22a18.66,18.66,0,0,1,6.35-2C75.6,147.38,71.06,144.74,70.13,144.71Z"/><path class="cls-8" d="M41.8,164.79a25.76,25.76,0,0,1-.4-4.52,26.07,26.07,0,0,1,.28-3.78,7.67,7.67,0,0,0-1.39,1.72c-2,3.44-3.26,7.59-4.69,11.18a17,17,0,0,0-1.23,7c.06.42.09.78.13,1.1.12,2.06,5.44,2,5.62-.33a20,20,0,0,1,.17-6.79A23.35,23.35,0,0,1,41.8,164.79Z"/></svg>