<svg id="Camada_1" data-name="Camada 1" xmlns="http://www.w3.org/2000/svg" viewBox="0 0 479 188"><defs><style>.cls-1{stroke:#000;stroke-width:3px;}.cls-1,.cls-2{stroke-miterlimit:10;}.cls-2{fill:#fcfcfc;stroke:#fff;stroke-width:4px;}.cls-3{fill:#fff;}</style></defs><title>Prancheta 17</title><rect class="cls-1" x="239.9" width="239.12" height="188"/><rect class="cls-2" x="-0.3" width="239.12" height="188"/><path d="M172.67,80.58l0,.11s0,0,0,0a.91.91,0,0,1-.8.71,1,1,0,0,1-.91-1,.07.07,0,0,1,0,0v-.1h0v.17a.07.07,0,0,1,0,0v-.1h0v-.1c-.17-7.21,4.3-13.16,10-13.3a8.45,8.45,0,0,1,2.51.33A26.26,26.26,0,0,1,187.82,70a8.4,8.4,0,0,0,5.26,1.74c3.54-.08,6.6-2.49,8.29-6l.24-.54A.56.56,0,0,1,202,65a.7.7,0,0,1,.64.57h0c0,.12,0,.24,0,.36h0c0,.17,0,.36,0,.53.16,6.75-4,12.32-9.35,12.44a7.68,7.68,0,0,1-1.86-.18,9,9,0,0,1-4.1-2.23h0l-1.12-1.23h0a7.74,7.74,0,0,0-5.43-2.18c-3.81.09-7,3.22-8.13,7.52l0,.11s0,0,0,0"/><path d="M81.32,92.4q.27-.39.54-.24a1.23,1.23,0,0,1,.48.65,4.63,4.63,0,0,1,.27,1.2,4.33,4.33,0,0,1-.09,1.43,8.2,8.2,0,0,1-.82,2.28,5.67,5.67,0,0,1-1.34,1.65,4.07,4.07,0,0,1-3.72.85,5.94,5.94,0,0,1-2.81-1.69,17.59,17.59,0,0,1-2.52-3.27A40.88,40.88,0,0,1,69.07,91q-1.06-2.31-2-4.61T65.22,82c-.59-1.4-1.16-2.59-1.7-3.58a8.15,8.15,0,0,0-1.62-2.16,1.15,1.15,0,0,0-1.55-.13c-.11.1-.16.14-.16.13a.19.19,0,0,1,.05-.11l.12-.2a.21.21,0,0,0,0-.19c0-.05.1-.1.36-.17a8.37,8.37,0,0,1,1-.19c.4-.05.84-.09,1.32-.13s.92-.06,1.34-.07A2.28,2.28,0,0,1,65.9,76a15.6,15.6,0,0,1,1.77,2.21c.62.92,1.26,2,1.93,3.13s1.34,2.35,2,3.56,1.34,2.41,2,3.57,1.32,2.21,1.94,3.12a15.05,15.05,0,0,0,1.76,2.21,2.25,2.25,0,0,0,1.49.82,1.43,1.43,0,0,0,.73-.24,4.5,4.5,0,0,0,.75-.57,6.11,6.11,0,0,0,.64-.72A2.9,2.9,0,0,0,81.32,92.4Z"/><path d="M97.7,71.7c-.31,1-.75,2-1.3,3.3s-1.19,2.53-1.92,3.85S93,81.48,92.09,82.76a26.11,26.11,0,0,1-2.67,3.4,13.89,13.89,0,0,1-2.76,2.36,4.49,4.49,0,0,1-2.66.81,6.92,6.92,0,0,1-3.19-.87,6.69,6.69,0,0,1-2.07-1.91,8,8,0,0,1-1.13-2.47,12.59,12.59,0,0,1-.43-2.55,15.5,15.5,0,0,1,.52-5.42,16.12,16.12,0,0,1,2.07-4.58,12.07,12.07,0,0,1,3.06-3.21A6.57,6.57,0,0,1,86.33,67a4.16,4.16,0,0,1,2.24.37,3.06,3.06,0,0,1,1.19,1.11,3.09,3.09,0,0,1,.43,1.41,9.73,9.73,0,0,1,0,1.29,7.89,7.89,0,0,1-.46,2.21,9.86,9.86,0,0,1-1,1.89,11.77,11.77,0,0,1-1.28,1.58,13.52,13.52,0,0,1-1.42,1.26,16,16,0,0,1-3.78,2.18,8.63,8.63,0,0,1-1.22-1.53,2.79,2.79,0,0,1-.23-.51.47.47,0,0,1,0-.39.49.49,0,0,1,.36-.2,2.29,2.29,0,0,1,.81.07,2.84,2.84,0,0,0,2.11-.44,9.41,9.41,0,0,0,2.08-1.76,11.85,11.85,0,0,0,1.65-2.33,6.37,6.37,0,0,0,.79-2.19,1.86,1.86,0,0,0,0-.58,1.59,1.59,0,0,0-.13-.52.74.74,0,0,0-.27-.35.5.5,0,0,0-.42,0,2.32,2.32,0,0,0-1,.79,11.23,11.23,0,0,0-1.15,1.71,24,24,0,0,0-1.13,2.41,26.13,26.13,0,0,0-1,2.87,28.68,28.68,0,0,0-.71,3.11,17.64,17.64,0,0,0-.26,3.11,6.29,6.29,0,0,0,.43,2.36,1.13,1.13,0,0,0,1.35.69A5.59,5.59,0,0,0,86,86.07,10.17,10.17,0,0,0,87.7,85a12.36,12.36,0,0,0,1.71-1.58A16.53,16.53,0,0,0,91,81.31c.55-.85,1.11-1.8,1.67-2.85s1.09-2.09,1.59-3.11.93-2,1.31-2.86.68-1.56.87-2a2.52,2.52,0,0,1,.76-1.07.36.36,0,0,1,.54.07,1.51,1.51,0,0,1,.21.88A4,4,0,0,1,97.7,71.7Z"/><path d="M96.43,69.28a8.47,8.47,0,0,1,.27-2.79,6.7,6.7,0,0,1,1-2A5.77,5.77,0,0,1,99,63.17a8.12,8.12,0,0,1,1.47-.82,8.92,8.92,0,0,1,1.27-.42l.79-.18a1,1,0,0,1,.86.12,1.47,1.47,0,0,1,.54.65,1.33,1.33,0,0,1,.09.81.84.84,0,0,1-.51.61,1.43,1.43,0,0,0-.43.47,6.3,6.3,0,0,0-.58,1,9,9,0,0,0-.52,1.39,8.28,8.28,0,0,0-.27,1.58,23.76,23.76,0,0,0,.06,3.53c.12,1.34.21,2.74.3,4.2s.11,2.91.1,4.37a17.27,17.27,0,0,1-.49,4,8.11,8.11,0,0,1-1.51,3.12,5,5,0,0,1-2.94,1.7,3.59,3.59,0,0,1-2,0,3.07,3.07,0,0,1-1.38-.91,3.66,3.66,0,0,1-.75-1.53A4.79,4.79,0,0,1,93.1,85c-1-1.15,1.42-3.06,2-3.53a25.15,25.15,0,0,1,2.29-1.55l2.71-1.66c.94-.57,1.75,1.48.78,2.18S99,81.81,98.16,82.4s-1.54,1.1-2.08,1.52a5.49,5.49,0,0,0-1,1,2,2,0,0,0-.41.83.4.4,0,0,0,.21.48,1.32,1.32,0,0,0,.91-.08q.69-.22,1-1.44a14.76,14.76,0,0,0,.38-3c0-1.16,0-2.42,0-3.76s-.16-2.62-.26-3.81S96.7,71.9,96.59,71,96.43,69.54,96.43,69.28Z"/><path d="M60.11,57.3s-6.29,2.08-6,9.87c.64,11.56-3.42,12.74-4.17,13.3-5.48,3.56-7.42-2.12-7.42-2.12a7.43,7.43,0,0,0,1.21,9.49c4.18,3.57,11.33-.16,11.33-.16s6-2.62,4.88-11.51c-.22-1.63-1.74-4.23-1.9-7.31.19-7.32,3.16-9.84,3.16-9.84a.84.84,0,0,0,0-1.32A1.62,1.62,0,0,0,60.11,57.3Z"/><path d="M58.9,55l.34-.07A10.78,10.78,0,0,1,61,54.77a10.25,10.25,0,0,1,.49,20.5H61l-.12,0h-.12a.6.6,0,0,0-.51.58.61.61,0,0,0,.25.52h0l.19.09.11,0h0a13.14,13.14,0,1,0-2-22.68h0l-.43.31a.62.62,0,0,0,.49.9Z"/><path d="M109.63,55.28l.33-.08a10.9,10.9,0,0,1,1.73-.18,10.25,10.25,0,1,1,.48,20.49h-.68a.61.61,0,0,0-.26,1.09h0l.19.1.11,0h0A13,13,0,0,0,117.38,78a13.13,13.13,0,1,0-7.82-23.91h0l-.43.31a.59.59,0,0,0-.07.26A.62.62,0,0,0,109.63,55.28Z"/><path d="M161.19,82.9h0a8.11,8.11,0,0,0,1.85.15h.36a8.77,8.77,0,0,0,7.79-6.12v0h0l.32-1.49a8.23,8.23,0,0,1-.32,1.49l.32-1.49a12.57,12.57,0,0,1,.7-1.83,5.2,5.2,0,0,1,.26-.53,12.49,12.49,0,0,1,3.93-4.43c1-.65,6.45,2.4,5.09,3a12.44,12.44,0,0,0-7.31,8.4h0v0h0l-.3,1.63v0h0a10.7,10.7,0,0,1-1.37,3,10.55,10.55,0,0,1-19.37-5.55,10.38,10.38,0,0,1,.93-4.6,10.57,10.57,0,0,1,12.75-5.73l.11,0a1.09,1.09,0,0,1,.4.27,1.12,1.12,0,0,1,.3.73,1.1,1.1,0,0,1-.66,1h0c-.27,0-.54,0-.82,0h-.09a7.82,7.82,0,0,0-7.53,7.1,4.16,4.16,0,0,0,2.66,4.92h0"/><path d="M131.2,65.58q-.13-.52.21-.51a2.09,2.09,0,0,1,.93.39,8.77,8.77,0,0,1,1.28,1.06A12.25,12.25,0,0,1,134.93,68a8.33,8.33,0,0,1,1,1.74,4.13,4.13,0,0,1,.41,1.69,5.19,5.19,0,0,1-.18,1.06c-.13.53-.3,1.16-.51,1.91S135.22,76,135,76.9s-.5,1.79-.75,2.7-.46,1.77-.66,2.59-.36,1.55-.46,2.17-.18,1-.22,1.27,0,.43,0,.47.16,0,.33-.13l.7-.57a15.09,15.09,0,0,0,2.22-2.28,30.7,30.7,0,0,0,2-2.83q.94-1.5,1.74-3c.52-1,1-1.93,1.39-2.77s.72-1.55,1-2.15l.46-1.12a2.88,2.88,0,0,1,.83-1.18c.26-.15.45-.13.6.06a1.6,1.6,0,0,1,.21,1,5.34,5.34,0,0,1-.3,1.54c-.28.77-.67,1.72-1.16,2.84s-1.08,2.31-1.75,3.55-1.42,2.47-2.24,3.71a28.57,28.57,0,0,1-2.59,3.34,14.64,14.64,0,0,1-2.82,2.4,5.54,5.54,0,0,1-2.91.93,2.72,2.72,0,0,1-.85-.16,2.67,2.67,0,0,1-1-.6,3.87,3.87,0,0,1-.82-1.24,5.47,5.47,0,0,1-.36-2.06,7.56,7.56,0,0,1,.35-1.46c.23-.79.53-1.76.88-2.92s.71-2.43,1.09-3.82.68-2.78,1-4.19a39,39,0,0,0,.54-4A10.75,10.75,0,0,0,131.2,65.58Z"/><path d="M148.08,86.47a2.2,2.2,0,0,0,1.54-.48,8.33,8.33,0,0,0,1.62-1.56,20.43,20.43,0,0,0,1.63-2.3c.54-.87,1-1.76,1.54-2.68s.94-1.85,1.38-2.77.81-1.75,1.13-2.49.59-1.37.81-1.88.33-.81.37-.92a2.77,2.77,0,0,1,.78-1.1c.24-.13.42-.12.56.06a1.58,1.58,0,0,1,.21.89,4.21,4.21,0,0,1-.3,1.44,28.17,28.17,0,0,1-1,3c-.45,1.15-1,2.33-1.57,3.55s-1.25,2.44-2,3.64a28,28,0,0,1-2.21,3.23,14,14,0,0,1-2.34,2.34,4.41,4.41,0,0,1-2.31,1,4.65,4.65,0,0,1-1.39-.18,3.83,3.83,0,0,1-1.57-.88,5.66,5.66,0,0,1-1.33-1.9,9.27,9.27,0,0,1-.71-3.24,8.3,8.3,0,0,1,.11-1.59c.1-.67.23-1.39.41-2.17s.38-1.55.6-2.33.42-1.5.61-2.13.36-1.14.5-1.54a2.85,2.85,0,0,1,.24-.61h-.48a3.3,3.3,0,0,1-1.21-.33,4,4,0,0,1-1.35-1.1,4.66,4.66,0,0,1-.89-2.32,13.46,13.46,0,0,1,0-1.7c1-6.65,6.86-3.71,5.93-2.28-.7,1.47-.78,1.65-1.24,2.54l2.34-.88,1.84-.68a9.09,9.09,0,0,1,1.42-.43.93.93,0,0,1,1,.31,2.54,2.54,0,0,1,.49,1.09,4.34,4.34,0,0,1,0,1.35,2.36,2.36,0,0,1-.36,1.07,23.81,23.81,0,0,0-1.54,2.56c-.56,1-1.09,2.16-1.59,3.33s-1,2.38-1.36,3.6a29.84,29.84,0,0,0-.91,3.38,9.17,9.17,0,0,0-.21,2.65A1.65,1.65,0,0,0,148.08,86.47Z"/><path d="M133.7,56.67c-3.47.7-.54,8.85,3.89,6.63,3.68-1.95-1.27-11.67-4.14-6.5"/><path d="M112.29,57.7a1.62,1.62,0,0,0-1.09-.4s-6.29,2.08-6,9.87c.64,11.56-3.42,12.74-4.17,13.3-.29.19-.57.35-.83.49a6.85,6.85,0,0,1-1.33.52,2.42,2.42,0,0,1,.89,1.79c0,1.49-3.15,5.7-2.16,5.92,4,.87,8.56-1.51,8.56-1.51s6-2.62,4.87-11.51c-.22-1.63-1.74-4.23-1.9-7.31.19-7.32,3.16-9.84,3.16-9.84A.84.84,0,0,0,112.29,57.7Z"/><path d="M178,126.76a.36.36,0,0,0,0,.1,0,0,0,0,1,0,0,.91.91,0,0,1-.81.71,1,1,0,0,1-.91-1v-.06s0,0,0-.05,0,0,0,0,0,0,0,0,0,0,0,0h0v.11a.27.27,0,0,1,0-.09h0s0,0,0,0h0a.38.38,0,0,1,0-.1c-.17-7.22,4.31-13.17,10-13.3a8.33,8.33,0,0,1,2.5.32,26.38,26.38,0,0,1,4.42,2.82,8.51,8.51,0,0,0,5.26,1.74c3.53-.09,6.59-2.49,8.28-6.06l.24-.53a.59.59,0,0,1,.38-.18.7.7,0,0,1,.64.58h0c0,.13,0,.25,0,.37h0l0,.54c.15,6.75-4,12.31-9.36,12.44a7.73,7.73,0,0,1-1.86-.19,8.75,8.75,0,0,1-4.09-2.23h0l-1.12-1.23h0a7.63,7.63,0,0,0-5.42-2.18c-3.81.09-7,3.21-8.14,7.52a.36.36,0,0,0,0,.1,0,0,0,0,1,0,0"/><path d="M117,103.46s-6.3,2.07-6,9.87c.64,11.56-3.43,12.73-4.17,13.29-5.49,3.56-7.42-2.12-7.42-2.12a7.44,7.44,0,0,0,1.2,9.49c4.19,3.57,11.34-.16,11.34-.16s6-2.62,4.87-11.51c-.22-1.63-1.73-4.23-1.89-7.31.19-7.31,3.16-9.83,3.16-9.83a.85.85,0,0,0,0-1.33A1.59,1.59,0,0,0,117,103.46Z"/><path d="M70.62,128.66h0a9,9,0,0,0,1.82.36l.35,0h0a8.78,8.78,0,0,0,8.44-5.19v0h0l.49-1.45a8.52,8.52,0,0,1-.49,1.45l.49-1.45a12.87,12.87,0,0,1,.9-1.73c.1-.17.21-.34.32-.5a12.31,12.31,0,0,1,4.42-3.94c1-.55,6.13,3.12,4.71,3.52a12.41,12.41,0,0,0-8.22,7.5h0v0h0l-.47,1.59v0h0a10.31,10.31,0,0,1-1.7,2.86,10.56,10.56,0,1,1-7.14-17.28,10.36,10.36,0,0,1,3.3.86l.11,0a1.08,1.08,0,0,1,.36.31,1.12,1.12,0,0,1,.22.76,1.11,1.11,0,0,1-.78,1h0a7.5,7.5,0,0,0-.81-.11h-.1a7.83,7.83,0,0,0-8.29,6.2,4.25,4.25,0,0,0-.25,1.08,4.13,4.13,0,0,0,2.33,4.1h0"/><path d="M96.19,121.58h0a8.93,8.93,0,0,0-1.79-.49l-.35,0h0a8.76,8.76,0,0,0-8.77,4.6v0h0l-.59,1.41a7.35,7.35,0,0,1,.59-1.41l-.59,1.41a12.84,12.84,0,0,1-1,1.67c-.11.16-.23.32-.35.47a12.33,12.33,0,0,1-4.68,3.63c-1.05.48-5.9-3.53-4.46-3.83a12.42,12.42,0,0,0,8.71-6.93h0s0,0,0,0h0l.59-1.56h0v0a10.56,10.56,0,1,1,7.84,15,10,10,0,0,1-3.23-1.08.39.39,0,0,1-.11-.06,1,1,0,0,1-.34-.33,1.1,1.1,0,0,1,.68-1.67h0a7.1,7.1,0,0,0,.8.17h.09a7.83,7.83,0,0,0,8.7-5.61,4.2,4.2,0,0,0,.32-1.06,4.13,4.13,0,0,0-2-4.26h0"/><path d="M68.32,108.88s.61-1,.87-1.33a9.73,9.73,0,0,1,14.68-.84h0l1,1.25h0A10.53,10.53,0,0,0,89,110.63a11.48,11.48,0,0,0,2,.5,10.58,10.58,0,0,0,12-8.88l.06-.46h0l0-.31h0a.71.71,0,0,0-.6-.6.67.67,0,0,0-.44.07c-.11.15-.22.28-.34.42a11,11,0,0,1-15.31,1.19,29.47,29.47,0,0,0-4.34-3.21,11.74,11.74,0,0,0-2.66-.73,11.3,11.3,0,0,0-12.86,9.49.28.28,0,0,1,0,.09h0a.28.28,0,0,0,0,.09.06.06,0,0,0,0,0l0-.14h0s0,0,0,0v.06a.06.06,0,0,0,0,0c0,.5,1.86.49,1.87.46"/><path d="M136.9,111.76q-.14-.53.21-.51a1.9,1.9,0,0,1,.93.38,8.27,8.27,0,0,1,1.28,1.06,13.91,13.91,0,0,1,1.31,1.52,9.14,9.14,0,0,1,1,1.74,4.53,4.53,0,0,1,.41,1.69,5.47,5.47,0,0,1-.19,1.06q-.19.8-.51,1.92c-.21.75-.45,1.57-.7,2.46s-.51,1.79-.76,2.69-.46,1.77-.66,2.6-.36,1.54-.46,2.16-.18,1-.22,1.27,0,.44,0,.48.17,0,.33-.14l.7-.56a14.62,14.62,0,0,0,2.22-2.28,30.86,30.86,0,0,0,2-2.84q.94-1.48,1.74-3c.53-1,1-1.92,1.39-2.76s.72-1.56,1-2.15.4-1,.47-1.13a2.7,2.7,0,0,1,.83-1.18.42.42,0,0,1,.59.06,1.66,1.66,0,0,1,.21,1,5.28,5.28,0,0,1-.3,1.53c-.28.78-.67,1.72-1.16,2.85s-1.08,2.31-1.75,3.54-1.42,2.48-2.24,3.71a28.57,28.57,0,0,1-2.59,3.34,13.7,13.7,0,0,1-2.82,2.4,5.54,5.54,0,0,1-2.9.93,3,3,0,0,1-.86-.15,2.54,2.54,0,0,1-1-.61,3.77,3.77,0,0,1-.83-1.24,5.44,5.44,0,0,1-.36-2.06,8.48,8.48,0,0,1,.35-1.45l.88-2.93c.35-1.15.72-2.42,1.09-3.81s.69-2.79.95-4.2a38.81,38.81,0,0,0,.54-4A10.42,10.42,0,0,0,136.9,111.76Z"/><path d="M139.4,102.85c-3.47.7-.54,8.84,3.89,6.62,3.68-2-1.27-11.66-4.14-6.49"/><path d="M115.32,101.43l.34-.07a10.78,10.78,0,0,1,1.72-.19,10.25,10.25,0,0,1,.49,20.5h-.45l-.11,0h-.12a.6.6,0,0,0-.51.58.58.58,0,0,0,.25.51h0l.19.09.11.05h0a13.14,13.14,0,1,0-2-22.68h0l-.43.31a.6.6,0,0,0-.07.27A.59.59,0,0,0,115.32,101.43Z"/><path d="M166.51,129.07h0a9.31,9.31,0,0,0,1.85.15l.34,0h0a8.74,8.74,0,0,0,7.79-6.11v0h0l.33-1.5a9.55,9.55,0,0,1-.33,1.5l.33-1.5a11.86,11.86,0,0,1,.69-1.83l.26-.52a12.35,12.35,0,0,1,3.94-4.43c.95-.65,6.45,2.4,5.08,3a12.41,12.41,0,0,0-7.3,8.39h0v0h0l-.29,1.64h0v0a10.26,10.26,0,0,1-1.37,3,10.55,10.55,0,0,1-19.37-5.55,10.42,10.42,0,0,1,.94-4.6A10.56,10.56,0,0,1,172.15,115l.12,0a1.16,1.16,0,0,1,.39.26,1.11,1.11,0,0,1-.36,1.77h0a7.42,7.42,0,0,0-.82,0h-.09a7.82,7.82,0,0,0-7.54,7.1,4.42,4.42,0,0,0-.12,1.1,4.13,4.13,0,0,0,2.78,3.81h0"/><path d="M153.78,132.64a2.19,2.19,0,0,0,1.54-.48,8.55,8.55,0,0,0,1.62-1.55,21,21,0,0,0,1.63-2.3c.54-.87,1.05-1.77,1.54-2.69s.94-1.84,1.38-2.76.81-1.76,1.14-2.5.59-1.37.8-1.88.34-.81.37-.91a2.62,2.62,0,0,1,.78-1.1c.24-.14.42-.12.56,0a1.65,1.65,0,0,1,.21.9,4.21,4.21,0,0,1-.3,1.44,29.76,29.76,0,0,1-1,3c-.45,1.14-1,2.33-1.57,3.55s-1.25,2.43-2,3.63a28,28,0,0,1-2.21,3.23,12.93,12.93,0,0,1-2.34,2.34,4.33,4.33,0,0,1-2.31,1,4.64,4.64,0,0,1-1.39-.17,4,4,0,0,1-1.57-.88,5.71,5.71,0,0,1-1.33-1.91,9.27,9.27,0,0,1-.71-3.24,8.35,8.35,0,0,1,.11-1.59c.1-.67.24-1.39.41-2.16s.38-1.55.6-2.34.42-1.49.61-2.12.36-1.15.5-1.55a2.59,2.59,0,0,1,.24-.6,3.52,3.52,0,0,0-.48,0,2.94,2.94,0,0,1-1.21-.33,4,4,0,0,1-1.35-1.09,4.74,4.74,0,0,1-.89-2.33,13,13,0,0,1,0-1.7c1-6.64,6.85-3.7,5.92-2.28-.7,1.48-.78,1.66-1.24,2.55l2.34-.89,1.84-.68a12,12,0,0,1,1.42-.43.93.93,0,0,1,1,.32,2.48,2.48,0,0,1,.49,1.09,4.28,4.28,0,0,1,0,1.34,2.32,2.32,0,0,1-.36,1.07,24.85,24.85,0,0,0-1.54,2.56c-.55,1-1.09,2.16-1.59,3.34s-1,2.38-1.36,3.59a30.41,30.41,0,0,0-.91,3.38,9.61,9.61,0,0,0-.21,2.66A1.63,1.63,0,0,0,153.78,132.64Z"/><path d="M77.13,94.69c-9-.35-12.35,11.08-14.57,18.65-.61,2.25-.81,4.49-1.43,6.73-.4,2-.4,7.14-2,8.57-4.49,4.08-4.69-9.79-5.1-12.24-.21-2.44,0-5.5-.82-8-1.63-4.08-3.67-2-5.1,1.22a61.71,61.71,0,0,0-2.32,7,26.83,26.83,0,0,1,2.87,5.22A61.61,61.61,0,0,1,51.35,114c.2,4.07-.62,8.36.4,12.43.41,2.25,1.84,6.53,3.68,8.16,3.67,3.27,4.48-.81,5.5-3.67,3.06-8.77,5.51-23,12.85-29.36,1.59-1.34,4.08-2.08,6.35-2.59C82.6,98.21,78.06,94.73,77.13,94.69Z"/><path d="M48.8,121.23a44.77,44.77,0,0,1-.12-11,10.18,10.18,0,0,0-1.39,2.26c-2,4.55-3.26,10-4.69,14.78a29.07,29.07,0,0,0-1.23,9.28c.06.56.09,1,.13,1.46.12,2.71,5.44,2.66,5.62-.45a34.8,34.8,0,0,1,.17-9A38.62,38.62,0,0,1,48.8,121.23Z"/><path class="cls-3" d="M407.67,74.58l0,.11s0,0,0,0a.91.91,0,0,1-.8.71,1,1,0,0,1-.91-1,.07.07,0,0,1,0,0v-.1h0v.17a.07.07,0,0,1,0,0v-.1h0v-.1c-.17-7.21,4.3-13.16,10-13.3a8.45,8.45,0,0,1,2.51.33A26.26,26.26,0,0,1,422.82,64a8.4,8.4,0,0,0,5.26,1.74c3.54-.08,6.6-2.49,8.29-6.05l.24-.54A.56.56,0,0,1,437,59a.7.7,0,0,1,.64.57h0c0,.12,0,.24,0,.36h0c0,.17,0,.36,0,.53.16,6.75-4,12.32-9.35,12.44a7.68,7.68,0,0,1-1.86-.18,9,9,0,0,1-4.1-2.23h0l-1.12-1.23h0a7.74,7.74,0,0,0-5.43-2.18c-3.81.09-7,3.22-8.13,7.52l0,.11s0,0,0,0"/><path class="cls-3" d="M316.32,86.4q.27-.39.54-.24a1.23,1.23,0,0,1,.48.65,4.63,4.63,0,0,1,.27,1.2,4.33,4.33,0,0,1-.09,1.43,8.2,8.2,0,0,1-.82,2.28,5.67,5.67,0,0,1-1.34,1.65,4.07,4.07,0,0,1-3.72.85,5.94,5.94,0,0,1-2.81-1.69,17.59,17.59,0,0,1-2.52-3.27A40.88,40.88,0,0,1,304.07,85q-1.06-2.31-2-4.61T300.22,76c-.59-1.4-1.16-2.59-1.7-3.58a8.15,8.15,0,0,0-1.62-2.16,1.15,1.15,0,0,0-1.55-.13c-.11.1-.16.14-.16.13a.19.19,0,0,1,.05-.11l.12-.2a.21.21,0,0,0,0-.19c0-.05.1-.1.36-.17a8.37,8.37,0,0,1,1-.19c.4-.05.84-.09,1.32-.13s.92-.06,1.34-.07a2.28,2.28,0,0,1,1.49.82,15.6,15.6,0,0,1,1.77,2.21c.62.92,1.26,2,1.93,3.13s1.34,2.35,2,3.56,1.34,2.41,2,3.57,1.32,2.21,1.94,3.12a15.05,15.05,0,0,0,1.76,2.21,2.25,2.25,0,0,0,1.49.82,1.43,1.43,0,0,0,.73-.24,4.5,4.5,0,0,0,.75-.57,6.11,6.11,0,0,0,.64-.72A2.9,2.9,0,0,0,316.32,86.4Z"/><path class="cls-3" d="M332.7,65.7c-.31,1-.75,2-1.3,3.3s-1.19,2.53-1.92,3.85-1.53,2.63-2.39,3.91a26.11,26.11,0,0,1-2.67,3.4,13.89,13.89,0,0,1-2.76,2.36,4.49,4.49,0,0,1-2.66.81,6.92,6.92,0,0,1-3.19-.87,6.69,6.69,0,0,1-2.07-1.91,8,8,0,0,1-1.13-2.47,12.59,12.59,0,0,1-.43-2.55,15.5,15.5,0,0,1,.52-5.42,16.12,16.12,0,0,1,2.07-4.58,12.07,12.07,0,0,1,3.06-3.21,6.57,6.57,0,0,1,3.5-1.28,4.16,4.16,0,0,1,2.24.37,3.06,3.06,0,0,1,1.19,1.11,3.09,3.09,0,0,1,.43,1.41,9.73,9.73,0,0,1,0,1.29,7.89,7.89,0,0,1-.46,2.21,9.86,9.86,0,0,1-1,1.89,11.77,11.77,0,0,1-1.28,1.58,13.52,13.52,0,0,1-1.42,1.26,16,16,0,0,1-3.78,2.18,8.63,8.63,0,0,1-1.22-1.53,2.79,2.79,0,0,1-.23-.51.47.47,0,0,1,0-.39.49.49,0,0,1,.36-.2,2.29,2.29,0,0,1,.81.07,2.84,2.84,0,0,0,2.11-.44,9.41,9.41,0,0,0,2.08-1.76,11.85,11.85,0,0,0,1.65-2.33,6.37,6.37,0,0,0,.79-2.19,1.86,1.86,0,0,0,0-.58,1.59,1.59,0,0,0-.13-.52.74.74,0,0,0-.27-.35.5.5,0,0,0-.42,0,2.32,2.32,0,0,0-1,.79,11.23,11.23,0,0,0-1.15,1.71,24,24,0,0,0-1.13,2.41,26.13,26.13,0,0,0-1,2.87,28.68,28.68,0,0,0-.71,3.11,17.64,17.64,0,0,0-.26,3.11,6.29,6.29,0,0,0,.43,2.36,1.13,1.13,0,0,0,1.35.69,5.59,5.59,0,0,0,1.56-.54A10.17,10.17,0,0,0,322.7,79a12.36,12.36,0,0,0,1.71-1.58A16.53,16.53,0,0,0,326,75.31c.55-.85,1.11-1.8,1.67-2.85s1.09-2.09,1.59-3.11.93-2,1.31-2.86.68-1.56.87-2a2.52,2.52,0,0,1,.76-1.07.36.36,0,0,1,.54.07,1.51,1.51,0,0,1,.21.88A4,4,0,0,1,332.7,65.7Z"/><path class="cls-3" d="M331.43,63.28a8.47,8.47,0,0,1,.27-2.79,6.7,6.7,0,0,1,1-2A5.77,5.77,0,0,1,334,57.17a8.12,8.12,0,0,1,1.47-.82,8.92,8.92,0,0,1,1.27-.42l.79-.18a1,1,0,0,1,.86.12,1.47,1.47,0,0,1,.54.65,1.33,1.33,0,0,1,.09.81.84.84,0,0,1-.51.61,1.43,1.43,0,0,0-.43.47,6.3,6.3,0,0,0-.58,1,9,9,0,0,0-.52,1.39,8.28,8.28,0,0,0-.27,1.58,23.76,23.76,0,0,0,.06,3.53c.12,1.34.21,2.74.3,4.2s.11,2.91.1,4.37a17.27,17.27,0,0,1-.49,4,8.11,8.11,0,0,1-1.51,3.12,5,5,0,0,1-2.94,1.7,3.59,3.59,0,0,1-2,0,3.07,3.07,0,0,1-1.38-.91,3.66,3.66,0,0,1-.75-1.53A4.79,4.79,0,0,1,328.1,79c-1-1.15,1.42-3.06,2-3.53a25.15,25.15,0,0,1,2.29-1.55l2.71-1.66c.94-.57,1.75,1.48.78,2.18s-1.89,1.35-2.74,1.94-1.54,1.1-2.08,1.52a5.49,5.49,0,0,0-1,1,2,2,0,0,0-.41.83.4.4,0,0,0,.21.48,1.32,1.32,0,0,0,.91-.08q.69-.22,1-1.44a14.76,14.76,0,0,0,.38-3c.05-1.16,0-2.42,0-3.76s-.16-2.62-.26-3.81-.21-2.24-.32-3.13S331.43,63.54,331.43,63.28Z"/><path class="cls-3" d="M295.11,51.3s-6.29,2.08-6,9.87c.64,11.56-3.42,12.74-4.17,13.3-5.48,3.56-7.42-2.12-7.42-2.12a7.43,7.43,0,0,0,1.21,9.49c4.18,3.57,11.33-.16,11.33-.16s6-2.62,4.88-11.51c-.22-1.63-1.74-4.23-1.9-7.31.19-7.32,3.16-9.84,3.16-9.84a.84.84,0,0,0,0-1.32A1.62,1.62,0,0,0,295.11,51.3Z"/><path class="cls-3" d="M293.9,49l.34-.07a10.78,10.78,0,0,1,1.72-.19,10.25,10.25,0,0,1,.49,20.5H296l-.12,0h-.12a.6.6,0,0,0-.51.58.61.61,0,0,0,.25.52h0l.19.09.11,0h0a13.14,13.14,0,1,0-2-22.68h0l-.43.31a.62.62,0,0,0,.49.9Z"/><path class="cls-3" d="M344.63,49.28l.33-.08a10.9,10.9,0,0,1,1.73-.18,10.25,10.25,0,1,1,.48,20.49h-.68a.61.61,0,0,0-.26,1.09h0l.19.1.11,0h0A13,13,0,0,0,352.38,72a13.13,13.13,0,1,0-7.82-23.91h0l-.43.31a.59.59,0,0,0-.07.26A.62.62,0,0,0,344.63,49.28Z"/><path class="cls-3" d="M396.19,76.9h0a8.11,8.11,0,0,0,1.85.15h.36a8.77,8.77,0,0,0,7.79-6.12v0h0l.32-1.49a8.23,8.23,0,0,1-.32,1.49l.32-1.49a12.57,12.57,0,0,1,.7-1.83,5.2,5.2,0,0,1,.26-.53,12.49,12.49,0,0,1,3.93-4.43c.95-.65,6.45,2.4,5.09,3a12.44,12.44,0,0,0-7.31,8.4h0v0h0l-.3,1.63v0h0a10.7,10.7,0,0,1-1.37,3,10.55,10.55,0,0,1-19.37-5.55,10.38,10.38,0,0,1,.93-4.6,10.57,10.57,0,0,1,12.75-5.73l.11,0a1.09,1.09,0,0,1,.4.27,1.12,1.12,0,0,1,.3.73,1.1,1.1,0,0,1-.66,1h0c-.27,0-.54,0-.82,0h-.09a7.82,7.82,0,0,0-7.53,7.1,4.16,4.16,0,0,0,2.66,4.92h0"/><path class="cls-3" d="M366.2,59.58q-.13-.53.21-.51a2.09,2.09,0,0,1,.93.39,8.77,8.77,0,0,1,1.28,1.06A12.25,12.25,0,0,1,369.93,62a8.33,8.33,0,0,1,1,1.74,4.13,4.13,0,0,1,.41,1.69,5.19,5.19,0,0,1-.18,1.06c-.13.53-.3,1.16-.51,1.91S370.22,70,370,70.9s-.5,1.79-.75,2.7-.46,1.77-.66,2.59-.36,1.55-.46,2.17-.18,1-.22,1.27,0,.43,0,.47.16,0,.33-.13l.7-.57a15.09,15.09,0,0,0,2.22-2.28,30.7,30.7,0,0,0,2-2.83q.94-1.5,1.74-3c.52-1,1-1.93,1.39-2.77s.72-1.55,1-2.15l.46-1.12a2.88,2.88,0,0,1,.83-1.18c.26-.15.45-.13.6.06a1.6,1.6,0,0,1,.21,1,5.34,5.34,0,0,1-.3,1.54c-.28.77-.67,1.72-1.16,2.84s-1.08,2.31-1.75,3.55-1.42,2.47-2.24,3.71a28.57,28.57,0,0,1-2.59,3.34,14.64,14.64,0,0,1-2.82,2.4,5.54,5.54,0,0,1-2.91.93,2.72,2.72,0,0,1-.85-.16,2.67,2.67,0,0,1-1-.6,3.87,3.87,0,0,1-.82-1.24,5.47,5.47,0,0,1-.36-2.06,7.56,7.56,0,0,1,.35-1.46c.23-.79.53-1.76.88-2.92s.71-2.43,1.09-3.82.68-2.78.95-4.19a39,39,0,0,0,.54-4A10.75,10.75,0,0,0,366.2,59.58Z"/><path class="cls-3" d="M383.08,80.47a2.2,2.2,0,0,0,1.54-.48,8.33,8.33,0,0,0,1.62-1.56,20.43,20.43,0,0,0,1.63-2.3c.54-.87,1.05-1.76,1.54-2.68s.94-1.85,1.38-2.77.81-1.75,1.13-2.49.59-1.37.81-1.88.33-.81.37-.92a2.77,2.77,0,0,1,.78-1.1c.24-.13.42-.12.56.06a1.58,1.58,0,0,1,.21.89,4.21,4.21,0,0,1-.3,1.44,28.17,28.17,0,0,1-1,3c-.45,1.15-1,2.33-1.57,3.55s-1.25,2.44-2,3.64a28,28,0,0,1-2.21,3.23,14,14,0,0,1-2.34,2.34,4.41,4.41,0,0,1-2.31,1,4.65,4.65,0,0,1-1.39-.18,3.83,3.83,0,0,1-1.57-.88,5.66,5.66,0,0,1-1.33-1.9,9.27,9.27,0,0,1-.71-3.24,8.3,8.3,0,0,1,.11-1.59c.1-.67.23-1.39.41-2.17s.38-1.55.6-2.33.42-1.5.61-2.13.36-1.14.5-1.54a2.85,2.85,0,0,1,.24-.61h-.48a3.3,3.3,0,0,1-1.21-.33,4,4,0,0,1-1.35-1.1,4.66,4.66,0,0,1-.89-2.32,13.46,13.46,0,0,1,0-1.7c1-6.65,6.86-3.71,5.93-2.28-.7,1.47-.78,1.65-1.24,2.54l2.34-.88,1.84-.68a9.09,9.09,0,0,1,1.42-.43.93.93,0,0,1,1,.31,2.54,2.54,0,0,1,.49,1.09,4.34,4.34,0,0,1,0,1.35,2.36,2.36,0,0,1-.36,1.07,23.81,23.81,0,0,0-1.54,2.56c-.56,1-1.09,2.16-1.59,3.33s-1,2.38-1.36,3.6a29.84,29.84,0,0,0-.91,3.38,9.17,9.17,0,0,0-.21,2.65A1.65,1.65,0,0,0,383.08,80.47Z"/><path class="cls-3" d="M368.7,50.67c-3.47.7-.54,8.85,3.89,6.63,3.68-1.95-1.27-11.67-4.14-6.5"/><path class="cls-3" d="M347.29,51.7a1.62,1.62,0,0,0-1.09-.4s-6.29,2.08-6,9.87c.64,11.56-3.42,12.74-4.17,13.3-.29.19-.57.35-.83.49a6.85,6.85,0,0,1-1.33.52,2.42,2.42,0,0,1,.89,1.79c0,1.49-3.15,5.7-2.16,5.92,4,.87,8.56-1.51,8.56-1.51s6-2.62,4.87-11.51c-.22-1.63-1.74-4.23-1.9-7.31.19-7.32,3.16-9.84,3.16-9.84A.84.84,0,0,0,347.29,51.7Z"/><path class="cls-3" d="M413,120.76a.36.36,0,0,0,0,.1,0,0,0,0,1,0,0,.91.91,0,0,1-.81.71,1,1,0,0,1-.91-1v-.06s0,0,0-.05,0,0,0,0,0,0,0,0,0,0,0,0h0v.11a.27.27,0,0,1,0-.09h0s0,0,0,0h0a.38.38,0,0,1,0-.1c-.17-7.22,4.31-13.17,10-13.3a8.33,8.33,0,0,1,2.5.32,26.38,26.38,0,0,1,4.42,2.82,8.51,8.51,0,0,0,5.26,1.74c3.53-.09,6.59-2.49,8.28-6.06l.24-.53a.59.59,0,0,1,.38-.18.7.7,0,0,1,.64.58h0c0,.13,0,.25,0,.37h0l0,.54c.15,6.75-4,12.31-9.36,12.44a7.73,7.73,0,0,1-1.86-.19,8.75,8.75,0,0,1-4.09-2.23h0l-1.12-1.23h0a7.63,7.63,0,0,0-5.42-2.18c-3.81.09-7,3.21-8.14,7.52a.36.36,0,0,0,0,.1,0,0,0,0,1,0,0"/><path class="cls-3" d="M352,97.46s-6.3,2.07-6,9.87c.64,11.56-3.43,12.73-4.17,13.29-5.49,3.56-7.42-2.12-7.42-2.12a7.44,7.44,0,0,0,1.2,9.49c4.19,3.57,11.34-.16,11.34-.16s6-2.62,4.87-11.51c-.22-1.63-1.73-4.23-1.89-7.31.19-7.31,3.16-9.83,3.16-9.83a.85.85,0,0,0,0-1.33A1.59,1.59,0,0,0,352,97.46Z"/><path class="cls-3" d="M305.62,122.66h0a9,9,0,0,0,1.82.36l.35,0h0a8.78,8.78,0,0,0,8.44-5.19v0h0l.49-1.45a8.52,8.52,0,0,1-.49,1.45l.49-1.45a12.87,12.87,0,0,1,.9-1.73c.1-.17.21-.34.32-.5a12.31,12.31,0,0,1,4.42-3.94c1-.55,6.13,3.12,4.71,3.52a12.41,12.41,0,0,0-8.22,7.5h0v0h0l-.47,1.59v0h0a10.31,10.31,0,0,1-1.7,2.86,10.56,10.56,0,1,1-7.14-17.28,10.36,10.36,0,0,1,3.3.86l.11,0a1.08,1.08,0,0,1,.36.31,1.12,1.12,0,0,1,.22.76,1.11,1.11,0,0,1-.78,1h0a7.5,7.5,0,0,0-.81-.11h-.1a7.83,7.83,0,0,0-8.29,6.2,4.25,4.25,0,0,0-.25,1.08,4.13,4.13,0,0,0,2.33,4.1h0"/><path class="cls-3" d="M331.19,115.58h0a8.93,8.93,0,0,0-1.79-.49l-.35,0h0a8.76,8.76,0,0,0-8.77,4.6v0h0l-.59,1.41a7.35,7.35,0,0,1,.59-1.41l-.59,1.41a12.84,12.84,0,0,1-1,1.67c-.11.16-.23.32-.35.47a12.33,12.33,0,0,1-4.68,3.63c-1.05.48-5.9-3.53-4.46-3.83a12.42,12.42,0,0,0,8.71-6.93h0s0,0,0,0h0l.59-1.56h0v0a10.56,10.56,0,1,1,7.84,15,10,10,0,0,1-3.23-1.08.39.39,0,0,1-.11-.06,1,1,0,0,1-.34-.33,1.1,1.1,0,0,1,.68-1.67h0a7.1,7.1,0,0,0,.8.17h.09a7.83,7.83,0,0,0,8.7-5.61,4.2,4.2,0,0,0,.32-1.06,4.13,4.13,0,0,0-2-4.26h0"/><path class="cls-3" d="M303.32,102.88s.61-1,.87-1.33a9.73,9.73,0,0,1,14.68-.84h0l1,1.25h0a10.53,10.53,0,0,0,4.09,2.65,11.48,11.48,0,0,0,2,.5,10.58,10.58,0,0,0,12-8.88l.06-.46h0l0-.31h0a.71.71,0,0,0-.6-.6.67.67,0,0,0-.44.07c-.11.15-.22.28-.34.42a11,11,0,0,1-15.31,1.19,29.47,29.47,0,0,0-4.34-3.21,11.74,11.74,0,0,0-2.66-.73,11.3,11.3,0,0,0-12.86,9.49.28.28,0,0,1,0,.09h0a.28.28,0,0,0,0,.09.06.06,0,0,0,0,0l0-.14h0s0,0,0,0v.06a.06.06,0,0,0,0,0c0,.5,1.86.49,1.87.46"/><path class="cls-3" d="M371.9,105.76q-.13-.53.21-.51a1.9,1.9,0,0,1,.93.38,8.27,8.27,0,0,1,1.28,1.06,13.91,13.91,0,0,1,1.31,1.52,9.14,9.14,0,0,1,1,1.74,4.53,4.53,0,0,1,.41,1.69,5.47,5.47,0,0,1-.19,1.06q-.19.8-.51,1.92c-.21.75-.45,1.57-.7,2.46s-.51,1.79-.76,2.69-.46,1.77-.66,2.6-.36,1.54-.46,2.16-.18,1-.22,1.27,0,.44,0,.48.17,0,.33-.14l.7-.56a14.62,14.62,0,0,0,2.22-2.28,30.86,30.86,0,0,0,2-2.84q.94-1.48,1.74-3c.53-1,1-1.92,1.39-2.76s.72-1.56,1-2.15.4-1,.47-1.13a2.7,2.7,0,0,1,.83-1.18.42.42,0,0,1,.59.06,1.66,1.66,0,0,1,.21,1,5.28,5.28,0,0,1-.3,1.53c-.28.78-.67,1.72-1.16,2.85s-1.08,2.31-1.75,3.54-1.42,2.48-2.24,3.71a28.57,28.57,0,0,1-2.59,3.34,13.7,13.7,0,0,1-2.82,2.4,5.54,5.54,0,0,1-2.9.93,3,3,0,0,1-.86-.15,2.54,2.54,0,0,1-1-.61,3.77,3.77,0,0,1-.83-1.24,5.44,5.44,0,0,1-.36-2.06,8.48,8.48,0,0,1,.35-1.45l.88-2.93c.35-1.15.72-2.42,1.09-3.81s.69-2.79.95-4.2a38.81,38.81,0,0,0,.54-4A10.42,10.42,0,0,0,371.9,105.76Z"/><path class="cls-3" d="M374.4,96.85c-3.47.7-.54,8.84,3.89,6.62,3.68-2-1.27-11.66-4.14-6.49"/><path class="cls-3" d="M350.32,95.43l.34-.07a10.78,10.78,0,0,1,1.72-.19,10.25,10.25,0,0,1,.49,20.5h-.45l-.11,0h-.12a.6.6,0,0,0-.51.58.58.58,0,0,0,.25.51h0l.19.09.11.05h0a13.14,13.14,0,1,0-2-22.68h0l-.43.31a.6.6,0,0,0-.07.27A.59.59,0,0,0,350.32,95.43Z"/><path class="cls-3" d="M401.51,123.07h0a9.31,9.31,0,0,0,1.85.15l.34,0h0a8.74,8.74,0,0,0,7.79-6.11v0h0l.33-1.5a9.55,9.55,0,0,1-.33,1.5l.33-1.5a11.86,11.86,0,0,1,.69-1.83c.08-.17.17-.35.26-.52a12.35,12.35,0,0,1,3.94-4.43c.95-.65,6.45,2.4,5.08,3a12.41,12.41,0,0,0-7.3,8.39h0v0h0l-.29,1.64h0v0a10.26,10.26,0,0,1-1.37,3,10.55,10.55,0,0,1-19.37-5.55,10.42,10.42,0,0,1,.94-4.6A10.56,10.56,0,0,1,407.15,109l.12,0a1.16,1.16,0,0,1,.39.26,1.11,1.11,0,0,1-.36,1.77h0a7.42,7.42,0,0,0-.82,0h-.09a7.82,7.82,0,0,0-7.54,7.1,4.42,4.42,0,0,0-.12,1.1,4.13,4.13,0,0,0,2.78,3.81h0"/><path class="cls-3" d="M388.78,126.64a2.19,2.19,0,0,0,1.54-.48,8.55,8.55,0,0,0,1.62-1.55,21,21,0,0,0,1.63-2.3c.54-.87,1.05-1.77,1.54-2.69s.94-1.84,1.38-2.76.81-1.76,1.14-2.5.59-1.37.8-1.88.34-.81.37-.91a2.62,2.62,0,0,1,.78-1.1c.24-.14.42-.12.56,0a1.65,1.65,0,0,1,.21.9,4.21,4.21,0,0,1-.3,1.44,29.76,29.76,0,0,1-1,3c-.45,1.14-1,2.33-1.57,3.55s-1.25,2.43-2,3.63a28,28,0,0,1-2.21,3.23,12.93,12.93,0,0,1-2.34,2.34,4.33,4.33,0,0,1-2.31,1,4.64,4.64,0,0,1-1.39-.17,4,4,0,0,1-1.57-.88,5.71,5.71,0,0,1-1.33-1.91,9.27,9.27,0,0,1-.71-3.24,8.35,8.35,0,0,1,.11-1.59c.1-.67.24-1.39.41-2.16s.38-1.55.6-2.34.42-1.49.61-2.12.36-1.15.5-1.55a2.59,2.59,0,0,1,.24-.6,3.52,3.52,0,0,0-.48,0,2.94,2.94,0,0,1-1.21-.33,4,4,0,0,1-1.35-1.09,4.74,4.74,0,0,1-.89-2.33,13,13,0,0,1,0-1.7c1-6.64,6.85-3.7,5.92-2.28-.7,1.48-.78,1.66-1.24,2.55l2.34-.89,1.84-.68a12,12,0,0,1,1.42-.43.93.93,0,0,1,1,.32,2.48,2.48,0,0,1,.49,1.09,4.28,4.28,0,0,1,0,1.34,2.32,2.32,0,0,1-.36,1.07,24.85,24.85,0,0,0-1.54,2.56c-.55,1-1.09,2.16-1.59,3.34s-1,2.38-1.36,3.59a30.41,30.41,0,0,0-.91,3.38,9.61,9.61,0,0,0-.21,2.66A1.63,1.63,0,0,0,388.78,126.64Z"/><path class="cls-3" d="M312.13,88.69c-9-.35-12.35,11.08-14.57,18.65-.61,2.25-.81,4.49-1.43,6.73-.4,2-.4,7.14-2,8.57-4.49,4.08-4.69-9.79-5.1-12.24-.21-2.44,0-5.5-.82-8-1.63-4.08-3.67-2-5.1,1.22a61.71,61.71,0,0,0-2.32,7,26.83,26.83,0,0,1,2.87,5.22,61.61,61.61,0,0,1,2.72-7.89c.2,4.07-.62,8.36.4,12.43.41,2.25,1.84,6.53,3.68,8.16,3.67,3.27,4.48-.81,5.5-3.67,3.06-8.77,5.51-23,12.85-29.36,1.59-1.34,4.08-2.08,6.35-2.59C317.6,92.21,313.06,88.73,312.13,88.69Z"/><path class="cls-3" d="M283.8,115.23a44.77,44.77,0,0,1-.12-11,10.18,10.18,0,0,0-1.39,2.26c-2,4.55-3.26,10-4.69,14.78a29.07,29.07,0,0,0-1.23,9.28c.06.56.09,1,.13,1.46.12,2.71,5.44,2.66,5.62-.45a34.8,34.8,0,0,1,.17-9A38.62,38.62,0,0,1,283.8,115.23Z"/></svg>