<svg id="Camada_1" data-name="Camada 1" xmlns="http://www.w3.org/2000/svg" viewBox="0 0 813.48 831.9"><defs><style>.cls-1{font-size:31px;font-family:SegoeUI, Segoe UI;}.cls-1,.cls-15{fill:#494847;}.cls-10,.cls-11,.cls-12,.cls-13,.cls-2,.cls-4,.cls-5,.cls-6,.cls-7,.cls-8,.cls-9{fill:none;stroke-miterlimit:10;stroke-width:0.5px;}.cls-2{stroke:#000;}.cls-3{font-size:29.16px;}.cls-14,.cls-15,.cls-3{font-family:MyriadPro-Regular, Myriad Pro;}.cls-4,.cls-5{stroke:#0a90e2;}.cls-5{stroke-dasharray:12.02 12.02;}.cls-10,.cls-11,.cls-12,.cls-13,.cls-6,.cls-7,.cls-9{stroke:#494847;}.cls-7{stroke-dasharray:11.93 11.93;}.cls-8{stroke:#fff;}.cls-9{stroke-dasharray:11.92 11.92;}.cls-10{stroke-dasharray:12.54 12.54;}.cls-11{stroke-dasharray:11.47 11.47;}.cls-12{stroke-dasharray:11.93 11.93;}.cls-13{stroke-dasharray:12.02 12.02;}.cls-14,.cls-15{font-size:13px;}.cls-14{fill:#fff;}</style></defs><title>Prancheta 16</title><text class="cls-1" transform="translate(286.53 59.41)">Área de Proteção</text><text class="cls-1" transform="translate(261.53 520.41)">Dimenções mínimas</text><path d="M204.84,699.92s-6.08,2.06-5.77,9.79c.62,11.46-3.31,12.63-4,13.19-5.3,3.53-7.17-2.11-7.17-2.11a7.55,7.55,0,0,0,1.16,9.42c4.05,3.54,11-.16,11-.16s5.82-2.6,4.71-11.42c-.22-1.61-1.68-4.2-1.84-7.25.19-7.26,3.06-9.76,3.06-9.76a.85.85,0,0,0,0-1.31A1.49,1.49,0,0,0,204.84,699.92Z"/><path d="M160,724.92h0a7.76,7.76,0,0,0,1.75.35l.34,0h0a8.44,8.44,0,0,0,8.15-5.14v0h0l.48-1.44a8.69,8.69,0,0,1-.48,1.44l.48-1.44a11.5,11.5,0,0,1,.86-1.72c.1-.17.2-.33.31-.49a12.23,12.23,0,0,1,4.27-3.92c1-.53,5.92,3.1,4.55,3.5a12.09,12.09,0,0,0-7.93,7.44h0v0h0l-.47,1.58h0v0a10.63,10.63,0,0,1-1.64,2.83A10,10,0,0,1,155,728a10.74,10.74,0,0,1-.91-12.08,10.14,10.14,0,0,1,9.68-5,10,10,0,0,1,3.19.85l.1,0a1,1,0,0,1,.35.31,1.06,1.06,0,0,1,.21.76,1.08,1.08,0,0,1-.75.94h0a7,7,0,0,0-.78-.11H166a7.6,7.6,0,0,0-8,6.15,4.52,4.52,0,0,0-.24,1.07,4.13,4.13,0,0,0,2.25,4.07h0"/><path d="M184.7,717.9h0a8,8,0,0,0-1.73-.48l-.33,0h0a8.4,8.4,0,0,0-8.47,4.56v0h0l-.57,1.4a9.12,9.12,0,0,1,.57-1.4l-.57,1.4a11.49,11.49,0,0,1-1,1.66c-.11.15-.22.31-.34.46a12.1,12.1,0,0,1-4.52,3.61c-1,.46-5.7-3.5-4.3-3.81a12.05,12.05,0,0,0,8.41-6.87h0v0h0l.57-1.54v0h0a10.34,10.34,0,0,1,1.83-2.71,10,10,0,0,1,15.63,1.11,10.71,10.71,0,0,1,.1,12.12,10.09,10.09,0,0,1-10,4.35,10.2,10.2,0,0,1-3.12-1.07l-.11-.06a1.12,1.12,0,0,1-.32-.33,1.11,1.11,0,0,1,.65-1.67h0c.25.07.51.12.78.17H178a7.57,7.57,0,0,0,8.41-5.57,4.17,4.17,0,0,0-1.66-5.27h0"/><path d="M170.33,689c.17-.26.35-.34.53-.24a1.32,1.32,0,0,1,.45.65,4.85,4.85,0,0,1,.18,2.6,8.44,8.44,0,0,1-.79,2.27,5.74,5.74,0,0,1-1.29,1.63,4.07,4.07,0,0,1-1.67.87,3.83,3.83,0,0,1-1.93,0,5.8,5.8,0,0,1-2.72-1.68,17.77,17.77,0,0,1-2.43-3.24,42.3,42.3,0,0,1-2.17-4.21q-1-2.3-1.94-4.57l-1.78-4.37a35.32,35.32,0,0,0-1.64-3.56,8,8,0,0,0-1.56-2.14,1.09,1.09,0,0,0-1.5-.13c-.11.1-.16.14-.16.13a.31.31,0,0,1,.05-.11l.12-.2a.19.19,0,0,0,0-.18c0-.05.1-.11.35-.18s.56-.12.95-.18.81-.1,1.27-.13.9-.06,1.31-.07a2.21,2.21,0,0,1,1.44.82,14.69,14.69,0,0,1,1.7,2.18c.6.92,1.22,2,1.87,3.1s1.29,2.34,1.94,3.54,1.29,2.39,1.93,3.54,1.27,2.19,1.87,3.1a14.69,14.69,0,0,0,1.71,2.19,2.1,2.1,0,0,0,1.44.81,1.36,1.36,0,0,0,.7-.24,3.84,3.84,0,0,0,.73-.56,7.12,7.12,0,0,0,.62-.72A2.72,2.72,0,0,0,170.33,689Z"/><path d="M186.15,668.42c-.3.94-.72,2-1.25,3.27s-1.15,2.51-1.86,3.82-1.47,2.61-2.31,3.88a26.29,26.29,0,0,1-2.57,3.37,14,14,0,0,1-2.67,2.34,4.23,4.23,0,0,1-2.57.81,6.49,6.49,0,0,1-3.08-.87,6.28,6.28,0,0,1-2-1.9,8,8,0,0,1-1.1-2.44,12.33,12.33,0,0,1-.41-2.53,15.65,15.65,0,0,1,.5-5.37,16.1,16.1,0,0,1,2-4.55,11.8,11.8,0,0,1,3-3.18,6.16,6.16,0,0,1,3.37-1.27,4,4,0,0,1,2.18.36,3,3,0,0,1,1.14,1.1,3.17,3.17,0,0,1,.42,1.4,11.81,11.81,0,0,1,0,1.29,7.75,7.75,0,0,1-.45,2.18,8.45,8.45,0,0,1-.93,1.88,10,10,0,0,1-1.24,1.56,12.23,12.23,0,0,1-1.37,1.26,15.33,15.33,0,0,1-3.65,2.15,8.52,8.52,0,0,1-1.17-1.51,2.79,2.79,0,0,1-.23-.51.49.49,0,0,1,0-.38.49.49,0,0,1,.35-.2,2.17,2.17,0,0,1,.79.07,2.65,2.65,0,0,0,2-.44,9,9,0,0,0,2-1.74,12,12,0,0,0,1.6-2.32,6.5,6.5,0,0,0,.76-2.17,1.79,1.79,0,0,0,0-.57,1.89,1.89,0,0,0-.12-.52.71.71,0,0,0-.27-.34.48.48,0,0,0-.41-.06,2.37,2.37,0,0,0-.95.79,10,10,0,0,0-1.11,1.7,23.53,23.53,0,0,0-1.1,2.38,28,28,0,0,0-1,2.85,30.21,30.21,0,0,0-.69,3.09,18.26,18.26,0,0,0-.25,3.08,6.36,6.36,0,0,0,.42,2.34,1.08,1.08,0,0,0,1.3.69,5.48,5.48,0,0,0,1.51-.53,10.46,10.46,0,0,0,1.65-1.07,12,12,0,0,0,1.66-1.57,16,16,0,0,0,1.57-2.09q.79-1.26,1.62-2.82c.54-1,1-2.08,1.53-3.1s.9-2,1.27-2.83.65-1.55.84-2a2.45,2.45,0,0,1,.73-1.07.37.37,0,0,1,.53.07,1.64,1.64,0,0,1,.19.88A3.89,3.89,0,0,1,186.15,668.42Z"/><path d="M184.92,666a8.34,8.34,0,0,1,.27-2.76,6.31,6.31,0,0,1,.93-2,5.6,5.6,0,0,1,1.33-1.33,7.91,7.91,0,0,1,1.41-.8,7.56,7.56,0,0,1,1.24-.42l.75-.18a1,1,0,0,1,.83.12,1.36,1.36,0,0,1,.53.64,1.32,1.32,0,0,1,.08.81.79.79,0,0,1-.49.6,1.34,1.34,0,0,0-.41.47,6.67,6.67,0,0,0-.56,1,8.86,8.86,0,0,0-.5,1.38,7.46,7.46,0,0,0-.26,1.57,23.21,23.21,0,0,0,.06,3.49c.11,1.34.2,2.73.28,4.17s.12,2.89.1,4.34a17.57,17.57,0,0,1-.48,4,8.18,8.18,0,0,1-1.45,3.09,4.8,4.8,0,0,1-2.84,1.68,3.43,3.43,0,0,1-1.89,0,3,3,0,0,1-1.34-.9,3.7,3.7,0,0,1-.72-1.52,4.94,4.94,0,0,1-.08-1.84c-1-1.14,1.37-3,1.95-3.5a26.19,26.19,0,0,1,2.21-1.54L188.5,675c.9-.57,1.69,1.46.74,2.16L186.6,679c-.82.59-1.49,1.09-2,1.51a5.54,5.54,0,0,0-.93,1,2.1,2.1,0,0,0-.4.82.41.41,0,0,0,.21.48,1.21,1.21,0,0,0,.87-.08c.45-.15.77-.62,1-1.43a16.15,16.15,0,0,0,.36-2.95c.05-1.15,0-2.4,0-3.74s-.15-2.59-.25-3.77-.2-2.22-.31-3.11S184.93,666.27,184.92,666Z"/><path d="M149.84,654.14s-6.08,2.06-5.77,9.79c.62,11.46-3.31,12.63-4,13.19-5.3,3.53-7.17-2.11-7.17-2.11a7.54,7.54,0,0,0,1.17,9.42c4.05,3.54,11-.16,11-.16s5.82-2.6,4.71-11.42c-.21-1.61-1.68-4.2-1.83-7.25.18-7.26,3-9.76,3-9.76a.84.84,0,0,0,0-1.31A1.48,1.48,0,0,0,149.84,654.14Z"/><path d="M148.67,651.88l.33-.07A10.15,10.15,0,1,1,151.13,672h-.43l-.1,0h-.12a.59.59,0,0,0-.5.57.63.63,0,0,0,.24.52h0l.19.09.11,0h0a12.31,12.31,0,0,0,5.64,1.21,13,13,0,0,0-.59-26,12.38,12.38,0,0,0-7,2.33h0l-.41.31a.48.48,0,0,0-.07.26A.59.59,0,0,0,148.67,651.88Z"/><path d="M157.77,705.3s.59-1,.84-1.32a9.22,9.22,0,0,1,14.18-.83h0l1,1.24h0a10.12,10.12,0,0,0,17.48-5.68l.06-.46h0l0-.31h0a.7.7,0,0,0-.58-.6.61.61,0,0,0-.42.08l-.33.4a10.4,10.4,0,0,1-14.8,1.18,28,28,0,0,0-4.19-3.17,10.34,10.34,0,0,0-2.56-.73,11,11,0,0,0-12.43,9.41.28.28,0,0,1,0,.09h0a.28.28,0,0,0,0,.09.43.43,0,0,0,0,0l0-.15h0a.06.06,0,0,1,0,0v.05a.43.43,0,0,0,0,0c0,.49,1.79.48,1.81.45"/><path d="M197.67,652.13l.33-.07a10.16,10.16,0,0,1,1.67-.19,10.17,10.17,0,0,1,.46,20.33h-.53a.48.48,0,0,0-.12,0,.62.62,0,0,0-.5.58.61.61,0,0,0,.24.51h0l.18.09.11.06h0a12.3,12.3,0,0,0,5.64,1.2,13,13,0,0,0-.59-26,12.46,12.46,0,0,0-7,2.33h0c-.14.1-.28.2-.41.31a.53.53,0,0,0-.07.26A.6.6,0,0,0,197.67,652.13Z"/><path d="M258.58,677.23l0,.1v0a.91.91,0,0,1-.78.7,1,1,0,0,1-.88-1,.09.09,0,0,1,0-.05v-.1h0v.17a.09.09,0,0,1,0-.05v-.1h0v-.1c-.17-7.15,4.16-13.06,9.65-13.19a7.82,7.82,0,0,1,2.42.32,26.1,26.1,0,0,1,4.27,2.79,8,8,0,0,0,5.08,1.73c3.42-.08,6.37-2.47,8-6l.24-.53a.58.58,0,0,1,.37-.17.68.68,0,0,1,.61.57h0c0,.12,0,.24,0,.36h0c0,.18,0,.36,0,.53.16,6.7-3.89,12.22-9,12.34a7.24,7.24,0,0,1-1.8-.18,8.49,8.49,0,0,1-4-2.21h0l-1.08-1.22h0a7.31,7.31,0,0,0-5.24-2.16c-3.68.09-6.75,3.19-7.86,7.46l0,.1v0"/><path d="M247.49,679.53h0a8.83,8.83,0,0,0,1.79.15l.34,0h0a8.5,8.5,0,0,0,7.53-6.06v0h0l.31-1.48a9.26,9.26,0,0,1-.31,1.48l.31-1.48a12.34,12.34,0,0,1,.67-1.82c.08-.18.16-.35.25-.52a12.25,12.25,0,0,1,3.81-4.39c.91-.65,6.23,2.38,4.91,2.93a12.25,12.25,0,0,0-7.06,8.33h0v0h0l-.29,1.62v0h0a10.85,10.85,0,0,1-1.32,3,10.16,10.16,0,0,1-8.29,4.72,10,10,0,0,1-7.28-2.89,10.53,10.53,0,0,1-3.15-7.33,10.7,10.7,0,0,1,.9-4.57,10.19,10.19,0,0,1,9-6.14,9.6,9.6,0,0,1,3.27.47l.11,0a1.1,1.1,0,0,1,.38.27,1.14,1.14,0,0,1,.29.72,1.1,1.1,0,0,1-.64,1h0a7,7,0,0,0-.79,0h-.09a7.66,7.66,0,0,0-7.28,7,4,4,0,0,0-.12,1.09,4.11,4.11,0,0,0,2.69,3.79h0"/><path d="M218.52,662.35c-.09-.35,0-.52.2-.51a2,2,0,0,1,.9.39,7.51,7.51,0,0,1,1.23,1,11.91,11.91,0,0,1,1.27,1.51,9,9,0,0,1,1,1.72,4.45,4.45,0,0,1,.4,1.68,5.54,5.54,0,0,1-.19,1c-.12.52-.28,1.16-.49,1.9s-.43,1.56-.68,2.44-.49,1.78-.72,2.67-.45,1.76-.65,2.57-.34,1.54-.44,2.15-.17,1-.21,1.26,0,.43,0,.48.16,0,.32-.14l.68-.56a15.06,15.06,0,0,0,2.14-2.26,32,32,0,0,0,2-2.82q.91-1.47,1.68-3c.51-1,1-1.91,1.34-2.74s.7-1.54.94-2.14l.45-1.11a2.75,2.75,0,0,1,.8-1.17c.25-.14.44-.12.58.06a1.62,1.62,0,0,1,.2.95,5.59,5.59,0,0,1-.29,1.52c-.27.77-.65,1.71-1.12,2.82s-1,2.29-1.69,3.52-1.37,2.45-2.17,3.68a26.76,26.76,0,0,1-2.5,3.31,13.46,13.46,0,0,1-2.72,2.38,5.12,5.12,0,0,1-2.81.92,2.49,2.49,0,0,1-1.76-.75,3.79,3.79,0,0,1-.79-1.23,5.62,5.62,0,0,1-.35-2,7.83,7.83,0,0,1,.34-1.45c.22-.78.51-1.75.85-2.9s.69-2.41,1.05-3.78.66-2.77.92-4.17.42-2.73.52-4A10.94,10.94,0,0,0,218.52,662.35Z"/><path d="M234.82,683.07a2.12,2.12,0,0,0,1.49-.48,8.34,8.34,0,0,0,1.57-1.54,20.22,20.22,0,0,0,1.57-2.29c.52-.86,1-1.75,1.49-2.66s.91-1.83,1.33-2.74.79-1.74,1.1-2.48.57-1.35.77-1.86.33-.8.37-.91a2.54,2.54,0,0,1,.75-1.09q.35-.19.54.06a1.5,1.5,0,0,1,.2.88,4.08,4.08,0,0,1-.29,1.43,30,30,0,0,1-1,3c-.44,1.14-1,2.31-1.52,3.52s-1.21,2.41-1.89,3.6a27.52,27.52,0,0,1-2.14,3.21A13.17,13.17,0,0,1,236.9,685a4.17,4.17,0,0,1-2.23,1,4.36,4.36,0,0,1-1.35-.17,3.7,3.7,0,0,1-1.51-.88,5.65,5.65,0,0,1-1.29-1.88,9.73,9.73,0,0,1-.68-3.21,8.87,8.87,0,0,1,.1-1.58c.1-.67.23-1.38.4-2.15s.37-1.54.58-2.32.41-1.48.59-2.1.35-1.14.48-1.54a2.89,2.89,0,0,1,.24-.6h-.47a3,3,0,0,1-1.16-.33,3.79,3.79,0,0,1-1.31-1.09,4.72,4.72,0,0,1-.86-2.3,13.35,13.35,0,0,1,0-1.69c1-6.59,6.62-3.67,5.73-2.26-.68,1.46-.75,1.64-1.2,2.52l2.26-.88,1.78-.67a10.78,10.78,0,0,1,1.37-.43.87.87,0,0,1,.94.32,2.55,2.55,0,0,1,.48,1.08,4.53,4.53,0,0,1,0,1.33,2.4,2.4,0,0,1-.35,1.06,26.17,26.17,0,0,0-1.49,2.54c-.54,1-1.05,2.14-1.54,3.31s-.92,2.36-1.31,3.57a31.11,31.11,0,0,0-.88,3.35,9.74,9.74,0,0,0-.2,2.63A1.66,1.66,0,0,0,234.82,683.07Z"/><path d="M220.93,653.51c-3.35.7-.52,8.77,3.76,6.57,3.56-1.93-1.23-11.57-4-6.44"/><path d="M224,708.15c-.09-.35,0-.52.2-.51a1.94,1.94,0,0,1,.89.39,7.14,7.14,0,0,1,1.24,1.05,11.91,11.91,0,0,1,1.27,1.51,9,9,0,0,1,1,1.72A4.25,4.25,0,0,1,229,714a5.13,5.13,0,0,1-.18,1c-.12.52-.29,1.16-.49,1.9s-.43,1.56-.68,2.44-.49,1.78-.72,2.67-.46,1.76-.65,2.58-.34,1.53-.44,2.14-.17,1-.21,1.26,0,.43,0,.48.15,0,.31-.14l.68-.56a14.61,14.61,0,0,0,2.15-2.26,33.34,33.34,0,0,0,1.95-2.81c.61-1,1.16-2,1.68-3s.95-1.91,1.34-2.74.7-1.54.94-2.13.39-1,.45-1.12a2.82,2.82,0,0,1,.8-1.17q.36-.21.57.06a1.56,1.56,0,0,1,.2,1,4.87,4.87,0,0,1-.29,1.52c-.27.77-.64,1.71-1.12,2.82s-1,2.29-1.69,3.52-1.36,2.45-2.16,3.68a27.79,27.79,0,0,1-2.5,3.31,13.73,13.73,0,0,1-2.72,2.38,5.25,5.25,0,0,1-2.81.93,2.61,2.61,0,0,1-.83-.16,2.54,2.54,0,0,1-.93-.6,3.79,3.79,0,0,1-.79-1.23,5.16,5.16,0,0,1-.35-2,7.62,7.62,0,0,1,.34-1.44c.22-.79.5-1.76.85-2.91s.69-2.4,1-3.78.67-2.77.92-4.16a38.52,38.52,0,0,0,.53-4A11,11,0,0,0,224,708.15Z"/><path d="M226.44,699.31c-3.35.7-.52,8.78,3.75,6.58,3.56-1.94-1.22-11.57-4-6.45"/><path d="M200.25,654.53a1.49,1.49,0,0,0-1.05-.39s-6.08,2.06-5.77,9.79c.62,11.46-3.31,12.63-4,13.19q-.42.27-.81.48a6.26,6.26,0,0,1-1.28.52,2.41,2.41,0,0,1,.86,1.77c0,1.48-3,5.66-2.08,5.88,3.84.86,8.26-1.5,8.26-1.5s5.82-2.6,4.71-11.42c-.21-1.61-1.68-4.2-1.84-7.25.19-7.26,3.06-9.76,3.06-9.76A.84.84,0,0,0,200.25,654.53Z"/><path d="M203.18,697.91l.32-.07a10.16,10.16,0,0,1,1.67-.19,10.17,10.17,0,0,1,.46,20.33H205a.61.61,0,0,0-.49.58.59.59,0,0,0,.24.51h0l.18.09.11.06h0a12.48,12.48,0,0,0,5.65,1.21,13,13,0,0,0-.6-26,12.4,12.4,0,0,0-6.95,2.33h0l-.41.31a.71.71,0,0,0-.07.26A.61.61,0,0,0,203.18,697.91Z"/><path d="M263.72,723s0,.07,0,.11v0a.89.89,0,0,1-.78.7,1,1,0,0,1-.88-1v0s0,0,0-.06a.06.06,0,0,1,0,0h0v.11a.33.33,0,0,1,0-.1h0a.41.41,0,0,1,0-.11c-.16-7.15,4.16-13.06,9.66-13.19a8.17,8.17,0,0,1,2.42.32,25.56,25.56,0,0,1,4.26,2.79,8,8,0,0,0,5.08,1.73c3.42-.08,6.37-2.47,8-6l.23-.54a.58.58,0,0,1,.37-.17.68.68,0,0,1,.61.57h0c0,.12,0,.24,0,.36h0c0,.18,0,.36,0,.54.15,6.69-3.9,12.21-9,12.33a6.68,6.68,0,0,1-1.79-.18,8.39,8.39,0,0,1-4-2.21h0l-1.08-1.22h0a7.31,7.31,0,0,0-5.24-2.16c-3.68.09-6.75,3.19-7.86,7.46a.43.43,0,0,0,0,.11v0"/><path d="M252.63,725.33h0a8,8,0,0,0,1.78.15l.34,0h0a8.5,8.5,0,0,0,7.52-6.06v0h0l.31-1.48a8.11,8.11,0,0,1-.31,1.48l.31-1.48a13.59,13.59,0,0,1,.67-1.82l.26-.52a12.12,12.12,0,0,1,3.8-4.39c.92-.65,6.23,2.38,4.91,2.94a12.2,12.2,0,0,0-7.05,8.32h0v0h0l-.28,1.62v0h0a10.85,10.85,0,0,1-1.32,3A10,10,0,0,1,248,728.94a10.68,10.68,0,0,1-2.24-11.9,10.19,10.19,0,0,1,9-6.14,9.83,9.83,0,0,1,3.26.47l.11,0a1,1,0,0,1,.38.27,1,1,0,0,1,.29.73,1.11,1.11,0,0,1-.64,1h0a5.17,5.17,0,0,0-.79,0h-.09a7.65,7.65,0,0,0-7.28,7,4.42,4.42,0,0,0-.12,1.1,4.1,4.1,0,0,0,2.69,3.78h0"/><path d="M240.33,728.87a2.07,2.07,0,0,0,1.49-.48,8.65,8.65,0,0,0,1.57-1.54,21,21,0,0,0,1.57-2.28c.52-.87,1-1.75,1.49-2.67s.91-1.82,1.33-2.74.78-1.74,1.1-2.47.57-1.36.77-1.87.33-.8.37-.9a2.53,2.53,0,0,1,.75-1.1.36.36,0,0,1,.53.06,1.51,1.51,0,0,1,.21.89,4.32,4.32,0,0,1-.29,1.42c-.23.86-.57,1.86-1,3s-.95,2.31-1.52,3.52-1.21,2.42-1.9,3.6a25.54,25.54,0,0,1-2.13,3.21,13.17,13.17,0,0,1-2.26,2.32,4.17,4.17,0,0,1-2.23,1,4.08,4.08,0,0,1-1.35-.17,3.72,3.72,0,0,1-1.51-.87,5.8,5.8,0,0,1-1.29-1.89,9.68,9.68,0,0,1-.68-3.21,8,8,0,0,1,.1-1.58c.1-.67.23-1.38.4-2.15s.37-1.54.58-2.32.41-1.48.59-2.1.34-1.14.48-1.54a2.62,2.62,0,0,1,.23-.6h-.46a3.08,3.08,0,0,1-1.17-.33,3.76,3.76,0,0,1-1.3-1.09,4.58,4.58,0,0,1-.86-2.3,13.35,13.35,0,0,1,0-1.69c1-6.59,6.62-3.67,5.72-2.26-.67,1.46-.75,1.64-1.2,2.53l2.26-.88,1.79-.68a9,9,0,0,1,1.37-.42.86.86,0,0,1,.94.31,2.42,2.42,0,0,1,.47,1.08,3.94,3.94,0,0,1,0,1.33A2.17,2.17,0,0,1,245,712a25.45,25.45,0,0,0-1.48,2.55c-.54,1-1.05,2.14-1.54,3.3s-.92,2.36-1.31,3.57a29.47,29.47,0,0,0-.88,3.35,9.4,9.4,0,0,0-.2,2.64A1.66,1.66,0,0,0,240.33,728.87Z"/><path d="M166.28,691.22c-8.66-.34-11.93,11-14.07,18.51-.59,2.22-.79,4.45-1.38,6.67-.4,2-.4,7.08-2,8.5-4.34,4-4.53-9.71-4.93-12.14-.19-2.43,0-5.46-.79-7.89-1.57-4-3.54-2-4.92,1.21A62.12,62.12,0,0,0,136,713a26.47,26.47,0,0,1,2.77,5.18,62,62,0,0,1,2.62-7.84c.2,4-.59,8.3.4,12.34.39,2.23,1.77,6.47,3.54,8.09,3.55,3.24,4.34-.81,5.32-3.64,3-8.7,5.32-22.86,12.41-29.13a14.77,14.77,0,0,1,6.14-2.56C171.57,694.72,167.18,691.26,166.28,691.22Z"/><path d="M138.92,717.55a44.34,44.34,0,0,1-.39-5.94,47.08,47.08,0,0,1,.27-5,10.45,10.45,0,0,0-1.35,2.25c-2,4.51-3.15,10-4.53,14.66a29.39,29.39,0,0,0-1.18,9.2c.06.55.08,1,.12,1.45.12,2.69,5.26,2.64,5.43-.45a36,36,0,0,1,.16-8.89A38.93,38.93,0,0,1,138.92,717.55Z"/><polyline class="cls-2" points="111.9 639.76 111.94 627.34 319.49 627.34 319.49 639.76"/><text class="cls-3" transform="translate(163.01 607.64)">3,5cm</text><text class="cls-3" transform="translate(33.36 694.25)">2cm</text><polyline class="cls-2" points="104.15 640.42 90.65 640.42 90.65 750.7 104.15 750.7"/><path d="M645.84,694.92s-6.08,2.06-5.77,9.79c.62,11.46-3.31,12.63-4,13.19-5.3,3.53-7.17-2.11-7.17-2.11a7.55,7.55,0,0,0,1.16,9.42c4.05,3.54,11-.16,11-.16s5.82-2.6,4.71-11.42c-.22-1.61-1.68-4.2-1.84-7.25.19-7.26,3.06-9.76,3.06-9.76a.85.85,0,0,0,0-1.31A1.49,1.49,0,0,0,645.84,694.92Z"/><path d="M601,719.92h0a7.76,7.76,0,0,0,1.75.35l.34,0h0a8.44,8.44,0,0,0,8.15-5.14v0h0l.48-1.44a8.69,8.69,0,0,1-.48,1.44l.48-1.44a11.5,11.5,0,0,1,.86-1.72c.1-.17.2-.33.31-.49a12.23,12.23,0,0,1,4.27-3.92c1-.53,5.92,3.1,4.55,3.5a12.09,12.09,0,0,0-7.93,7.44h0v0h0l-.47,1.58h0v0a10.63,10.63,0,0,1-1.64,2.83A10,10,0,0,1,596,723a10.74,10.74,0,0,1-.91-12.08,10.14,10.14,0,0,1,9.68-5,10,10,0,0,1,3.19.85l.1,0a1,1,0,0,1,.35.31,1.06,1.06,0,0,1,.21.76,1.08,1.08,0,0,1-.75.94h0a7,7,0,0,0-.78-.11H607a7.6,7.6,0,0,0-8,6.15,4.52,4.52,0,0,0-.24,1.07,4.13,4.13,0,0,0,2.25,4.07h0"/><path d="M625.7,712.9h0a8,8,0,0,0-1.73-.48l-.33,0h0a8.4,8.4,0,0,0-8.47,4.56v0h0l-.57,1.4a9.12,9.12,0,0,1,.57-1.4l-.57,1.4a11.49,11.49,0,0,1-1,1.66c-.11.15-.22.31-.34.46a12.1,12.1,0,0,1-4.52,3.61c-1,.46-5.7-3.5-4.3-3.81a12.05,12.05,0,0,0,8.41-6.87h0v0h0l.57-1.54v0h0a10.34,10.34,0,0,1,1.83-2.71,10,10,0,0,1,15.63,1.11,10.71,10.71,0,0,1,.1,12.12,10.09,10.09,0,0,1-10,4.35,10.2,10.2,0,0,1-3.12-1.07l-.11-.06a1.12,1.12,0,0,1-.32-.33,1.11,1.11,0,0,1,.65-1.67h0c.25.07.51.12.78.17H619a7.57,7.57,0,0,0,8.41-5.57,4.17,4.17,0,0,0-1.66-5.27h0"/><path d="M611.33,684c.17-.26.35-.34.53-.24a1.32,1.32,0,0,1,.45.65,4.85,4.85,0,0,1,.18,2.6,8.44,8.44,0,0,1-.79,2.27,5.74,5.74,0,0,1-1.29,1.63,4.07,4.07,0,0,1-1.67.87,3.83,3.83,0,0,1-1.93,0,5.8,5.8,0,0,1-2.72-1.68,17.77,17.77,0,0,1-2.43-3.24,42.3,42.3,0,0,1-2.17-4.21q-1-2.3-1.94-4.57l-1.78-4.37a35.32,35.32,0,0,0-1.64-3.56,8,8,0,0,0-1.56-2.14,1.09,1.09,0,0,0-1.5-.13c-.11.1-.16.14-.16.13a.31.31,0,0,1,.05-.11l.12-.2a.19.19,0,0,0,0-.18c0-.05.1-.11.35-.18s.56-.12.95-.18.81-.1,1.27-.13.9-.06,1.31-.07a2.21,2.21,0,0,1,1.44.82,14.69,14.69,0,0,1,1.7,2.18c.6.92,1.22,2,1.87,3.1s1.29,2.34,1.94,3.54,1.29,2.39,1.93,3.54,1.27,2.19,1.87,3.1a14.69,14.69,0,0,0,1.71,2.19,2.1,2.1,0,0,0,1.44.81,1.36,1.36,0,0,0,.7-.24,3.84,3.84,0,0,0,.73-.56,7.12,7.12,0,0,0,.62-.72A2.72,2.72,0,0,0,611.33,684Z"/><path d="M627.15,663.42c-.3.94-.72,2-1.25,3.27s-1.15,2.51-1.86,3.82-1.47,2.61-2.31,3.88a26.29,26.29,0,0,1-2.57,3.37,14,14,0,0,1-2.67,2.34,4.23,4.23,0,0,1-2.57.81,6.49,6.49,0,0,1-3.08-.87,6.28,6.28,0,0,1-2-1.9,8,8,0,0,1-1.1-2.44,12.33,12.33,0,0,1-.41-2.53,15.65,15.65,0,0,1,.5-5.37,16.1,16.1,0,0,1,2-4.55,11.8,11.8,0,0,1,3-3.18,6.16,6.16,0,0,1,3.37-1.27,4,4,0,0,1,2.18.36,3,3,0,0,1,1.14,1.1,3.17,3.17,0,0,1,.42,1.4,11.81,11.81,0,0,1,0,1.29,7.75,7.75,0,0,1-.45,2.18,8.45,8.45,0,0,1-.93,1.88,10,10,0,0,1-1.24,1.56,12.23,12.23,0,0,1-1.37,1.26,15.33,15.33,0,0,1-3.65,2.15,8.52,8.52,0,0,1-1.17-1.51,2.79,2.79,0,0,1-.23-.51.49.49,0,0,1,0-.38.49.49,0,0,1,.35-.2,2.17,2.17,0,0,1,.79.07,2.65,2.65,0,0,0,2-.44,9,9,0,0,0,2-1.74,12,12,0,0,0,1.6-2.32,6.5,6.5,0,0,0,.76-2.17,1.79,1.79,0,0,0,0-.57,1.89,1.89,0,0,0-.12-.52.71.71,0,0,0-.27-.34.48.48,0,0,0-.41-.06,2.37,2.37,0,0,0-.95.79,10,10,0,0,0-1.11,1.7,23.53,23.53,0,0,0-1.1,2.38,28,28,0,0,0-1,2.85,30.21,30.21,0,0,0-.69,3.09,18.26,18.26,0,0,0-.25,3.08,6.36,6.36,0,0,0,.42,2.34,1.08,1.08,0,0,0,1.3.69,5.48,5.48,0,0,0,1.51-.53,10.46,10.46,0,0,0,1.65-1.07,12,12,0,0,0,1.66-1.57,16,16,0,0,0,1.57-2.09q.79-1.26,1.62-2.82c.54-1,1-2.08,1.53-3.1s.9-2,1.27-2.83.65-1.55.84-2a2.45,2.45,0,0,1,.73-1.07.37.37,0,0,1,.53.07,1.64,1.64,0,0,1,.19.88A3.89,3.89,0,0,1,627.15,663.42Z"/><path d="M625.92,661a8.34,8.34,0,0,1,.27-2.76,6.31,6.31,0,0,1,.93-2,5.6,5.6,0,0,1,1.33-1.33,7.91,7.91,0,0,1,1.41-.8,7.56,7.56,0,0,1,1.24-.42l.75-.18a1,1,0,0,1,.83.12,1.36,1.36,0,0,1,.53.64,1.32,1.32,0,0,1,.08.81.79.79,0,0,1-.49.6,1.34,1.34,0,0,0-.41.47,6.67,6.67,0,0,0-.56,1,8.86,8.86,0,0,0-.5,1.38,7.46,7.46,0,0,0-.26,1.57,23.21,23.21,0,0,0,.06,3.49c.11,1.34.2,2.73.28,4.17s.12,2.89.1,4.34a17.57,17.57,0,0,1-.48,4,8.18,8.18,0,0,1-1.45,3.09,4.8,4.8,0,0,1-2.84,1.68,3.43,3.43,0,0,1-1.89,0,3,3,0,0,1-1.34-.9,3.7,3.7,0,0,1-.72-1.52,4.94,4.94,0,0,1-.08-1.84c-1-1.14,1.37-3,1.95-3.5a26.19,26.19,0,0,1,2.21-1.54L629.5,670c.9-.57,1.69,1.46.74,2.16L627.6,674c-.82.59-1.49,1.09-2,1.51a5.54,5.54,0,0,0-.93,1,2.1,2.1,0,0,0-.4.82.41.41,0,0,0,.21.48,1.21,1.21,0,0,0,.87-.08c.45-.15.77-.62,1-1.43a16.15,16.15,0,0,0,.36-2.95c.05-1.15,0-2.4,0-3.74s-.15-2.59-.25-3.77-.2-2.22-.31-3.11S625.93,661.27,625.92,661Z"/><path d="M590.84,649.14s-6.08,2.06-5.77,9.79c.62,11.46-3.31,12.63-4,13.19-5.3,3.53-7.17-2.11-7.17-2.11a7.54,7.54,0,0,0,1.17,9.42c4.05,3.54,11-.16,11-.16s5.82-2.6,4.71-11.42c-.21-1.61-1.68-4.2-1.83-7.25.18-7.26,3-9.76,3-9.76a.84.84,0,0,0,0-1.31A1.48,1.48,0,0,0,590.84,649.14Z"/><path d="M589.67,646.88l.33-.07A10.15,10.15,0,1,1,592.13,667h-.43l-.1,0h-.12a.59.59,0,0,0-.5.57.63.63,0,0,0,.24.52h0l.19.09.11,0h0a12.31,12.31,0,0,0,5.64,1.21,13,13,0,0,0-.59-26,12.38,12.38,0,0,0-7,2.33h0l-.41.31a.48.48,0,0,0-.07.26A.59.59,0,0,0,589.67,646.88Z"/><path d="M598.77,700.3s.59-1,.84-1.32a9.22,9.22,0,0,1,14.18-.83h0l1,1.24h0a10.12,10.12,0,0,0,17.48-5.68l.06-.46h0l0-.31h0a.7.7,0,0,0-.58-.6.61.61,0,0,0-.42.08l-.33.4a10.4,10.4,0,0,1-14.8,1.18,28,28,0,0,0-4.19-3.17,10.34,10.34,0,0,0-2.56-.73,11,11,0,0,0-12.43,9.41.28.28,0,0,1,0,.09h0a.28.28,0,0,0,0,.09.43.43,0,0,0,0,0l0-.15h0a.06.06,0,0,1,0,0v.05a.43.43,0,0,0,0,0c0,.49,1.79.48,1.81.45"/><path d="M638.67,647.13l.33-.07a10.16,10.16,0,0,1,1.67-.19,10.17,10.17,0,0,1,.46,20.33h-.53a.48.48,0,0,0-.12,0,.62.62,0,0,0-.5.58.61.61,0,0,0,.24.51h0l.18.09.11.06h0a12.3,12.3,0,0,0,5.64,1.2,13,13,0,0,0-.59-26,12.46,12.46,0,0,0-7,2.33h0c-.14.1-.28.2-.41.31a.53.53,0,0,0-.07.26A.6.6,0,0,0,638.67,647.13Z"/><path d="M699.58,672.23l0,.1v0a.91.91,0,0,1-.78.7,1,1,0,0,1-.88-1,.09.09,0,0,1,0-.05v-.1h0v.17a.09.09,0,0,1,0-.05v-.1h0v-.1c-.17-7.15,4.16-13.06,9.65-13.19a7.82,7.82,0,0,1,2.42.32,26.1,26.1,0,0,1,4.27,2.79,8,8,0,0,0,5.08,1.73c3.42-.08,6.37-2.47,8-6l.24-.53a.58.58,0,0,1,.37-.17.68.68,0,0,1,.61.57h0c0,.12,0,.24,0,.36h0c0,.18,0,.36,0,.53.16,6.7-3.89,12.22-9,12.34a7.24,7.24,0,0,1-1.8-.18,8.49,8.49,0,0,1-4-2.21h0l-1.08-1.22h0a7.31,7.31,0,0,0-5.24-2.16c-3.68.09-6.75,3.19-7.86,7.46l0,.1v0"/><path d="M688.49,674.53h0a8.83,8.83,0,0,0,1.79.15l.34,0h0a8.5,8.5,0,0,0,7.53-6.06v0h0l.31-1.48a9.26,9.26,0,0,1-.31,1.48l.31-1.48a12.34,12.34,0,0,1,.67-1.82c.08-.18.16-.35.25-.52a12.25,12.25,0,0,1,3.81-4.39c.91-.65,6.23,2.38,4.91,2.93a12.25,12.25,0,0,0-7.06,8.33h0v0h0l-.29,1.62v0h0a10.85,10.85,0,0,1-1.32,3,10.16,10.16,0,0,1-8.29,4.72,10,10,0,0,1-7.28-2.89,10.53,10.53,0,0,1-3.15-7.33,10.7,10.7,0,0,1,.9-4.57,10.19,10.19,0,0,1,9-6.14,9.6,9.6,0,0,1,3.27.47l.11,0a1.1,1.1,0,0,1,.38.27,1.14,1.14,0,0,1,.29.72,1.1,1.1,0,0,1-.64,1h0a7,7,0,0,0-.79,0h-.09a7.66,7.66,0,0,0-7.28,7,4,4,0,0,0-.12,1.09,4.11,4.11,0,0,0,2.69,3.79h0"/><path d="M659.52,657.35c-.09-.35,0-.52.2-.51a2,2,0,0,1,.9.39,7.51,7.51,0,0,1,1.23,1,11.91,11.91,0,0,1,1.27,1.51,9,9,0,0,1,1,1.72,4.45,4.45,0,0,1,.4,1.68,5.54,5.54,0,0,1-.19,1c-.12.52-.28,1.16-.49,1.9s-.43,1.56-.68,2.44-.49,1.78-.72,2.67-.45,1.76-.65,2.57-.34,1.54-.44,2.15-.17,1-.21,1.26,0,.43,0,.48.16,0,.32-.14l.68-.56a15.06,15.06,0,0,0,2.14-2.26,32,32,0,0,0,2-2.82q.91-1.47,1.68-3c.51-1,1-1.91,1.34-2.74s.7-1.54.94-2.14l.45-1.11a2.75,2.75,0,0,1,.8-1.17c.25-.14.44-.12.58.06a1.62,1.62,0,0,1,.2.95,5.59,5.59,0,0,1-.29,1.52c-.27.77-.65,1.71-1.12,2.82s-1.05,2.29-1.69,3.52-1.37,2.45-2.17,3.68a26.76,26.76,0,0,1-2.5,3.31,13.46,13.46,0,0,1-2.72,2.38,5.12,5.12,0,0,1-2.81.92,2.49,2.49,0,0,1-1.76-.75,3.79,3.79,0,0,1-.79-1.23,5.62,5.62,0,0,1-.35-2,7.83,7.83,0,0,1,.34-1.45c.22-.78.51-1.75.85-2.9s.69-2.41,1-3.78.66-2.77.92-4.17.42-2.73.52-4A10.94,10.94,0,0,0,659.52,657.35Z"/><path d="M675.82,678.07a2.12,2.12,0,0,0,1.49-.48,8.34,8.34,0,0,0,1.57-1.54,20.22,20.22,0,0,0,1.57-2.29c.52-.86,1-1.75,1.49-2.66s.91-1.83,1.33-2.74.79-1.74,1.1-2.48.57-1.35.77-1.86.33-.8.37-.91a2.54,2.54,0,0,1,.75-1.09q.35-.19.54.06a1.5,1.5,0,0,1,.2.88,4.08,4.08,0,0,1-.29,1.43,30,30,0,0,1-1,3c-.44,1.14-1,2.31-1.52,3.52s-1.21,2.41-1.89,3.6a27.52,27.52,0,0,1-2.14,3.21A13.17,13.17,0,0,1,677.9,680a4.17,4.17,0,0,1-2.23,1,4.36,4.36,0,0,1-1.35-.17,3.7,3.7,0,0,1-1.51-.88,5.65,5.65,0,0,1-1.29-1.88,9.73,9.73,0,0,1-.68-3.21,8.87,8.87,0,0,1,.1-1.58c.1-.67.23-1.38.4-2.15s.37-1.54.58-2.32.41-1.48.59-2.1.35-1.14.48-1.54a2.89,2.89,0,0,1,.24-.6h-.47a3,3,0,0,1-1.16-.33,3.79,3.79,0,0,1-1.31-1.09,4.72,4.72,0,0,1-.86-2.3,13.35,13.35,0,0,1,0-1.69c1-6.59,6.62-3.67,5.73-2.26-.68,1.46-.75,1.64-1.2,2.52l2.26-.88,1.78-.67a10.78,10.78,0,0,1,1.37-.43.87.87,0,0,1,.94.32,2.55,2.55,0,0,1,.48,1.08,4.53,4.53,0,0,1,0,1.33,2.4,2.4,0,0,1-.35,1.06,26.17,26.17,0,0,0-1.49,2.54c-.54,1-1,2.14-1.54,3.31s-.92,2.36-1.31,3.57a31.11,31.11,0,0,0-.88,3.35,9.74,9.74,0,0,0-.2,2.63A1.66,1.66,0,0,0,675.82,678.07Z"/><path d="M661.93,648.51c-3.35.7-.52,8.77,3.76,6.57,3.56-1.93-1.23-11.57-4-6.44"/><path d="M665,703.15c-.09-.35,0-.52.2-.51a1.94,1.94,0,0,1,.89.39,7.14,7.14,0,0,1,1.24,1.05,11.91,11.91,0,0,1,1.27,1.51,9,9,0,0,1,1,1.72A4.25,4.25,0,0,1,670,709a5.13,5.13,0,0,1-.18,1c-.12.52-.29,1.16-.49,1.9s-.43,1.56-.68,2.44-.49,1.78-.72,2.67-.46,1.76-.65,2.58-.34,1.53-.44,2.14-.17,1-.21,1.26,0,.43,0,.48.15,0,.31-.14l.68-.56a14.61,14.61,0,0,0,2.15-2.26,33.34,33.34,0,0,0,2-2.81c.61-1,1.16-2,1.68-3s1-1.91,1.34-2.74.7-1.54.94-2.13.39-1,.45-1.12a2.82,2.82,0,0,1,.8-1.17q.36-.21.57.06a1.56,1.56,0,0,1,.2,1,4.87,4.87,0,0,1-.29,1.52c-.27.77-.64,1.71-1.12,2.82s-1,2.29-1.69,3.52-1.36,2.45-2.16,3.68a27.79,27.79,0,0,1-2.5,3.31,13.73,13.73,0,0,1-2.72,2.38,5.25,5.25,0,0,1-2.81.93,2.61,2.61,0,0,1-.83-.16,2.54,2.54,0,0,1-.93-.6,3.79,3.79,0,0,1-.79-1.23,5.16,5.16,0,0,1-.35-2,7.62,7.62,0,0,1,.34-1.44c.22-.79.5-1.76.85-2.91s.69-2.4,1-3.78.67-2.77.92-4.16a38.52,38.52,0,0,0,.53-4A11,11,0,0,0,665,703.15Z"/><path d="M667.44,694.31c-3.35.7-.52,8.78,3.75,6.58,3.56-1.94-1.22-11.57-4-6.45"/><path d="M641.25,649.53a1.49,1.49,0,0,0-1-.39s-6.08,2.06-5.77,9.79c.62,11.46-3.31,12.63-4,13.19q-.42.27-.81.48a6.26,6.26,0,0,1-1.28.52,2.41,2.41,0,0,1,.86,1.77c0,1.48-3,5.66-2.08,5.88,3.84.86,8.26-1.5,8.26-1.5s5.82-2.6,4.71-11.42c-.21-1.61-1.68-4.2-1.84-7.25.19-7.26,3.06-9.76,3.06-9.76A.84.84,0,0,0,641.25,649.53Z"/><path d="M644.18,692.91l.32-.07a10.16,10.16,0,0,1,1.67-.19,10.17,10.17,0,0,1,.46,20.33H646a.61.61,0,0,0-.49.58.59.59,0,0,0,.24.51h0l.18.09.11.06h0a12.48,12.48,0,0,0,5.65,1.21,13,13,0,0,0-.6-26,12.4,12.4,0,0,0-7,2.33h0l-.41.31a.71.71,0,0,0-.07.26A.61.61,0,0,0,644.18,692.91Z"/><path d="M704.72,718s0,.07,0,.11v0a.89.89,0,0,1-.78.7,1,1,0,0,1-.88-1v0s0,0,0-.06a.06.06,0,0,1,0,0h0v.11a.33.33,0,0,1,0-.1h0a.41.41,0,0,1,0-.11c-.16-7.15,4.16-13.06,9.66-13.19a8.17,8.17,0,0,1,2.42.32,25.56,25.56,0,0,1,4.26,2.79,8,8,0,0,0,5.08,1.73c3.42-.08,6.37-2.47,8-6l.23-.54a.58.58,0,0,1,.37-.17.68.68,0,0,1,.61.57h0c0,.12,0,.24,0,.36h0c0,.18,0,.36,0,.54.15,6.69-3.9,12.21-9,12.33a6.68,6.68,0,0,1-1.79-.18,8.39,8.39,0,0,1-4-2.21h0l-1.08-1.22h0a7.31,7.31,0,0,0-5.24-2.16c-3.68.09-6.75,3.19-7.86,7.46a.43.43,0,0,0,0,.11v0"/><path d="M693.63,720.33h0a8,8,0,0,0,1.78.15l.34,0h0a8.5,8.5,0,0,0,7.52-6.06v0h0l.31-1.48a8.11,8.11,0,0,1-.31,1.48l.31-1.48a13.59,13.59,0,0,1,.67-1.82l.26-.52a12.12,12.12,0,0,1,3.8-4.39c.92-.65,6.23,2.38,4.91,2.94a12.2,12.2,0,0,0-7,8.32h0v0h0l-.28,1.62v0h0a10.85,10.85,0,0,1-1.32,3A10,10,0,0,1,689,723.94a10.68,10.68,0,0,1-2.24-11.9,10.19,10.19,0,0,1,9.05-6.14,9.83,9.83,0,0,1,3.26.47l.11,0a1,1,0,0,1,.38.27,1,1,0,0,1,.29.73,1.11,1.11,0,0,1-.64,1h0a5.17,5.17,0,0,0-.79,0h-.09a7.65,7.65,0,0,0-7.28,7,4.42,4.42,0,0,0-.12,1.1,4.1,4.1,0,0,0,2.69,3.78h0"/><path d="M681.33,723.87a2.07,2.07,0,0,0,1.49-.48,8.65,8.65,0,0,0,1.57-1.54,21,21,0,0,0,1.57-2.28c.52-.87,1-1.75,1.49-2.67s.91-1.82,1.33-2.74.78-1.74,1.1-2.47.57-1.36.77-1.87.33-.8.37-.9a2.53,2.53,0,0,1,.75-1.1.36.36,0,0,1,.53.06,1.51,1.51,0,0,1,.21.89,4.32,4.32,0,0,1-.29,1.42c-.23.86-.57,1.86-1,3s-1,2.31-1.52,3.52-1.21,2.42-1.9,3.6a25.54,25.54,0,0,1-2.13,3.21,13.17,13.17,0,0,1-2.26,2.32,4.17,4.17,0,0,1-2.23,1,4.08,4.08,0,0,1-1.35-.17,3.72,3.72,0,0,1-1.51-.87,5.8,5.8,0,0,1-1.29-1.89,9.68,9.68,0,0,1-.68-3.21,8,8,0,0,1,.1-1.58c.1-.67.23-1.38.4-2.15s.37-1.54.58-2.32.41-1.48.59-2.1.34-1.14.48-1.54a2.62,2.62,0,0,1,.23-.6h-.46a3.08,3.08,0,0,1-1.17-.33,3.76,3.76,0,0,1-1.3-1.09,4.58,4.58,0,0,1-.86-2.3,13.35,13.35,0,0,1,0-1.69c1-6.59,6.62-3.67,5.72-2.26-.67,1.46-.75,1.64-1.2,2.53l2.26-.88,1.79-.68a9,9,0,0,1,1.37-.42.86.86,0,0,1,.94.31,2.42,2.42,0,0,1,.47,1.08,3.94,3.94,0,0,1,0,1.33A2.17,2.17,0,0,1,686,707a25.45,25.45,0,0,0-1.48,2.55c-.54,1-1,2.14-1.54,3.3s-.92,2.36-1.31,3.57a29.47,29.47,0,0,0-.88,3.35,9.4,9.4,0,0,0-.2,2.64A1.66,1.66,0,0,0,681.33,723.87Z"/><path d="M607.28,686.22c-8.66-.34-11.93,11-14.07,18.51-.59,2.22-.79,4.45-1.38,6.67-.4,2-.4,7.08-2,8.5-4.34,4-4.53-9.71-4.93-12.14-.19-2.43,0-5.46-.79-7.89-1.57-4-3.54-2-4.92,1.21A62.12,62.12,0,0,0,577,708a26.47,26.47,0,0,1,2.77,5.18,62,62,0,0,1,2.62-7.84c.2,4-.59,8.3.4,12.34.39,2.23,1.77,6.47,3.54,8.09,3.55,3.24,4.34-.81,5.32-3.64,3-8.7,5.32-22.86,12.41-29.13a14.77,14.77,0,0,1,6.14-2.56C612.57,689.72,608.18,686.26,607.28,686.22Z"/><path d="M579.92,712.55a44.34,44.34,0,0,1-.39-5.94,47.08,47.08,0,0,1,.27-5,10.45,10.45,0,0,0-1.35,2.25c-2,4.51-3.15,10-4.53,14.66a29.39,29.39,0,0,0-1.18,9.2c.06.55.08,1,.12,1.45.12,2.69,5.26,2.64,5.43-.45a36,36,0,0,1,.16-8.89A38.93,38.93,0,0,1,579.92,712.55Z"/><polyline class="cls-2" points="552.9 634.76 552.93 622.34 760.49 622.34 760.49 634.76"/><text class="cls-3" transform="translate(604.01 602.64)">3,5cm</text><text class="cls-3" transform="translate(474.36 689.25)">2cm</text><polyline class="cls-2" points="545.15 635.42 531.65 635.42 531.65 745.7 545.15 745.7"/><polyline class="cls-4" points="694.89 398.39 694.89 404.39 688.89 404.39"/><polyline class="cls-4" points="677.95 404.39 671.95 404.39 671.95 398.39"/><polyline class="cls-4" points="671.95 387.46 671.95 381.46 677.95 381.46"/><polyline class="cls-4" points="688.89 381.46 694.89 381.46 694.89 387.46"/><line class="cls-4" x1="671.89" y1="106" x2="671.89" y2="112"/><line class="cls-5" x1="671.89" y1="124.01" x2="671.89" y2="382.37"/><line class="cls-4" x1="671.89" y1="388.37" x2="671.89" y2="394.37"/><line class="cls-6" x1="166.33" y1="171.31" x2="172.33" y2="171.31"/><line class="cls-7" x1="184.26" y1="171.31" x2="679.43" y2="171.31"/><line class="cls-6" x1="685.4" y1="171.31" x2="691.4" y2="171.31"/><path d="M410.49,279.16s-18.09,6-17.16,28.37c1.84,33.22-9.84,36.59-12,38.21C365.58,356,360,339.64,360,339.64s-9.65,13.68,3.47,27.28c12,10.25,32.58-.47,32.58-.47s17.31-7.52,14-33.08c-.63-4.67-5-12.15-5.45-21,.55-21,9.08-28.27,9.08-28.27a2.42,2.42,0,0,0-.09-3.8A4.51,4.51,0,0,0,410.49,279.16Z"/><path d="M277.1,351.6v0a25.41,25.41,0,0,0,5.22,1c.34,0,.67.06,1,.07h0a25.18,25.18,0,0,0,24.25-14.91v-.05l0,0,1.42-4.16a25.16,25.16,0,0,1-1.42,4.16l1.42-4.16a34.61,34.61,0,0,1,2.58-5c.29-.48.59-1,.91-1.42a35.88,35.88,0,0,1,12.7-11.35c2.92-1.55,17.62,9,13.54,10.13a35.67,35.67,0,0,0-23.61,21.57v0a.09.09,0,0,0,0,0s0,0,0,0l-1.38,4.57v0l0,0a30.34,30.34,0,1,1-25.42-41.43,29.83,29.83,0,0,1,9.48,2.45l.32.15a3.2,3.2,0,0,1,1,.89,3.18,3.18,0,0,1-1.61,4.94h0a19.81,19.81,0,0,0-2.33-.34l-.27,0a22.5,22.5,0,0,0-23.83,17.81,11.85,11.85,0,0,0,6,14.9v0"/><path d="M350.58,331.25v0a25.25,25.25,0,0,0-5.14-1.39l-1-.14h0a25.15,25.15,0,0,0-25.21,13.21l0,0s0,0,0,0l-1.7,4.05a25.45,25.45,0,0,1,1.7-4.05l-1.7,4.05a35.35,35.35,0,0,1-2.91,4.81c-.33.46-.66.91-1,1.35a35.91,35.91,0,0,1-13.45,10.45c-3,1.35-17-10.15-12.81-11a35.68,35.68,0,0,0,25-19.9v0a.09.09,0,0,0,0-.05h0l1.68-4.46s0,0,0-.05l0,0a30.34,30.34,0,1,1,22.52,43.08,29.84,29.84,0,0,1-9.29-3.1,3.07,3.07,0,0,1-.31-.17,3.17,3.17,0,0,1,1-5.77h0a21.86,21.86,0,0,0,2.3.5l.27,0a22.51,22.51,0,0,0,25-16.13,11.9,11.9,0,0,0-4.95-15.28v0"/><path d="M307.83,247.39c.53-.76,1.05-1,1.58-.69a3.58,3.58,0,0,1,1.36,1.86,13.17,13.17,0,0,1,.77,3.45,12.88,12.88,0,0,1-.24,4.1,23.24,23.24,0,0,1-2.36,6.56,16.57,16.57,0,0,1-3.84,4.74,12.33,12.33,0,0,1-5,2.53,11.89,11.89,0,0,1-5.74-.09,17,17,0,0,1-8.09-4.85,51.31,51.31,0,0,1-7.22-9.39,116.4,116.4,0,0,1-6.46-12.19q-3-6.64-5.78-13.25t-5.27-12.66a107.13,107.13,0,0,0-4.9-10.3,23,23,0,0,0-4.63-6.2q-2.27-1.95-4.47-.38c-.31.29-.47.41-.47.36a1,1,0,0,1,.15-.32q.17-.24.36-.57a.59.59,0,0,0,.11-.53c0-.14.29-.3,1-.5a23.29,23.29,0,0,1,2.84-.53c1.15-.15,2.42-.28,3.79-.39s2.65-.17,3.87-.18,2.69.77,4.28,2.36a43,43,0,0,1,5.07,6.33q2.67,4,5.56,9t5.77,10.26q2.88,5.23,5.76,10.25t5.56,9a41.91,41.91,0,0,0,5.07,6.34c1.59,1.58,3,2.37,4.28,2.35a4.12,4.12,0,0,0,2.09-.69,12.31,12.31,0,0,0,2.16-1.64,16.23,16.23,0,0,0,1.84-2.07A7.26,7.26,0,0,0,307.83,247.39Z"/><path d="M354.92,187.89c-.9,2.73-2.14,5.88-3.73,9.48s-3.43,7.29-5.53,11.09-4.39,7.54-6.86,11.23a79.26,79.26,0,0,1-7.67,9.77,41.41,41.41,0,0,1-7.94,6.78,12.82,12.82,0,0,1-7.65,2.33,19.7,19.7,0,0,1-9.16-2.52,18.81,18.81,0,0,1-5.94-5.49,23.07,23.07,0,0,1-3.26-7.07,36,36,0,0,1-1.24-7.35,44.68,44.68,0,0,1,1.5-15.56,46.09,46.09,0,0,1,5.94-13.17,34.58,34.58,0,0,1,8.8-9.22,18.72,18.72,0,0,1,10.05-3.68,12.2,12.2,0,0,1,6.46,1.06,8.71,8.71,0,0,1,3.41,3.18,9.27,9.27,0,0,1,1.25,4.06,34.92,34.92,0,0,1,.08,3.72,22.77,22.77,0,0,1-1.33,6.33,26,26,0,0,1-2.77,5.44,31.58,31.58,0,0,1-3.68,4.54,38.4,38.4,0,0,1-4.08,3.63,46,46,0,0,1-10.85,6.25,25,25,0,0,1-3.51-4.39,8.07,8.07,0,0,1-.66-1.47,1.34,1.34,0,0,1,0-1.12,1.41,1.41,0,0,1,1-.57,6.5,6.5,0,0,1,2.34.19,8,8,0,0,0,6.05-1.27,26.45,26.45,0,0,0,6-5,34.72,34.72,0,0,0,4.75-6.71,18.54,18.54,0,0,0,2.28-6.3,5.63,5.63,0,0,0,.07-1.65,5.4,5.4,0,0,0-.36-1.51,2.12,2.12,0,0,0-.79-1,1.46,1.46,0,0,0-1.22-.16,6.84,6.84,0,0,0-2.83,2.28,29.69,29.69,0,0,0-3.29,4.92,65.67,65.67,0,0,0-3.27,6.92,81.1,81.1,0,0,0-4.91,17.19,49.25,49.25,0,0,0-.74,8.92,18.1,18.1,0,0,0,1.23,6.79,3.24,3.24,0,0,0,3.87,2,16.86,16.86,0,0,0,4.49-1.56,31.22,31.22,0,0,0,4.91-3.07,37.3,37.3,0,0,0,4.93-4.55,46.73,46.73,0,0,0,4.67-6.06q2.39-3.66,4.81-8.19t4.56-9q2.12-4.43,3.78-8.21t2.5-5.87a7.22,7.22,0,0,1,2.18-3.1,1.06,1.06,0,0,1,1.56.21,4.5,4.5,0,0,1,.59,2.55A11,11,0,0,1,354.92,187.89Z"/><path d="M351.26,180.93a23.91,23.91,0,0,1,.79-8,18.23,18.23,0,0,1,2.76-5.7,16.71,16.71,0,0,1,3.95-3.85A24,24,0,0,1,363,161a22.19,22.19,0,0,1,3.67-1.2q1.65-.37,2.25-.54a2.94,2.94,0,0,1,2.47.36,4.17,4.17,0,0,1,1.57,1.85,3.73,3.73,0,0,1,.24,2.33,2.32,2.32,0,0,1-1.45,1.75,4,4,0,0,0-1.25,1.35,23.21,23.21,0,0,0-1.66,3,26.15,26.15,0,0,0-1.48,4,21.66,21.66,0,0,0-.78,4.55,67.81,67.81,0,0,0,.18,10.13q.48,5.8.85,12.08t.28,12.55a49.12,49.12,0,0,1-1.41,11.53,23.05,23.05,0,0,1-4.33,9,14.3,14.3,0,0,1-8.45,4.88,10.45,10.45,0,0,1-5.63-.07,8.67,8.67,0,0,1-4-2.61,10.51,10.51,0,0,1-2.16-4.4,13.76,13.76,0,0,1-.22-5.32c-2.84-3.3,4.07-8.8,5.79-10.14a75.61,75.61,0,0,1,6.59-4.48l7.79-4.75c2.7-1.64,5,4.25,2.22,6.26s-5.43,3.88-7.87,5.57-4.43,3.16-6,4.39a15.87,15.87,0,0,0-2.74,2.79,5.89,5.89,0,0,0-1.19,2.4,1.16,1.16,0,0,0,.62,1.38,3.74,3.74,0,0,0,2.59-.24c1.32-.42,2.28-1.8,2.86-4.14a43.62,43.62,0,0,0,1.1-8.54q.21-5-.1-10.83t-.75-10.95c-.29-3.43-.6-6.43-.91-9S351.26,181.68,351.26,180.93Z"/><path d="M246.9,146.52s-18.09,6-17.16,28.37c1.84,33.22-9.84,36.59-12,38.21C202,223.33,196.43,207,196.43,207s-9.65,13.68,3.46,27.28c12,10.25,32.59-.47,32.59-.47s17.31-7.51,14-33.08c-.63-4.67-5-12.15-5.45-21,.55-21,9.08-28.27,9.08-28.27a2.43,2.43,0,0,0-.09-3.81A4.56,4.56,0,0,0,246.9,146.52Z"/><path d="M243.42,140l1-.2a29.88,29.88,0,0,1,5-.53,29.45,29.45,0,1,1,1.38,58.89h-1.27a1.65,1.65,0,0,0-.31,0,2.06,2.06,0,0,0-.36,0,1.75,1.75,0,0,0-.76,3.15h0l.55.27.32.15h0a37.75,37.75,0,1,0-5.68-65.2h0c-.42.28-.83.58-1.23.89a1.66,1.66,0,0,0-.21.76A1.74,1.74,0,0,0,243.42,140Z"/><path d="M270.5,294.75s1.75-2.88,2.47-3.83a27.94,27.94,0,0,1,42.2-2.4v0l2.94,3.59h0a30.38,30.38,0,0,0,52-16.47c.07-.43.13-.88.17-1.32v0c0-.29.07-.6.09-.9h0a2.06,2.06,0,0,0-1.72-1.74,2,2,0,0,0-1.27.22c-.32.41-.65.8-1,1.19a31.5,31.5,0,0,1-44,3.41c-1.45-1.21-9.35-7.91-12.47-9.21a32.54,32.54,0,0,0-44.59,25.17l0,.26s0,0,0,0,0,0,0,0h0a2,2,0,0,0,0,.24.59.59,0,0,0,0,.14l.06-.42s0,0,0,0,0,0,0,0h0s0,.06,0,.09,0,.1,0,.15a.59.59,0,0,0,0,.14c-.07,1.43,5.33,1.39,5.37,1.31"/><path d="M389.19,140.7l1-.21a29.88,29.88,0,0,1,5-.53,29.46,29.46,0,1,1,1.38,58.9h-1.26l-.32-.05a1.42,1.42,0,0,0-.36,0,1.74,1.74,0,0,0-1.47,1.66,1.71,1.71,0,0,0,.72,1.48h0l.55.26.32.16h0a37.74,37.74,0,1,0-5.67-65.2h0q-.63.43-1.23.9a1.8,1.8,0,0,0-.21.76A1.76,1.76,0,0,0,389.19,140.7Z"/><path d="M570.35,213.43c0,.1,0,.2-.07.3a.14.14,0,0,1,0,.06,2.63,2.63,0,0,1-2.32,2,2.88,2.88,0,0,1-2.61-2.86.81.81,0,0,1,0-.16.91.91,0,0,1,0-.17.4.4,0,0,1,0-.11s0,0,0,0,0,0,0,0,0,0,0,0l0,.49a.81.81,0,0,1,0-.16,2.53,2.53,0,0,1,0-.28h0s0,0,0,0,0,0,0,0,0-.2,0-.3c-.49-20.72,12.37-37.83,28.72-38.21a24,24,0,0,1,7.19.93c3,.88,11.2,7,12.7,8.08A24.23,24.23,0,0,0,629,188c10.17-.24,19-7.16,23.81-17.4.24-.5.47-1,.69-1.54a1.58,1.58,0,0,1,1.1-.49,2,2,0,0,1,1.83,1.65h0c0,.35,0,.7.07,1v0c0,.51.05,1,.06,1.54.45,19.39-11.58,35.39-26.87,35.75a22.14,22.14,0,0,1-5.35-.53,25.37,25.37,0,0,1-11.77-6.41h0l-3.22-3.53h0a22.17,22.17,0,0,0-15.59-6.26c-11,.26-20.08,9.24-23.39,21.62,0,.1-.05.2-.07.3a.14.14,0,0,1,0,.06"/><path d="M537.37,220.08h0a24.53,24.53,0,0,0,5.31.43l1,0h0a25.18,25.18,0,0,0,22.39-17.58v-.05s0,0,0,0l.94-4.29a25.18,25.18,0,0,1-.94,4.29l.94-4.29a35.21,35.21,0,0,1,2-5.25c.24-.51.49-1,.75-1.51A35.82,35.82,0,0,1,581.12,179c2.72-1.87,18.53,6.9,14.61,8.51a35.7,35.7,0,0,0-21,24.12v0a.15.15,0,0,0,0,.06h0l-.84,4.7s0,0,0,0v0a30.33,30.33,0,0,1-59.6-7.22A29.94,29.94,0,0,1,517,196.07a30.34,30.34,0,0,1,26.92-17.8,30,30,0,0,1,9.7,1.36l.34.11a3.25,3.25,0,0,1,1.13.77,3.12,3.12,0,0,1,.86,2.1,3.16,3.16,0,0,1-1.9,3h0a20.35,20.35,0,0,0-2.35-.08l-.27,0A22.5,22.5,0,0,0,529.73,206a11.52,11.52,0,0,0-.36,3.17,11.88,11.88,0,0,0,8,11h0"/><path d="M451.19,170.32c-.26-1-.06-1.5.61-1.47a5.77,5.77,0,0,1,2.66,1.11,23.54,23.54,0,0,1,3.67,3,35.76,35.76,0,0,1,3.78,4.36,26.59,26.59,0,0,1,2.94,5,12.23,12.23,0,0,1,1.18,4.87,15.92,15.92,0,0,1-.54,3c-.36,1.52-.86,3.36-1.47,5.51s-1.28,4.51-2,7.08-1.45,5.14-2.15,7.74-1.35,5.08-1.92,7.45-1,4.44-1.32,6.22-.51,2.86-.63,3.65-.1,1.25.06,1.37.47,0,.95-.38,1.14-.93,2-1.63a43.31,43.31,0,0,0,6.38-6.55,91.35,91.35,0,0,0,5.8-8.16q2.7-4.27,5-8.61t4-8q1.71-3.62,2.78-6.18l1.35-3.24c.86-1.83,1.66-3,2.38-3.38s1.29-.36,1.71.18a4.47,4.47,0,0,1,.59,2.74,14.6,14.6,0,0,1-.86,4.41c-.8,2.22-1.91,4.94-3.33,8.18s-3.1,6.63-5,10.18-4.07,7.11-6.44,10.67a77,77,0,0,1-7.44,9.58,39.73,39.73,0,0,1-8.09,6.9,15.81,15.81,0,0,1-8.35,2.68,7.77,7.77,0,0,1-2.47-.45,7.3,7.3,0,0,1-2.76-1.73,10.86,10.86,0,0,1-2.36-3.58,15.41,15.41,0,0,1-1.05-5.91,23.4,23.4,0,0,1,1-4.17c.67-2.28,1.52-5.09,2.53-8.41s2-7,3.12-11,2-8,2.73-12.06a109.35,109.35,0,0,0,1.55-11.61A30,30,0,0,0,451.19,170.32Z"/><path d="M499.69,230.34a6.33,6.33,0,0,0,4.42-1.37,24.72,24.72,0,0,0,4.67-4.48,60,60,0,0,0,4.69-6.62c1.54-2.49,3-5.07,4.41-7.71s2.72-5.29,4-7.94,2.33-5,3.26-7.18,1.7-3.93,2.31-5.39,1-2.33,1.08-2.63a7.43,7.43,0,0,1,2.24-3.17c.68-.39,1.21-.33,1.6.16a4.34,4.34,0,0,1,.6,2.57,11.44,11.44,0,0,1-.86,4.14,83.08,83.08,0,0,1-3,8.68q-2,4.95-4.52,10.21T519,220a79.78,79.78,0,0,1-6.35,9.3,39.14,39.14,0,0,1-6.73,6.72,12.58,12.58,0,0,1-6.64,2.81,13,13,0,0,1-4-.5,11.11,11.11,0,0,1-4.51-2.53,16.3,16.3,0,0,1-3.83-5.47,27.23,27.23,0,0,1-2-9.31,23.37,23.37,0,0,1,.31-4.57q.42-2.9,1.19-6.22t1.71-6.72q.94-3.39,1.77-6.1c.54-1.81,1-3.29,1.42-4.45a7.7,7.7,0,0,1,.7-1.74l-1.38,0a9,9,0,0,1-3.47-.95,11.45,11.45,0,0,1-3.89-3.15,13.36,13.36,0,0,1-2.55-6.69,35.37,35.37,0,0,1,.09-4.88c2.87-19.1,19.7-10.64,17-6.55-2,4.24-2.23,4.76-3.57,7.32l6.72-2.55q2.66-1,5.31-2a29.33,29.33,0,0,1,4.07-1.23,2.65,2.65,0,0,1,2.81.9,7.24,7.24,0,0,1,1.4,3.14,11.84,11.84,0,0,1,.12,3.86,6.48,6.48,0,0,1-1,3.07,70.56,70.56,0,0,0-4.42,7.37q-2.4,4.5-4.57,9.58c-1.46,3.39-2.75,6.84-3.9,10.34a83.5,83.5,0,0,0-2.62,9.7,26.66,26.66,0,0,0-.6,7.64Q497.82,229.39,499.69,230.34Z"/><path d="M458.26,144.21c-9.71,2-1.5,24.79,10.9,18.58,10.34-5.48-3.55-32.7-11.58-18.21"/><path d="M467.58,303c-.26-1-.06-1.5.6-1.48a6,6,0,0,1,2.66,1.11,24.64,24.64,0,0,1,3.68,3.05,36.76,36.76,0,0,1,3.78,4.37,26.76,26.76,0,0,1,2.93,5,12.06,12.06,0,0,1,1.18,4.86,15.06,15.06,0,0,1-.54,3q-.54,2.28-1.46,5.51c-.61,2.15-1.29,4.51-2,7.07s-1.46,5.14-2.16,7.74-1.34,5.08-1.92,7.46-1,4.44-1.32,6.21-.51,2.87-.62,3.66-.11,1.24.06,1.37.47,0,.94-.39l2-1.63a43.22,43.22,0,0,0,6.38-6.54,91.35,91.35,0,0,0,5.8-8.16c1.81-2.85,3.47-5.73,5-8.61s2.85-5.54,4-8,2.07-4.47,2.79-6.18l1.34-3.24a8,8,0,0,1,2.38-3.38c.73-.42,1.29-.36,1.71.17a4.42,4.42,0,0,1,.59,2.74,14.87,14.87,0,0,1-.85,4.42q-1.22,3.33-3.34,8.17t-5,10.19q-2.9,5.32-6.44,10.66a78.15,78.15,0,0,1-7.45,9.59,40,40,0,0,1-8.08,6.9,15.9,15.9,0,0,1-8.36,2.68,8.37,8.37,0,0,1-2.47-.45,7.42,7.42,0,0,1-2.76-1.73,11.13,11.13,0,0,1-2.36-3.58,15.23,15.23,0,0,1-1-5.91,22.26,22.26,0,0,1,1-4.18q1-3.42,2.53-8.41c1-3.32,2.06-7,3.12-11s2-8,2.73-12.06a109.29,109.29,0,0,0,1.56-11.62A30.55,30.55,0,0,0,467.58,303Z"/><path d="M474.75,277.41c-10,2-1.55,25.41,11.17,19,10.6-5.61-3.65-33.52-11.88-18.67"/><path d="M396.84,147.66a4.51,4.51,0,0,0-3.12-1.14s-18.09,6-17.16,28.37c1.84,33.22-9.84,36.59-12,38.21-.83.54-1.63,1-2.4,1.4a19.56,19.56,0,0,1-3.81,1.5,7.06,7.06,0,0,1,2.56,5.14c.1,4.3-9.06,16.4-6.2,17,11.42,2.51,24.57-4.36,24.57-4.36s17.31-7.51,14-33.08c-.63-4.67-5-12.15-5.45-21,.55-21,9.08-28.27,9.08-28.27A2.43,2.43,0,0,0,396.84,147.66Z"/><path d="M405.56,273.33l1-.2a30,30,0,0,1,5-.53,29.45,29.45,0,1,1,1.38,58.89c-.41,0-.83,0-1.24,0h0l-.32,0a2.11,2.11,0,0,0-.36,0,1.76,1.76,0,0,0-1.47,1.67,1.73,1.73,0,0,0,.72,1.48h0l.55.26.32.15h0a37.74,37.74,0,1,0-5.67-65.2h0c-.42.29-.83.59-1.23.89a2,2,0,0,0-.21.76A1.76,1.76,0,0,0,405.56,273.33Z"/><path d="M585.65,346.13c0,.1,0,.2-.07.3a.14.14,0,0,1,0,.06,2.63,2.63,0,0,1-2.32,2,2.89,2.89,0,0,1-2.61-2.86.81.81,0,0,1,0-.16,1,1,0,0,1,0-.17.41.41,0,0,1,0-.11s0,0,0,0a0,0,0,0,1,0,0s0,0,0,0l0,.49a.81.81,0,0,1,0-.16,2.53,2.53,0,0,1,0-.28h0a0,0,0,0,1,0,0s0,0,0,0,0-.2,0-.3c-.49-20.72,12.37-37.83,28.72-38.22a24.34,24.34,0,0,1,7.2.94c3,.88,11.19,7,12.69,8.08a24.28,24.28,0,0,0,15.11,5c10.17-.23,18.95-7.15,23.81-17.39.24-.51.47-1,.69-1.54a1.59,1.59,0,0,1,1.1-.5,2,2,0,0,1,1.83,1.66h0c0,.35,0,.7.06,1v0c0,.51.06,1,.07,1.54.45,19.39-11.58,35.39-26.87,35.75a22.14,22.14,0,0,1-5.35-.53,25.46,25.46,0,0,1-11.77-6.41h0l-3.22-3.53h0A22.12,22.12,0,0,0,609,324.51c-10.95.26-20.08,9.24-23.39,21.62,0,.1,0,.2-.07.3a.14.14,0,0,1,0,.06"/><path d="M552.67,352.78h0a25.12,25.12,0,0,0,5.31.43c.34,0,.68,0,1-.05h0a25.16,25.16,0,0,0,22.39-17.57v-.06s0,0,0,0l.93-4.29a23.56,23.56,0,0,1-.93,4.29l.93-4.29a35.41,35.41,0,0,1,2-5.26c.23-.51.48-1,.74-1.5a35.92,35.92,0,0,1,11.32-12.73c2.73-1.88,18.53,6.9,14.61,8.51a35.68,35.68,0,0,0-21,24.12v0a.11.11,0,0,0,0,.06h0l-.84,4.69v.09a30.35,30.35,0,1,1-20.29-36.9l.34.11a3.12,3.12,0,0,1,1.13.77,3.16,3.16,0,0,1-1,5.08h0a22.89,22.89,0,0,0-2.35-.07l-.27,0A22.49,22.49,0,0,0,545,338.65a11.86,11.86,0,0,0,7.64,14.13h0"/><path d="M516.07,363a6.31,6.31,0,0,0,4.42-1.38,24.34,24.34,0,0,0,4.67-4.47,58.67,58.67,0,0,0,4.69-6.62q2.32-3.75,4.42-7.71t4-7.94c1.25-2.65,2.33-5,3.27-7.18s1.69-3.93,2.3-5.39,1-2.33,1.09-2.63a7.35,7.35,0,0,1,2.23-3.17c.68-.39,1.21-.34,1.6.16a4.34,4.34,0,0,1,.6,2.57,11.71,11.71,0,0,1-.85,4.14,88.93,88.93,0,0,1-3,8.68c-1.31,3.29-2.81,6.7-4.53,10.21s-3.59,7-5.63,10.43A79.24,79.24,0,0,1,529,362a38.43,38.43,0,0,1-6.73,6.72,12.36,12.36,0,0,1-6.63,2.81,13,13,0,0,1-4-.49,11.08,11.08,0,0,1-4.51-2.54,16.33,16.33,0,0,1-3.82-5.46,27,27,0,0,1-2-9.31,23.48,23.48,0,0,1,.32-4.57c.27-1.93.67-4,1.18-6.23s1.08-4.46,1.72-6.71,1.21-4.29,1.76-6.1,1-3.3,1.42-4.45a8.34,8.34,0,0,1,.7-1.74l-1.38,0a9,9,0,0,1-3.47-.95,11.37,11.37,0,0,1-3.89-3.16,13.23,13.23,0,0,1-2.54-6.68,35.37,35.37,0,0,1,.09-4.88c2.87-19.1,19.69-10.65,17-6.55-2,4.24-2.23,4.76-3.57,7.31q3.63-1.35,6.73-2.54,2.64-1,5.3-2a29,29,0,0,1,4.08-1.23,2.63,2.63,0,0,1,2.8.9,7.13,7.13,0,0,1,1.41,3.14,12.42,12.42,0,0,1,.12,3.86,6.51,6.51,0,0,1-1,3.07,74.22,74.22,0,0,0-4.42,7.37q-2.4,4.5-4.57,9.58t-3.9,10.33a86.68,86.68,0,0,0-2.62,9.7,27.49,27.49,0,0,0-.6,7.65C514.1,361,514.83,362.4,516.07,363Z"/><polyline class="cls-6" points="694.96 398.18 694.96 404.18 688.96 404.18"/><polyline class="cls-6" points="677.95 404.18 671.95 404.18 671.95 398.18"/><polyline class="cls-6" points="671.95 387.25 671.95 381.25 677.95 381.25"/><polyline class="cls-6" points="688.96 381.25 694.96 381.25 694.96 387.25"/><polyline class="cls-8" points="192.76 398.39 192.76 404.39 186.76 404.39"/><polyline class="cls-8" points="175.83 404.39 169.83 404.39 169.83 398.39"/><polyline class="cls-8" points="169.83 387.46 169.83 381.46 175.83 381.46"/><polyline class="cls-8" points="186.76 381.46 192.76 381.46 192.76 387.46"/><line class="cls-6" x1="169.83" y1="238.93" x2="175.83" y2="238.93"/><line class="cls-7" x1="187.76" y1="238.93" x2="682.93" y2="238.93"/><line class="cls-6" x1="688.89" y1="238.93" x2="694.89" y2="238.93"/><line class="cls-6" x1="170.51" y1="404.39" x2="176.51" y2="404.39"/><line class="cls-9" x1="188.44" y1="404.39" x2="683.3" y2="404.39"/><line class="cls-6" x1="689.26" y1="404.39" x2="695.26" y2="404.39"/><line class="cls-6" x1="169.83" y1="129.83" x2="175.83" y2="129.83"/><line class="cls-7" x1="187.76" y1="129.83" x2="682.93" y2="129.83"/><line class="cls-6" x1="688.89" y1="129.83" x2="694.89" y2="129.83"/><line class="cls-6" x1="169.83" y1="371.78" x2="175.83" y2="371.78"/><line class="cls-7" x1="187.76" y1="371.78" x2="682.93" y2="371.78"/><line class="cls-6" x1="688.89" y1="371.78" x2="694.89" y2="371.78"/><polyline class="cls-6" points="688.89 381.29 694.89 381.29 694.89 375.29"/><line class="cls-10" x1="694.89" y1="362.75" x2="694.89" y2="118.27"/><polyline class="cls-6" points="694.89 112 694.89 106 688.89 106"/><line class="cls-7" x1="676.96" y1="106" x2="181.79" y2="106"/><polyline class="cls-6" points="175.83 106 169.83 106 169.83 112"/><line class="cls-11" x1="169.83" y1="123.47" x2="169.83" y2="370.01"/><polyline class="cls-6" points="169.83 375.75 169.83 381.75 175.83 381.74"/><line class="cls-12" x1="187.76" y1="381.73" x2="682.93" y2="381.3"/><line class="cls-6" x1="192.94" y1="106" x2="192.94" y2="112"/><line class="cls-13" x1="192.93" y1="124.02" x2="192.86" y2="382.44"/><line class="cls-6" x1="192.86" y1="388.45" x2="192.86" y2="394.45"/><line class="cls-6" x1="671.97" y1="106" x2="671.96" y2="112"/><line class="cls-13" x1="671.96" y1="124.02" x2="671.89" y2="382.44"/><line class="cls-6" x1="671.89" y1="388.45" x2="671.89" y2="394.45"/><polyline class="cls-6" points="475.35 157.93 475.35 163.93 469.35 163.93"/><polyline class="cls-6" points="458.41 163.93 452.41 163.93 452.41 157.93"/><polyline class="cls-6" points="452.41 146.99 452.41 140.99 458.41 140.99"/><polyline class="cls-6" points="469.35 140.99 475.35 140.99 475.35 146.99"/><text class="cls-14" transform="translate(460.3 155.37)">x</text><text class="cls-15" transform="translate(170.55 429.09)">x=3mm</text><text class="cls-15" transform="translate(142.74 238.93)">13x</text><path d="M295.81,254c-25.76-1-35.5,31.83-41.87,53.61-1.76,6.44-2.35,12.89-4.1,19.34-1.18,5.86-1.18,20.51-5.86,24.61-12.9,11.72-13.48-28.13-14.65-35.16-.59-7,0-15.83-2.35-22.86-4.69-11.72-10.55-5.86-14.65,3.52a173.46,173.46,0,0,0-6.67,20,76.77,76.77,0,0,1,8.24,15c1.66-7.38,4.5-13.89,7.81-22.7.58,11.72-1.76,24,1.17,35.75,1.17,6.45,5.27,18.75,10.55,23.44,10.55,9.38,12.89-2.34,15.82-10.55,8.79-25.19,15.82-66.22,36.92-84.38,4.58-3.85,11.73-6,18.25-7.43C311.53,264.09,298.47,254.07,295.81,254Z"/><path d="M214.4,330.23a129.6,129.6,0,0,1-.34-31.53,29.05,29.05,0,0,0-4,6.51c-5.86,13.07-9.38,28.85-13.48,42.47-2.35,9.25-4.11,17.41-3.52,26.67.17,1.6.24,3,.35,4.19.37,7.79,15.65,7.65,16.16-1.29-.51-8.43-1.26-11.3.49-25.77A110.44,110.44,0,0,1,214.4,330.23Z"/></svg>