<svg id="Camada_1" data-name="Camada 1" xmlns="http://www.w3.org/2000/svg" viewBox="0 0 226 126"><defs><style>.cls-1{fill:#fff;}</style></defs><title>Prancheta 8</title><path class="cls-1" d="M169.35,45l0,.13s0,0,0,0a1.08,1.08,0,0,1-1,.85,1.19,1.19,0,0,1-1.09-1.19v-.06a.2.2,0,0,1,0-.07v0h0v.14s0-.08,0-.12h0v-.12c-.2-8.63,5.15-15.74,11.95-15.9a9.64,9.64,0,0,1,3,.39c1.25.36,4.66,2.9,5.28,3.36a10.12,10.12,0,0,0,6.29,2.08c4.23-.1,7.88-3,9.9-7.24.11-.21.2-.42.29-.64a.7.7,0,0,1,.46-.21.84.84,0,0,1,.76.69h0l0,.43h0c0,.21,0,.43,0,.64.19,8.07-4.81,14.72-11.17,14.87a9.18,9.18,0,0,1-2.23-.22,10.54,10.54,0,0,1-4.9-2.67h0l-1.35-1.47h0a9.21,9.21,0,0,0-6.49-2.6c-4.56.11-8.35,3.84-9.73,9l0,.13s0,0,0,0"/><path class="cls-1" d="M175.72,100.17l0,.12v0a1.09,1.09,0,0,1-1,.85,1.21,1.21,0,0,1-1.09-1.19.15.15,0,0,1,0-.07V99.8h0v.2a.15.15,0,0,1,0-.07V99.8h0s0-.09,0-.13c-.2-8.62,5.15-15.74,11.95-15.9a10.34,10.34,0,0,1,3,.39c1.25.37,4.65,2.9,5.28,3.36a10,10,0,0,0,6.28,2.08c4.24-.1,7.89-3,9.91-7.23.1-.21.19-.42.29-.64a.62.62,0,0,1,.46-.21.81.81,0,0,1,.75.69h0a3.25,3.25,0,0,1,0,.44h0c0,.22,0,.43,0,.65.19,8.06-4.82,14.72-11.18,14.87a9.1,9.1,0,0,1-2.22-.22,10.53,10.53,0,0,1-4.9-2.67h0l-1.34-1.47h0a9.16,9.16,0,0,0-6.48-2.6c-4.56.1-8.36,3.84-9.73,9l0,.12v0"/><path class="cls-1" d="M102.84,72.31s-7.52,2.48-7.14,11.8c.77,13.82-4.09,15.22-5,15.9-6.56,4.25-8.87-2.54-8.87-2.54a8.89,8.89,0,0,0,1.44,11.35c5,4.26,13.55-.2,13.55-.2s7.21-3.12,5.83-13.76c-.26-1.94-2.08-5-2.27-8.73.23-8.75,3.78-11.76,3.78-11.76a1,1,0,0,0,0-1.59A1.89,1.89,0,0,0,102.84,72.31Z"/><path class="cls-1" d="M47.35,102.45h0a10.3,10.3,0,0,0,2.17.43,3.07,3.07,0,0,0,.42,0h0A10.45,10.45,0,0,0,60,96.71v0h0l.6-1.73a10.1,10.1,0,0,1-.6,1.73l.6-1.73a14.58,14.58,0,0,1,1.07-2.08,5.79,5.79,0,0,1,.38-.58,14.81,14.81,0,0,1,5.28-4.73c1.22-.64,7.33,3.73,5.63,4.21a14.89,14.89,0,0,0-9.82,9h0v0h0l-.57,1.9s0,0,0,0v0A12.62,12.62,0,0,1,38.31,96.9a12.35,12.35,0,0,1,1.74-5.34A12.63,12.63,0,0,1,56,86.5l.13.06A1.32,1.32,0,0,1,55.86,89h0a7.83,7.83,0,0,0-1-.15h-.11a9.35,9.35,0,0,0-9.92,7.41,4.93,4.93,0,0,0,2.49,6.2h0"/><path class="cls-1" d="M77.92,94h0a11.42,11.42,0,0,0-2.14-.58l-.42,0h0a10.47,10.47,0,0,0-10.49,5.49v0a0,0,0,0,1,0,0l-.71,1.69a11,11,0,0,1,.71-1.69l-.71,1.69a15,15,0,0,1-1.21,2l-.42.56a15,15,0,0,1-5.6,4.35c-1.25.56-7-4.22-5.33-4.59A14.86,14.86,0,0,0,62,94.59h0v0h0l.7-1.86v0h0A12.75,12.75,0,0,1,65,89.4a12.62,12.62,0,1,1,3.24,19.9l-.13-.07a1.39,1.39,0,0,1-.4-.4,1.34,1.34,0,0,1-.2-.93,1.3,1.3,0,0,1,1-1.07h0a9.59,9.59,0,0,0,1,.2l.11,0A9.37,9.37,0,0,0,80,100.34,5,5,0,0,0,77.92,94h0"/><path class="cls-1" d="M60.14,59.09c.21-.31.43-.41.65-.28a1.48,1.48,0,0,1,.57.77A5.7,5.7,0,0,1,61.68,61a5.43,5.43,0,0,1-.1,1.7,9.7,9.7,0,0,1-1,2.73,6.68,6.68,0,0,1-1.59,2,5,5,0,0,1-2.07,1,4.8,4.8,0,0,1-2.38,0,7.11,7.11,0,0,1-3.37-2,21.26,21.26,0,0,1-3-3.91,48,48,0,0,1-2.69-5.07q-1.27-2.76-2.41-5.51c-.76-1.84-1.49-3.59-2.19-5.27a41.66,41.66,0,0,0-2-4.28,9.35,9.35,0,0,0-1.92-2.58,1.37,1.37,0,0,0-1.86-.16c-.13.12-.2.17-.2.15a.32.32,0,0,1,.07-.13l.14-.24a.25.25,0,0,0,.05-.22c0-.06.12-.13.43-.21a11.09,11.09,0,0,1,1.18-.22c.48-.06,1-.12,1.58-.16s1.1-.07,1.61-.08a2.72,2.72,0,0,1,1.78,1,18.52,18.52,0,0,1,2.11,2.64c.74,1.1,1.51,2.34,2.31,3.74s1.6,2.81,2.4,4.26,1.6,2.87,2.4,4.27,1.57,2.63,2.31,3.73a17.84,17.84,0,0,0,2.11,2.64,2.66,2.66,0,0,0,1.78,1,1.75,1.75,0,0,0,.87-.29,5.32,5.32,0,0,0,.9-.68,7.77,7.77,0,0,0,.77-.86A3.5,3.5,0,0,0,60.14,59.09Z"/><path class="cls-1" d="M79.72,34.34c-.37,1.13-.89,2.45-1.55,3.94s-1.42,3-2.3,4.62S74.05,46,73,47.57a33,33,0,0,1-3.19,4.06,17,17,0,0,1-3.31,2.82,5.32,5.32,0,0,1-3.18,1,8.13,8.13,0,0,1-3.81-1.05,7.64,7.64,0,0,1-2.47-2.28,9.72,9.72,0,0,1-1.36-2.94,14.82,14.82,0,0,1-.51-3.06,18.55,18.55,0,0,1,.62-6.47,19.2,19.2,0,0,1,2.47-5.48,14.5,14.5,0,0,1,3.66-3.84,7.83,7.83,0,0,1,4.18-1.53,5,5,0,0,1,2.69.45,3.56,3.56,0,0,1,1.42,1.31,3.79,3.79,0,0,1,.52,1.69,14,14,0,0,1,0,1.55,9.39,9.39,0,0,1-.55,2.64,10.67,10.67,0,0,1-1.15,2.26,12.89,12.89,0,0,1-1.53,1.89,16.61,16.61,0,0,1-1.7,1.51,19.25,19.25,0,0,1-4.52,2.6,10.71,10.71,0,0,1-1.45-1.83,2.72,2.72,0,0,1-.28-.61.54.54,0,0,1,0-.47.53.53,0,0,1,.43-.23,2.77,2.77,0,0,1,1,.08,3.34,3.34,0,0,0,2.52-.53A11.16,11.16,0,0,0,66,39a14.77,14.77,0,0,0,2-2.8,7.6,7.6,0,0,0,.94-2.62,1.91,1.91,0,0,0,0-.68,1.94,1.94,0,0,0-.15-.63.8.8,0,0,0-.33-.41.57.57,0,0,0-.5-.07,2.84,2.84,0,0,0-1.18.95,12.31,12.31,0,0,0-1.37,2.05,28.9,28.9,0,0,0-1.36,2.87,33,33,0,0,0-1.19,3.44A31.78,31.78,0,0,0,62,44.8a20.9,20.9,0,0,0-.31,3.72,7.4,7.4,0,0,0,.51,2.82,1.35,1.35,0,0,0,1.61.83,6.92,6.92,0,0,0,1.87-.64,12.87,12.87,0,0,0,2-1.28,16.25,16.25,0,0,0,2.06-1.9,18.56,18.56,0,0,0,1.94-2.52c.66-1,1.33-2.15,2-3.4s1.31-2.5,1.9-3.73,1.11-2.37,1.57-3.42.8-1.86,1-2.44a3,3,0,0,1,.91-1.29c.27-.16.49-.13.64.09a1.87,1.87,0,0,1,.25,1.06A4.44,4.44,0,0,1,79.72,34.34Z"/><path class="cls-1" d="M78.2,31.44a10,10,0,0,1,.33-3.33,7.48,7.48,0,0,1,1.15-2.37,6.89,6.89,0,0,1,1.64-1.6,9.46,9.46,0,0,1,1.76-1,8.45,8.45,0,0,1,1.53-.5c.45-.1.76-.18.93-.23a1.2,1.2,0,0,1,1,.16,1.7,1.7,0,0,1,.65.76,1.57,1.57,0,0,1,.1,1,1,1,0,0,1-.6.72,1.77,1.77,0,0,0-.52.56,8.09,8.09,0,0,0-.69,1.24,10.29,10.29,0,0,0-.62,1.66,9.11,9.11,0,0,0-.32,1.89,27.73,27.73,0,0,0,.07,4.22c.14,1.61.25,3.28.35,5s.14,3.48.12,5.22a20.43,20.43,0,0,1-.58,4.8,9.63,9.63,0,0,1-1.81,3.73,6,6,0,0,1-3.51,2,4.38,4.38,0,0,1-2.34,0,3.6,3.6,0,0,1-1.65-1.09,4.37,4.37,0,0,1-.9-1.83,5.85,5.85,0,0,1-.09-2.21c-1.18-1.37,1.69-3.66,2.41-4.22a29.47,29.47,0,0,1,2.74-1.86l3.24-2c1.12-.68,2.09,1.77.93,2.61s-2.26,1.61-3.28,2.31S78.43,48.45,77.78,49a6.87,6.87,0,0,0-1.14,1.16,2.49,2.49,0,0,0-.49,1,.49.49,0,0,0,.25.58,1.53,1.53,0,0,0,1.08-.1c.55-.17,1-.75,1.19-1.72a17.65,17.65,0,0,0,.46-3.55c.06-1.4,0-2.9,0-4.51s-.19-3.13-.31-4.55-.25-2.68-.38-3.75S78.2,31.76,78.2,31.44Z"/><path class="cls-1" d="M34.78,17.13s-7.52,2.48-7.14,11.8c.77,13.82-4.09,15.23-5,15.9-6.56,4.25-8.87-2.54-8.87-2.54a8.89,8.89,0,0,0,1.44,11.35c5,4.26,13.56-.2,13.56-.2s7.2-3.12,5.82-13.76c-.26-1.94-2.08-5-2.27-8.73.23-8.75,3.78-11.76,3.78-11.76a1,1,0,0,0,0-1.59A1.89,1.89,0,0,0,34.78,17.13Z"/><path class="cls-1" d="M33.34,14.41l.4-.08a11.7,11.7,0,0,1,2.06-.22,12.25,12.25,0,0,1,.58,24.5h-.53l-.13,0h-.15a.73.73,0,0,0-.61.69.74.74,0,0,0,.3.62h0l.23.11a.75.75,0,0,0,.13.06h0A15.7,15.7,0,1,0,33.26,13h0l-.51.37a.8.8,0,0,0-.09.31A.74.74,0,0,0,33.34,14.41Z"/><path class="cls-1" d="M44.6,78.79s.73-1.19,1-1.59a11.64,11.64,0,0,1,17.56-1h0l1.23,1.5h0a12.57,12.57,0,0,0,7.26,3.76A12.64,12.64,0,0,0,86.06,70.86c0-.18,0-.36.07-.55h0c0-.13,0-.25,0-.38h0a.86.86,0,0,0-.72-.73.84.84,0,0,0-.52.09c-.14.17-.27.34-.41.5a13.12,13.12,0,0,1-18.31,1.42A35.34,35.34,0,0,0,61,67.38a13.27,13.27,0,0,0-3.17-.88A13.52,13.52,0,0,0,42.47,77.85s0,.07,0,.1h0s0,.07,0,.1v.06l0-.18h0a.06.06,0,0,0,0,0s0,0,0,.06v.06c0,.59,2.21.58,2.23.54"/><path class="cls-1" d="M94,14.71l.4-.09a12.73,12.73,0,0,1,2.07-.22A12.25,12.25,0,1,1,97,38.9h-.53l-.13,0h-.15a.73.73,0,0,0-.61.7.72.72,0,0,0,.3.61h0l.23.11.13.07h0a15.71,15.71,0,1,0-2.36-27.12h0l-.51.37a.9.9,0,0,0-.09.32A.75.75,0,0,0,94,14.71Z"/><path class="cls-1" d="M155.63,47.73h0a10.66,10.66,0,0,0,2.2.17h.43a10.49,10.49,0,0,0,9.32-7.32v0h0l.39-1.79a8.92,8.92,0,0,1-.39,1.79l.39-1.79a14.63,14.63,0,0,1,.83-2.18c.1-.22.2-.43.31-.63a15.1,15.1,0,0,1,4.71-5.3c1.14-.78,7.71,2.87,6.08,3.54a14.86,14.86,0,0,0-8.73,10h0v0h0l-.35,1.95v0h0a12.62,12.62,0,0,1-24.8-3,12.61,12.61,0,0,1,12.32-12.91,12.54,12.54,0,0,1,4,.56l.14.05a1.27,1.27,0,0,1,.47.32,1.32,1.32,0,0,1,.36.87,1.3,1.3,0,0,1-.79,1.24h0c-.32,0-.64,0-1,0h-.11a9.35,9.35,0,0,0-9,8.49,4.87,4.87,0,0,0-.15,1.32,4.94,4.94,0,0,0,3.33,4.56h0"/><path class="cls-1" d="M119.78,27c-.11-.42,0-.62.25-.61a2.43,2.43,0,0,1,1.11.46,9.7,9.7,0,0,1,1.52,1.27A14.64,14.64,0,0,1,124.24,30,11.3,11.3,0,0,1,125.46,32a5.05,5.05,0,0,1,.49,2,6.76,6.76,0,0,1-.22,1.26c-.16.63-.36,1.4-.61,2.29s-.54,1.88-.85,2.94-.6,2.14-.89,3.23-.56,2.11-.8,3.1-.42,1.85-.55,2.58-.21,1.19-.26,1.52,0,.52,0,.57.2,0,.4-.16l.84-.68A17.62,17.62,0,0,0,125.68,48a38.3,38.3,0,0,0,2.42-3.39c.75-1.19,1.44-2.39,2.07-3.59s1.19-2.3,1.67-3.3.86-1.86,1.16-2.57.48-1.16.55-1.35a3.3,3.3,0,0,1,1-1.41c.3-.17.53-.15.71.07a1.91,1.91,0,0,1,.24,1.15,6.16,6.16,0,0,1-.35,1.83c-.34.92-.8,2.06-1.39,3.4s-1.29,2.76-2.09,4.24S130,46,129,47.52a33.38,33.38,0,0,1-3.1,4,16.5,16.5,0,0,1-3.36,2.86,6.53,6.53,0,0,1-3.48,1.12,3.27,3.27,0,0,1-1-.19,2.94,2.94,0,0,1-1.15-.72,4.44,4.44,0,0,1-1-1.49,6.52,6.52,0,0,1-.43-2.45,9.69,9.69,0,0,1,.42-1.74c.28-.95.63-2.12,1.05-3.5s.85-2.9,1.3-4.56.82-3.33,1.13-5A44.1,44.1,0,0,0,120,31,12.64,12.64,0,0,0,119.78,27Z"/><path class="cls-1" d="M140,52a2.61,2.61,0,0,0,1.84-.57,10.42,10.42,0,0,0,2-1.86,27.46,27.46,0,0,0,1.95-2.76q1-1.56,1.83-3.21t1.65-3.3c.52-1.1,1-2.1,1.36-3s.71-1.63,1-2.24l.45-1.09a3.07,3.07,0,0,1,.93-1.32c.28-.16.5-.14.66.07a1.74,1.74,0,0,1,.26,1.06,5,5,0,0,1-.36,1.73c-.29,1-.7,2.24-1.24,3.61s-1.17,2.78-1.88,4.24-1.5,2.91-2.34,4.35a33,33,0,0,1-2.65,3.86,16.09,16.09,0,0,1-2.8,2.8,5.21,5.21,0,0,1-2.76,1.17,5.3,5.3,0,0,1-1.66-.21,4.65,4.65,0,0,1-1.87-1.05A6.76,6.76,0,0,1,134.64,52a11,11,0,0,1-.85-3.87,9.36,9.36,0,0,1,.13-1.9c.11-.8.28-1.67.49-2.59s.45-1.86.72-2.8.5-1.78.73-2.53.42-1.37.59-1.86a3.84,3.84,0,0,1,.29-.72h-.57a3.75,3.75,0,0,1-1.45-.4A4.72,4.72,0,0,1,133.11,34a5.46,5.46,0,0,1-1.06-2.78,14.92,14.92,0,0,1,0-2c1.2-7.95,8.2-4.43,7.09-2.72-.84,1.76-.93,2-1.49,3l2.8-1.06,2.21-.82a13.67,13.67,0,0,1,1.69-.51,1.1,1.1,0,0,1,1.17.38,3,3,0,0,1,.58,1.3,5.08,5.08,0,0,1,.05,1.61,2.64,2.64,0,0,1-.43,1.28,29.53,29.53,0,0,0-1.84,3.06c-.66,1.25-1.3,2.58-1.9,4s-1.14,2.84-1.62,4.3a35.81,35.81,0,0,0-1.09,4,11.24,11.24,0,0,0-.25,3.18A2,2,0,0,0,140,52Z"/><path class="cls-1" d="M122.76,16.37c-4.14.85-.64,10.58,4.65,7.93,4.41-2.34-1.52-13.95-4.94-7.77"/><path class="cls-1" d="M126.59,82.23c-.1-.41,0-.62.26-.61a2.52,2.52,0,0,1,1.1.46,9.72,9.72,0,0,1,1.53,1.27,14.68,14.68,0,0,1,1.57,1.82,11.36,11.36,0,0,1,1.23,2.08,5.18,5.18,0,0,1,.49,2,7.09,7.09,0,0,1-.23,1.26c-.15.64-.35,1.4-.61,2.3s-.53,1.87-.84,2.94l-.9,3.22c-.29,1.08-.55,2.11-.8,3.1s-.42,1.85-.54,2.59-.21,1.19-.26,1.52-.05.52,0,.57.2,0,.39-.16l.84-.68a18.12,18.12,0,0,0,2.66-2.72,37.78,37.78,0,0,0,2.41-3.4c.75-1.18,1.44-2.38,2.08-3.58s1.19-2.31,1.66-3.31.86-1.86,1.16-2.57.48-1.16.56-1.35a3.25,3.25,0,0,1,1-1.4c.3-.18.54-.15.71.07a1.78,1.78,0,0,1,.25,1.14,6.14,6.14,0,0,1-.36,1.83c-.33.93-.79,2.06-1.39,3.41s-1.29,2.76-2.09,4.23-1.69,3-2.67,4.44a33.38,33.38,0,0,1-3.1,4,16.34,16.34,0,0,1-3.37,2.87,6.7,6.7,0,0,1-3.47,1.12,3.72,3.72,0,0,1-1-.19,3.14,3.14,0,0,1-1.15-.72,4.7,4.7,0,0,1-1-1.49,6.17,6.17,0,0,1-.43-2.46,9.26,9.26,0,0,1,.41-1.74c.28-.95.63-2.11,1.06-3.5S124.6,97.7,125,96s.83-3.33,1.14-5a47.22,47.22,0,0,0,.65-4.84A12.37,12.37,0,0,0,126.59,82.23Z"/><path class="cls-1" d="M129.58,71.58c-4.15.84-.65,10.57,4.65,7.92,4.4-2.33-1.52-13.94-4.95-7.76"/><path class="cls-1" d="M97.17,17.6a1.9,1.9,0,0,0-1.3-.47s-7.53,2.48-7.14,11.8c.76,13.82-4.1,15.22-5,15.9-.34.22-.68.41-1,.58a7.78,7.78,0,0,1-1.58.62,3,3,0,0,1,1.07,2.14c0,1.79-3.77,6.83-2.59,7.09,4.76,1,10.23-1.82,10.23-1.82s7.2-3.12,5.82-13.76c-.26-1.94-2.07-5-2.27-8.73.23-8.75,3.78-11.76,3.78-11.76A1,1,0,0,0,97.17,17.6Z"/><path class="cls-1" d="M100.79,69.89l.4-.09a12.73,12.73,0,0,1,2.07-.22,12.25,12.25,0,1,1,.57,24.5,4.51,4.51,0,0,1-.52,0h0l-.14,0H103a.74.74,0,0,0-.61.7.72.72,0,0,0,.3.61h0l.23.11.13.07h0a15.71,15.71,0,1,0-2.36-27.12h0l-.51.37a.72.72,0,0,0-.08.32A.73.73,0,0,0,100.79,69.89Z"/><path class="cls-1" d="M162,102.94h0a10.7,10.7,0,0,0,2.21.18l.42,0h0A10.46,10.46,0,0,0,174,95.79v0l.39-1.78a10.44,10.44,0,0,1-.39,1.78l.39-1.78a14.75,14.75,0,0,1,.83-2.19c.1-.21.2-.42.31-.63a14.88,14.88,0,0,1,4.71-5.29c1.13-.78,7.71,2.87,6.07,3.54a14.84,14.84,0,0,0-8.73,10h0v0h0l-.36,2v0a12.62,12.62,0,0,1-24.79-3A12.35,12.35,0,0,1,153.5,93a12.6,12.6,0,0,1,11.2-7.4,12.34,12.34,0,0,1,4,.56l.13,0a1.52,1.52,0,0,1,.48.31,1.37,1.37,0,0,1,.36.88,1.33,1.33,0,0,1-.8,1.24h0a8,8,0,0,0-1,0h-.11a9.35,9.35,0,0,0-9,8.49,4.78,4.78,0,0,0-.15,1.32,4.94,4.94,0,0,0,3.33,4.56h0"/><path class="cls-1" d="M146.77,107.2a2.63,2.63,0,0,0,1.84-.57,10.39,10.39,0,0,0,1.94-1.86A23.53,23.53,0,0,0,152.5,102c.64-1,1.26-2.11,1.84-3.21s1.13-2.2,1.65-3.3,1-2.1,1.36-3,.7-1.64,1-2.24.41-1,.46-1.1a3.12,3.12,0,0,1,.93-1.32c.28-.16.5-.14.66.07A1.81,1.81,0,0,1,160.6,89a4.74,4.74,0,0,1-.35,1.72A37.38,37.38,0,0,1,159,94.33q-.81,2.06-1.88,4.25t-2.35,4.34a33.46,33.46,0,0,1-2.64,3.87,16,16,0,0,1-2.8,2.79,5.21,5.21,0,0,1-2.76,1.17,5.53,5.53,0,0,1-1.66-.2,4.66,4.66,0,0,1-1.88-1.06,6.62,6.62,0,0,1-1.59-2.27,11.53,11.53,0,0,1-.85-3.88,10.21,10.21,0,0,1,.13-1.9c.12-.8.28-1.66.5-2.59s.45-1.85.71-2.79.51-1.78.74-2.54.42-1.37.59-1.85a3.14,3.14,0,0,1,.29-.72l-.58,0a3.85,3.85,0,0,1-1.44-.39,4.66,4.66,0,0,1-1.62-1.31,5.59,5.59,0,0,1-1.06-2.78,14.58,14.58,0,0,1,0-2c1.2-7.94,8.19-4.42,7.08-2.72-.83,1.76-.93,2-1.48,3l2.8-1.06,2.2-.81a12.56,12.56,0,0,1,1.7-.51,1.08,1.08,0,0,1,1.16.37A3,3,0,0,1,153,84a5.07,5.07,0,0,1,.05,1.61,2.67,2.67,0,0,1-.43,1.27A30.93,30.93,0,0,0,150.73,90c-.66,1.24-1.3,2.57-1.9,4s-1.14,2.85-1.63,4.3a35.75,35.75,0,0,0-1.08,4,11.19,11.19,0,0,0-.25,3.18A2,2,0,0,0,146.77,107.2Z"/><path class="cls-1" d="M55.13,61.83c-10.71-.42-14.77,13.24-17.42,22.3-.73,2.68-1,5.36-1.7,8.05-.49,2.43-.49,8.53-2.44,10.24-5.36,4.87-5.61-11.71-6.1-14.63-.24-2.93,0-6.58-1-9.51-1.95-4.88-4.39-2.44-6.1,1.46a72.43,72.43,0,0,0-2.77,8.32,32.1,32.1,0,0,1,3.43,6.25,74,74,0,0,1,3.24-9.45c.25,4.88-.73,10,.49,14.87.49,2.69,2.2,7.81,4.39,9.76,4.39,3.9,5.36-1,6.58-4.39C39.42,94.61,42.35,77.55,51.12,70c1.91-1.6,4.88-2.48,7.6-3.09C61.67,66,56.24,61.87,55.13,61.83Z"/><path class="cls-1" d="M21.26,93.56a53.93,53.93,0,0,1-.47-7.16,55.36,55.36,0,0,1,.33-6,12.24,12.24,0,0,0-1.67,2.71c-2.43,5.43-3.9,12-5.6,17.66a34.78,34.78,0,0,0-1.47,11.1c.07.66.1,1.23.15,1.74.15,3.24,6.51,3.19,6.72-.53a42.22,42.22,0,0,1,.2-10.72A46.59,46.59,0,0,1,21.26,93.56Z"/></svg>